999
dxfrw 0.6.3
  0
SECTION
  2
HEADER
  9
$ACADVER
  1
AC1021
  9
$DWGCODEPAGE
  3
ANSI_1252
  9
$INSBASE
 10
0
 20
0
 30
0
  9
$EXTMIN
 10
-40.37250000000361
 20
-144.702786836054
 30
0
  9
$EXTMAX
 10
406.7781593808418
 20
175.4593291498377
 30
0
  9
$LIMMIN
 10
0
 20
0
  9
$LIMMAX
 10
420
 20
297
  9
$ORTHOMODE
 70
    0
  9
$REGENMODE
 70
    1
  9
$FILLMODE
 70
    1
  9
$QTEXTMODE
 70
    0
  9
$MIRRTEXT
 70
    0
  9
$LTSCALE
 40
1
  9
$ATTMODE
 70
    0
  9
$TEXTSIZE
 40
2.5
  9
$TRACEWID
 40
15.68
  9
$TEXTSTYLE
  7
STANDARD
  9
$CLAYER
  8
holder-front
  9
$CELTYPE
  6
BYLAYER
  9
$CECOLOR
 62
  256
  9
$CELTSCALE
 40
1
  9
$DISPSILH
 70
    0
  9
$DIMSCALE
 40
2.5
  9
$DIMASZ
 40
2.5
  9
$DIMEXO
 40
0.625
  9
$DIMDLI
 40
3.75
  9
$DIMRND
 40
0
  9
$DIMDLE
 40
0
  9
$DIMEXE
 40
1.25
  9
$DIMTP
 40
0
  9
$DIMTM
 40
0
  9
$DIMTXT
 40
2.5
  9
$DIMCEN
 40
2.5
  9
$DIMTSZ
 40
0
  9
$DIMTOL
 70
    0
  9
$DIMLIM
 70
    0
  9
$DIMTIH
 70
    0
  9
$DIMTOH
 70
    0
  9
$DIMSE1
 70
    0
  9
$DIMSE2
 70
    0
  9
$DIMTAD
 70
    1
  9
$DIMZIN
 70
    8
  9
$DIMBLK
  1

  9
$DIMASO
 70
    1
  9
$DIMSHO
 70
    1
  9
$DIMPOST
  1

  9
$DIMAPOST
  1

  9
$DIMALT
 70
    0
  9
$DIMALTD
 70
    3
  9
$DIMALTF
 40
0.03937
  9
$DIMLFAC
 40
1
  9
$DIMTOFL
 70
    1
  9
$DIMTVP
 40
0
  9
$DIMTIX
 70
    0
  9
$DIMSOXD
 70
    0
  9
$DIMSAH
 70
    0
  9
$DIMBLK1
  1

  9
$DIMBLK2
  1

  9
$DIMSTYLE
  2
STANDARD
  9
$DIMCLRD
 70
    0
  9
$DIMCLRE
 70
    0
  9
$DIMCLRT
 70
    0
  9
$DIMTFAC
 40
1
  9
$DIMGAP
 40
0.625
  9
$DIMJUST
 70
    0
  9
$DIMSD1
 70
    0
  9
$DIMSD2
 70
    0
  9
$DIMTOLJ
 70
    0
  9
$DIMTZIN
 70
    8
  9
$DIMALTZ
 70
    0
  9
$DIMALTTZ
 70
    0
  9
$DIMUPT
 70
    0
  9
$DIMDEC
 70
    2
  9
$DIMTDEC
 70
    2
  9
$DIMALTU
 70
    2
  9
$DIMALTTD
 70
    3
  9
$DIMTXSTY
  7
STANDARD
  9
$DIMAUNIT
 70
    0
  9
$DIMADEC
 70
    0
  9
$DIMALTRND
 40
0
  9
$DIMAZIN
 70
    0
  9
$DIMDSEP
 70
   44
  9
$DIMATFIT
 70
    3
  9
$DIMFRAC
 70
    0
  9
$DIMLDRBLK
  1
STANDARD
  9
$DIMLUNIT
 70
    2
  9
$DIMLWD
 70
   -2
  9
$DIMLWE
 70
   -2
  9
$DIMTMOVE
 70
    0
  9
$DIMFXL
 40
1
  9
$DIMFXLON
 70
    0
  9
$DIMJOGANG
 40
0.7854
  9
$DIMTFILL
 70
    0
  9
$DIMTFILLCLR
 70
    0
  9
$DIMARCSYM
 70
    0
  9
$DIMLTYPE
  6

  9
$DIMLTEX1
  6

  9
$DIMLTEX2
  6

  9
$LUNITS
 70
    2
  9
$LUPREC
 70
    4
  9
$SKETCHINC
 40
1
  9
$FILLETRAD
 40
0
  9
$AUNITS
 70
    0
  9
$AUPREC
 70
    2
  9
$MENU
  1
.
  9
$ELEVATION
 40
0
  9
$PELEVATION
 40
0
  9
$THICKNESS
 40
0
  9
$LIMCHECK
 70
    0
  9
$CHAMFERA
 40
0
  9
$CHAMFERB
 40
0
  9
$CHAMFERC
 40
0
  9
$CHAMFERD
 40
0
  9
$SKPOLY
 70
    0
  9
$USRTIMER
 70
    1
  9
$ANGBASE
 50
0
  9
$ANGDIR
 70
    0
  9
$PDMODE
 70
   34
  9
$PDSIZE
 40
0
  9
$PLINEWID
 40
0
  9
$SPLFRAME
 70
    0
  9
$SPLINETYPE
 70
    2
  9
$SPLINESEGS
 70
    8
  9
$HANDSEED
  5
20000
  9
$SURFTAB1
 70
    6
  9
$SURFTAB2
 70
    6
  9
$SURFTYPE
 70
    6
  9
$SURFU
 70
    6
  9
$SURFV
 70
    6
  9
$UCSBASE
  2

  9
$UCSNAME
  2

  9
$UCSORG
 10
0
 20
0
 30
0
  9
$UCSXDIR
 10
1
 20
0
 30
0
  9
$UCSYDIR
 10
0
 20
1
 30
0
  9
$UCSORTHOREF
  2

  9
$UCSORTHOVIEW
 70
    0
  9
$UCSORGTOP
 10
0
 20
0
 30
0
  9
$UCSORGBOTTOM
 10
0
 20
0
 30
0
  9
$UCSORGLEFT
 10
0
 20
0
 30
0
  9
$UCSORGRIGHT
 10
0
 20
0
 30
0
  9
$UCSORGFRONT
 10
0
 20
0
 30
0
  9
$UCSORGBACK
 10
0
 20
0
 30
0
  9
$PUCSBASE
  2

  9
$PUCSNAME
  2

  9
$PUCSORG
 10
0
 20
0
 30
0
  9
$PUCSXDIR
 10
1
 20
0
 30
0
  9
$PUCSYDIR
 10
0
 20
1
 30
0
  9
$PUCSORTHOREF
  2

  9
$PUCSORTHOVIEW
 70
    0
  9
$PUCSORGTOP
 10
0
 20
0
 30
0
  9
$PUCSORGBOTTOM
 10
0
 20
0
 30
0
  9
$PUCSORGLEFT
 10
0
 20
0
 30
0
  9
$PUCSORGRIGHT
 10
0
 20
0
 30
0
  9
$PUCSORGFRONT
 10
0
 20
0
 30
0
  9
$PUCSORGBACK
 10
0
 20
0
 30
0
  9
$USERI1
 70
    0
  9
$USERI2
 70
    0
  9
$USERI3
 70
    0
  9
$USERI4
 70
    0
  9
$USERI5
 70
    0
  9
$USERR1
 40
0
  9
$USERR2
 40
0
  9
$USERR3
 40
0
  9
$USERR4
 40
0
  9
$USERR5
 40
0
  9
$WORLDVIEW
 70
    1
  9
$SHADEDGE
 70
    3
  9
$SHADEDIF
 70
   70
  9
$TILEMODE
 70
    1
  9
$MAXACTVP
 70
   64
  9
$PINSBASE
 10
0
 20
0
 30
0
  9
$PLIMCHECK
 70
    0
  9
$PEXTMIN
 10
0
 20
0
 30
0
  9
$PEXTMAX
 10
0
 20
0
 30
0
  9
$GRIDMODE
 70
    1
  9
$SNAPSTYLE
 70
    0
  9
$PLIMMIN
 10
0
 20
0
  9
$PLIMMAX
 10
210
 20
297
  9
$UNITMODE
 70
    0
  9
$VISRETAIN
 70
    1
  9
$PLINEGEN
 70
    0
  9
$PSLTSCALE
 70
    1
  9
$TREEDEPTH
 70
 3020
  9
$CMLSTYLE
  2
Standard
  9
$CMLJUST
 70
    0
  9
$CMLSCALE
 40
20
  9
$PROXYGRAPHICS
 70
    1
  9
$MEASUREMENT
 70
    1
  9
$CELWEIGHT
370
   -1
  9
$ENDCAPS
280
    0
  9
$JOINSTYLE
280
    0
  9
$LWDISPLAY
290
    0
  9
$INSUNITS
 70
    4
  9
$HYPERLINKBASE
  1

  9
$STYLESHEET
  1

  9
$XEDIT
290
    1
  9
$CEPSNTYPE
380
    0
  9
$PSTYLEMODE
290
    1
  9
$EXTNAMES
290
    1
  9
$PSVPSCALE
 40
1
  9
$OLESTARTUP
290
    0
  9
$SORTENTS
280
  127
  9
$INDEXCTL
280
    0
  9
$HIDETEXT
280
    1
  9
$XCLIPFRAME
290
    0
  9
$HALOGAP
280
    0
  9
$OBSCOLOR
 70
  257
  9
$OBSLTYPE
280
    0
  9
$INTERSECTIONDISPLAY
280
    0
  9
$INTERSECTIONCOLOR
 70
  257
  9
$DIMASSOC
280
    1
  9
$PROJECTNAME
  1

  9
$CAMERADISPLAY
290
    0
  9
$LENSLENGTH
 40
50
  9
$CAMERAHEIGHT
 40
0
  9
$STEPSPERSEC
 40
2
  9
$STEPSIZE
 40
50
  9
$3DDWFPREC
 40
2
  9
$PSOLWIDTH
 40
5
  9
$PSOLHEIGHT
 40
80
  9
$LOFTANG1
 40
1.570796326794897
  9
$LOFTANG2
 40
1.570796326794897
  9
$LOFTMAG1
 40
0
  9
$LOFTMAG2
 40
0
  9
$LOFTPARAM
 70
    7
  9
$LOFTNORMALS
280
    1
  9
$LATITUDE
 40
1
  9
$LONGITUDE
 40
1
  9
$NORTHDIRECTION
 40
0
  9
$TIMEZONE
 70
-8000
  9
$LIGHTGLYPHDISPLAY
280
    1
  9
$TILEMODELIGHTSYNCH
280
    1
  9
$SOLIDHIST
280
    1
  9
$SHOWHIST
280
    1
  9
$DWFFRAME
280
    2
  9
$DGNFRAME
280
    0
  9
$REALWORLDSCALE
290
    1
  9
$INTERFERECOLOR
 62
    1
  9
$CSHADOW
280
    0
  9
$SHADOWPLANELOCATION
 40
0
  0
ENDSEC
  0
SECTION
  2
CLASSES
  0
ENDSEC
  0
SECTION
  2
TABLES
  0
TABLE
  2
VPORT
  5
8
330
0
100
AcDbSymbolTable
 70
    1
  0
VPORT
  5
31
330
2
100
AcDbSymbolTableRecord
100
AcDbViewportTableRecord
  2
*ACTIVE
 70
    0
 10
0
 20
0
 11
1
 21
1
 12
422.8344614608788
 22
196.2190729372371
 13
0
 23
0
 14
10
 24
10
 15
10
 25
10
 16
0
 26
0
 36
1
 17
0
 27
0
 37
0
 40
638.3226273144974
 41
2.554421768707483
 42
50
 43
0
 44
0
 50
0
 51
0
 71
    0
 72
  100
 73
    1
 74
    3
 75
    0
 76
    1
 77
    0
 78
    0
281
    0
 65
    1
110
0
120
0
130
0
111
1
121
0
131
0
112
0
122
1
132
0
 79
    0
146
0
348
10020
 60
    7
 61
    5
292
1
282
    1
141
0
142
0
 63
  250
421
3358443
  0
ENDTAB
  0
TABLE
  2
LTYPE
  5
5
330
0
100
AcDbSymbolTable
 70
    4
  0
LTYPE
  5
14
330
5
100
AcDbSymbolTableRecord
100
AcDbLinetypeTableRecord
  2
ByBlock
 70
    0
  3

 72
   65
 73
    0
 40
0
  0
LTYPE
  5
15
330
5
100
AcDbSymbolTableRecord
100
AcDbLinetypeTableRecord
  2
ByLayer
 70
    0
  3

 72
   65
 73
    0
 40
0
  0
LTYPE
  5
16
330
5
100
AcDbSymbolTableRecord
100
AcDbLinetypeTableRecord
  2
Continuous
 70
    0
  3
Solid line
 72
   65
 73
    0
 40
0
  0
LTYPE
  5
32
330
5
100
AcDbSymbolTableRecord
100
AcDbLinetypeTableRecord
  2
DOT
 70
    0
  3
Dot . . . . . . . . . . . . . . . . . . . . . .
 72
   65
 73
    2
 40
6.35
 49
0
 74
    0
 49
-6.35
 74
    0
  0
LTYPE
  5
33
330
5
100
AcDbSymbolTableRecord
100
AcDbLinetypeTableRecord
  2
DOTTINY
 70
    0
  3
Dot (.15x) .....................................
 72
   65
 73
    2
 40
0.9525
 49
0
 74
    0
 49
-0.9525
 74
    0
  0
LTYPE
  5
34
330
5
100
AcDbSymbolTableRecord
100
AcDbLinetypeTableRecord
  2
DOT2
 70
    0
  3
Dot (.5x) .....................................
 72
   65
 73
    2
 40
3.175
 49
0
 74
    0
 49
-3.175
 74
    0
  0
LTYPE
  5
35
330
5
100
AcDbSymbolTableRecord
100
AcDbLinetypeTableRecord
  2
DOTX2
 70
    0
  3
Dot (2x) .  .  .  .  .  .  .  .  .  .  .  .  .
 72
   65
 73
    2
 40
12.7
 49
0
 74
    0
 49
-12.7
 74
    0
  0
LTYPE
  5
36
330
5
100
AcDbSymbolTableRecord
100
AcDbLinetypeTableRecord
  2
DASHED
 70
    0
  3
Dashed _ _ _ _ _ _ _ _ _ _ _ _ _ _ _ _ _
 72
   65
 73
    2
 40
19.05
 49
12.7
 74
    0
 49
-6.35
 74
    0
  0
LTYPE
  5
37
330
5
100
AcDbSymbolTableRecord
100
AcDbLinetypeTableRecord
  2
DASHEDTINY
 70
    0
  3
Dashed (.15x) _ _ _ _ _ _ _ _ _ _ _ _ _ _ _ _ _
 72
   65
 73
    2
 40
2.8575
 49
1.905
 74
    0
 49
-0.9525
 74
    0
  0
LTYPE
  5
38
330
5
100
AcDbSymbolTableRecord
100
AcDbLinetypeTableRecord
  2
DASHED2
 70
    0
  3
Dashed (.5x) _ _ _ _ _ _ _ _ _ _ _ _ _ _ _ _ _
 72
   65
 73
    2
 40
9.524999999999999
 49
6.35
 74
    0
 49
-3.175
 74
    0
  0
LTYPE
  5
39
330
5
100
AcDbSymbolTableRecord
100
AcDbLinetypeTableRecord
  2
DASHEDX2
 70
    0
  3
Dashed (2x) ____  ____  ____  ____  ____  ___
 72
   65
 73
    2
 40
38.09999999999999
 49
25.4
 74
    0
 49
-12.7
 74
    0
  0
LTYPE
  5
3A
330
5
100
AcDbSymbolTableRecord
100
AcDbLinetypeTableRecord
  2
DASHDOT
 70
    0
  3
Dash dot __ . __ . __ . __ . __ . __ . __ . __
 72
   65
 73
    4
 40
25.4
 49
12.7
 74
    0
 49
-6.35
 74
    0
 49
0
 74
    0
 49
-6.35
 74
    0
  0
LTYPE
  5
3B
330
5
100
AcDbSymbolTableRecord
100
AcDbLinetypeTableRecord
  2
DASHDOTTINY
 70
    0
  3
Dash dot (.15x) _._._._._._._._._._._._._._._.
 72
   65
 73
    4
 40
3.81
 49
1.905
 74
    0
 49
-0.9525
 74
    0
 49
0
 74
    0
 49
-0.9525
 74
    0
  0
LTYPE
  5
3C
330
5
100
AcDbSymbolTableRecord
100
AcDbLinetypeTableRecord
  2
DASHDOT2
 70
    0
  3
Dash dot (.5x) _._._._._._._._._._._._._._._.
 72
   65
 73
    4
 40
12.7
 49
6.35
 74
    0
 49
-3.175
 74
    0
 49
0
 74
    0
 49
-3.175
 74
    0
  0
LTYPE
  5
3D
330
5
100
AcDbSymbolTableRecord
100
AcDbLinetypeTableRecord
  2
DASHDOTX2
 70
    0
  3
Dash dot (2x) ____  .  ____  .  ____  .  ___
 72
   65
 73
    4
 40
50.8
 49
25.4
 74
    0
 49
-12.7
 74
    0
 49
0
 74
    0
 49
-12.7
 74
    0
  0
LTYPE
  5
3E
330
5
100
AcDbSymbolTableRecord
100
AcDbLinetypeTableRecord
  2
DIVIDE
 70
    0
  3
Divide ____ . . ____ . . ____ . . ____ . . ____
 72
   65
 73
    6
 40
31.75
 49
12.7
 74
    0
 49
-6.35
 74
    0
 49
0
 74
    0
 49
-6.35
 74
    0
 49
0
 74
    0
 49
-6.35
 74
    0
  0
LTYPE
  5
3F
330
5
100
AcDbSymbolTableRecord
100
AcDbLinetypeTableRecord
  2
DIVIDETINY
 70
    0
  3
Divide (.15x) __..__..__..__..__..__..__..__.._
 72
   65
 73
    6
 40
4.7625
 49
1.905
 74
    0
 49
-0.9525
 74
    0
 49
0
 74
    0
 49
-0.9525
 74
    0
 49
0
 74
    0
 49
-0.9525
 74
    0
  0
LTYPE
  5
40
330
5
100
AcDbSymbolTableRecord
100
AcDbLinetypeTableRecord
  2
DIVIDE2
 70
    0
  3
Divide (.5x) __..__..__..__..__..__..__..__.._
 72
   65
 73
    6
 40
15.875
 49
6.35
 74
    0
 49
-3.175
 74
    0
 49
0
 74
    0
 49
-3.175
 74
    0
 49
0
 74
    0
 49
-3.175
 74
    0
  0
LTYPE
  5
41
330
5
100
AcDbSymbolTableRecord
100
AcDbLinetypeTableRecord
  2
DIVIDEX2
 70
    0
  3
Divide (2x) ________  .  .  ________  .  .  _
 72
   65
 73
    6
 40
63.5
 49
25.4
 74
    0
 49
-12.7
 74
    0
 49
0
 74
    0
 49
-12.7
 74
    0
 49
0
 74
    0
 49
-12.7
 74
    0
  0
LTYPE
  5
42
330
5
100
AcDbSymbolTableRecord
100
AcDbLinetypeTableRecord
  2
BORDER
 70
    0
  3
Border __ __ . __ __ . __ __ . __ __ . __ __ .
 72
   65
 73
    6
 40
44.45
 49
12.7
 74
    0
 49
-6.35
 74
    0
 49
12.7
 74
    0
 49
-6.35
 74
    0
 49
0
 74
    0
 49
-6.35
 74
    0
  0
LTYPE
  5
43
330
5
100
AcDbSymbolTableRecord
100
AcDbLinetypeTableRecord
  2
BORDERTINY
 70
    0
  3
Border (.15x) __.__.__.__.__.__.__.__.__.__.__.
 72
   65
 73
    6
 40
6.6675
 49
1.905
 74
    0
 49
-0.9525
 74
    0
 49
1.905
 74
    0
 49
-0.9525
 74
    0
 49
0
 74
    0
 49
-0.9525
 74
    0
  0
LTYPE
  5
44
330
5
100
AcDbSymbolTableRecord
100
AcDbLinetypeTableRecord
  2
BORDER2
 70
    0
  3
Border (.5x) __.__.__.__.__.__.__.__.__.__.__.
 72
   65
 73
    6
 40
22.225
 49
6.35
 74
    0
 49
-3.175
 74
    0
 49
6.35
 74
    0
 49
-3.175
 74
    0
 49
0
 74
    0
 49
-3.175
 74
    0
  0
LTYPE
  5
45
330
5
100
AcDbSymbolTableRecord
100
AcDbLinetypeTableRecord
  2
BORDERX2
 70
    0
  3
Border (2x) ____  ____  .  ____  ____  .  ___
 72
   65
 73
    6
 40
88.89999999999999
 49
25.4
 74
    0
 49
-12.7
 74
    0
 49
25.4
 74
    0
 49
-12.7
 74
    0
 49
0
 74
    0
 49
-12.7
 74
    0
  0
LTYPE
  5
46
330
5
100
AcDbSymbolTableRecord
100
AcDbLinetypeTableRecord
  2
CENTER
 70
    0
  3
Center ____ _ ____ _ ____ _ ____ _ ____ _ ____
 72
   65
 73
    4
 40
50.8
 49
31.75
 74
    0
 49
-6.35
 74
    0
 49
6.35
 74
    0
 49
-6.35
 74
    0
  0
LTYPE
  5
47
330
5
100
AcDbSymbolTableRecord
100
AcDbLinetypeTableRecord
  2
CENTERTINY
 70
    0
  3
Center (.15x) ___ _ ___ _ ___ _ ___ _ ___ _ ___
 72
   65
 73
    4
 40
7.619999999999999
 49
4.7625
 74
    0
 49
-0.9525
 74
    0
 49
0.9525
 74
    0
 49
-0.9525
 74
    0
  0
LTYPE
  5
48
330
5
100
AcDbSymbolTableRecord
100
AcDbLinetypeTableRecord
  2
CENTER2
 70
    0
  3
Center (.5x) ___ _ ___ _ ___ _ ___ _ ___ _ ___
 72
   65
 73
    4
 40
28.575
 49
19.05
 74
    0
 49
-3.175
 74
    0
 49
3.175
 74
    0
 49
-3.175
 74
    0
  0
LTYPE
  5
49
330
5
100
AcDbSymbolTableRecord
100
AcDbLinetypeTableRecord
  2
CENTERX2
 70
    0
  3
Center (2x) ________  __  ________  __  _____
 72
   65
 73
    4
 40
101.6
 49
63.5
 74
    0
 49
-12.7
 74
    0
 49
12.7
 74
    0
 49
-12.7
 74
    0
  0
ENDTAB
  0
TABLE
  2
LAYER
  5
2
330
0
100
AcDbSymbolTable
 70
    1
  0
LAYER
  5
10
330
2
100
AcDbSymbolTableRecord
100
AcDbLayerTableRecord
  2
0
 70
    0
 62
    7
  6
CONTINUOUS
370
    0
390
F
  0
LAYER
  5
4A
330
2
100
AcDbSymbolTableRecord
100
AcDbLayerTableRecord
  2
connector-ref
 70
    1
 62
    6
  6
CONTINUOUS
370
    0
390
F
1001
LibreCad
1070
    1
  0
LAYER
  5
4B
330
2
100
AcDbSymbolTableRecord
100
AcDbLayerTableRecord
  2
holder-back
 70
    0
 62
    3
  6
CONTINUOUS
370
    0
390
F
  0
LAYER
  5
4C
330
2
100
AcDbSymbolTableRecord
100
AcDbLayerTableRecord
  2
holder-bot
 70
    0
 62
    4
  6
CONTINUOUS
370
    0
390
F
  0
LAYER
  5
4D
330
2
100
AcDbSymbolTableRecord
100
AcDbLayerTableRecord
  2
holder-end1
 70
    0
 62
    4
  6
CONTINUOUS
370
    0
390
F
  0
LAYER
  5
4E
330
2
100
AcDbSymbolTableRecord
100
AcDbLayerTableRecord
  2
holder-end2
 70
    0
 62
  136
420
32896
  6
CONTINUOUS
370
    0
390
F
  0
LAYER
  5
4F
330
2
100
AcDbSymbolTableRecord
100
AcDbLayerTableRecord
  2
holder-front
 70
    0
 62
    1
  6
CONTINUOUS
370
    0
390
F
  0
LAYER
  5
50
330
2
100
AcDbSymbolTableRecord
100
AcDbLayerTableRecord
  2
holder-front-etch
 70
    0
 62
   16
420
8388608
  6
CONTINUOUS
370
    0
390
F
  0
LAYER
  5
51
330
2
100
AcDbSymbolTableRecord
100
AcDbLayerTableRecord
  2
holder-front2
 70
    0
 62
    2
  6
CONTINUOUS
370
    0
390
F
  0
LAYER
  5
52
330
2
100
AcDbSymbolTableRecord
100
AcDbLayerTableRecord
  2
holder-ref
 70
    1
 62
    6
  6
CONTINUOUS
370
    0
390
F
1001
LibreCad
1070
    1
  0
LAYER
  5
53
330
2
100
AcDbSymbolTableRecord
100
AcDbLayerTableRecord
  2
htab-ref
 70
    1
 62
    6
  6
CONTINUOUS
370
    0
390
F
1001
LibreCad
1070
    1
  0
LAYER
  5
54
330
2
100
AcDbSymbolTableRecord
100
AcDbLayerTableRecord
  2
led-ref
 70
    1
 62
    6
  6
CONTINUOUS
370
    0
390
F
1001
LibreCad
1070
    1
  0
LAYER
  5
55
330
2
100
AcDbSymbolTableRecord
100
AcDbLayerTableRecord
  2
ref
 70
    1
 62
    6
  6
CONTINUOUS
370
    0
390
F
1001
LibreCad
1070
    1
  0
LAYER
  5
56
330
2
100
AcDbSymbolTableRecord
100
AcDbLayerTableRecord
  2
shelf
 70
    0
 62
    3
  6
CONTINUOUS
370
    0
390
F
  0
LAYER
  5
57
330
2
100
AcDbSymbolTableRecord
100
AcDbLayerTableRecord
  2
shelf-ref
 70
    1
 62
    6
  6
CONTINUOUS
370
    0
390
F
1001
LibreCad
1070
    1
  0
LAYER
  5
58
330
2
100
AcDbSymbolTableRecord
100
AcDbLayerTableRecord
  2
side
 70
    0
 62
    1
  6
CONTINUOUS
370
    0
390
F
  0
LAYER
  5
59
330
2
100
AcDbSymbolTableRecord
100
AcDbLayerTableRecord
  2
side-ref
 70
    1
 62
    6
  6
CONTINUOUS
370
    0
390
F
1001
LibreCad
1070
    1
  0
LAYER
  5
5A
330
2
100
AcDbSymbolTableRecord
100
AcDbLayerTableRecord
  2
sign
 70
    1
 62
    2
  6
CONTINUOUS
370
    0
390
F
  0
LAYER
  5
5B
330
2
100
AcDbSymbolTableRecord
100
AcDbLayerTableRecord
  2
sign-limit
 70
    1
 62
   56
420
8421376
  6
CONTINUOUS
370
    0
390
F
  0
LAYER
  5
5C
330
2
100
AcDbSymbolTableRecord
100
AcDbLayerTableRecord
  2
slot-ref
 70
    1
 62
    6
  6
CONTINUOUS
370
    0
390
F
1001
LibreCad
1070
    1
  0
LAYER
  5
5D
330
2
100
AcDbSymbolTableRecord
100
AcDbLayerTableRecord
  2
tilt-math
 70
    1
 62
    7
  6
CONTINUOUS
370
    0
390
F
  0
LAYER
  5
5E
330
2
100
AcDbSymbolTableRecord
100
AcDbLayerTableRecord
  2
top
 70
    0
 62
    3
  6
CONTINUOUS
370
    0
390
F
  0
LAYER
  5
5F
330
2
100
AcDbSymbolTableRecord
100
AcDbLayerTableRecord
  2
top-ref
 70
    1
 62
    6
  6
CONTINUOUS
370
    0
390
F
1001
LibreCad
1070
    1
  0
LAYER
  5
60
330
2
100
AcDbSymbolTableRecord
100
AcDbLayerTableRecord
  2
vtab-ref
 70
    1
 62
    6
  6
CONTINUOUS
370
    0
390
F
1001
LibreCad
1070
    1
  0
ENDTAB
  0
TABLE
  2
STYLE
  5
3
330
0
100
AcDbSymbolTable
 70
    3
  0
STYLE
  5
61
330
2
100
AcDbSymbolTableRecord
100
AcDbTextStyleTableRecord
  2
Standard
 70
    0
 40
0
 41
1
 50
0
 71
    0
 42
1
  3
txt
  4

  0
ENDTAB
  0
TABLE
  2
VIEW
  5
6
330
0
100
AcDbSymbolTable
 70
    0
  0
ENDTAB
  0
TABLE
  2
UCS
  5
7
330
0
100
AcDbSymbolTable
 70
    0
  0
ENDTAB
  0
TABLE
  2
APPID
  5
9
330
0
100
AcDbSymbolTable
 70
    1
  0
APPID
  5
12
330
9
100
AcDbSymbolTableRecord
100
AcDbRegAppTableRecord
  2
ACAD
 70
    0
  0
APPID
  5
62
330
9
100
AcDbSymbolTableRecord
100
AcDbRegAppTableRecord
  2
LibreCad
 70
    0
  0
ENDTAB
  0
TABLE
  2
DIMSTYLE
  5
A
330
0
100
AcDbSymbolTable
 70
    1
100
AcDbDimStyleTable
 71
    1
  0
DIMSTYLE
105
63
330
A
100
AcDbSymbolTableRecord
100
AcDbDimStyleTableRecord
  2
Standard
 70
    0
 40
2.5
 41
2.5
 42
0.625
 43
0.38
 44
1.25
 45
0
 46
0
 47
0
 48
0
 49
1
140
2.5
141
0.09
142
0
143
25.4
144
1
145
0
146
1
147
0.625
148
0
 71
    0
 72
    0
 73
    0
 74
    1
 75
    0
 76
    0
 77
    0
 78
    8
 79
    0
170
    0
171
    2
172
    0
173
    0
174
    0
175
    0
176
    0
177
    0
178
    0
179
    0
271
    2
272
    4
273
    2
274
    2
275
    0
276
    0
277
    2
278
   44
279
    0
280
    0
281
    0
282
    0
283
    1
284
    0
285
    0
286
    0
288
    0
289
    3
340
STANDARD
341

371
   -2
372
   -2
  0
ENDTAB
  0
TABLE
  2
BLOCK_RECORD
  5
1
330
0
100
AcDbSymbolTable
 70
    2
  0
BLOCK_RECORD
  5
1F
330
1
100
AcDbSymbolTableRecord
100
AcDbBlockTableRecord
  2
*Model_Space
 70
    0
280
    1
281
    0
  0
BLOCK_RECORD
  5
1E
330
1
100
AcDbSymbolTableRecord
100
AcDbBlockTableRecord
  2
*Paper_Space
 70
    0
280
    1
281
    0
  0
ENDTAB
  0
ENDSEC
  0
SECTION
  2
BLOCKS
  0
BLOCK
  5
20
330
1F
100
AcDbEntity
  8
0
100
AcDbBlockBegin
  2
*Model_Space
 70
    0
 10
0
 20
0
 30
0
  3
*Model_Space
  1

  0
ENDBLK
  5
21
330
1F
100
AcDbEntity
  8
0
100
AcDbBlockEnd
  0
BLOCK
  5
1C
330
1B
100
AcDbEntity
  8
0
100
AcDbBlockBegin
  2
*Paper_Space
 70
    0
 10
0
 20
0
 30
0
  3
*Paper_Space
  1

  0
ENDBLK
  5
1D
330
1F
100
AcDbEntity
  8
0
100
AcDbBlockEnd
  0
ENDSEC
  0
SECTION
  2
ENTITIES
  0
LINE
  5
64
100
AcDbEntity
  8
ref
  6
ByLayer
 62
  256
370
   -1
100
AcDbLine
 10
146.25
 20
150.5
 11
146.25
 21
160.5
  0
LINE
  5
65
100
AcDbEntity
  8
ref
  6
ByLayer
 62
  256
370
   -1
100
AcDbLine
 10
56.25
 20
150.5
 11
56.25
 21
160.5
  0
LINE
  5
66
100
AcDbEntity
  8
ref
  6
ByLayer
 62
  256
370
   -1
100
AcDbLine
 10
166.25
 20
150.5
 11
166.25
 21
160.5
  0
LINE
  5
67
100
AcDbEntity
  8
tilt-math
  6
ByLayer
 62
  256
370
   -1
100
AcDbLine
 10
373.3789407991817
 20
175.4593291498377
 11
428.3789407991817
 21
175.4593291498377
  0
LINE
  5
68
100
AcDbEntity
  8
tilt-math
  6
ByLayer
 62
  256
370
   -1
100
AcDbLine
 10
373.3789407991817
 20
172.0593291498377
 11
428.3789407991817
 21
172.0593291498377
  0
LINE
  5
69
100
AcDbEntity
  8
tilt-math
  6
ByLayer
 62
    6
370
   -1
100
AcDbLine
 10
403.925220634839
 20
170.4593291498377
 11
403.925220634839
 21
180.4593291498377
  0
LINE
  5
6A
100
AcDbEntity
  8
tilt-math
  6
ByLayer
 62
    6
370
   -1
100
AcDbLine
 10
400.279429064773
 20
167.0593291498377
 11
400.279429064773
 21
177.0593291498377
  0
LINE
  5
6B
100
AcDbEntity
  8
slot-ref
  6
ByLayer
 62
  256
370
   -1
100
AcDbLine
 10
52.85
 20
150.5
 11
52.85
 21
160.5
  0
LINE
  5
6C
100
AcDbEntity
  8
slot-ref
  6
ByLayer
 62
  256
370
   -1
100
AcDbLine
 10
149.65
 20
150.5
 11
149.65
 21
160.5
  0
LINE
  5
6D
100
AcDbEntity
  8
vtab-ref
  6
ByLayer
 62
  256
370
   -1
100
AcDbLine
 10
104.25
 20
26.93497680966658
 11
104.25
 21
36.93497680966658
  0
LINE
  5
6E
100
AcDbEntity
  8
vtab-ref
  6
ByLayer
 62
  256
370
   -1
100
AcDbLine
 10
98.25
 20
26.93497680966658
 11
98.25
 21
36.93497680966658
  0
LINE
  5
6F
100
AcDbEntity
  8
vtab-ref
  6
ByLayer
 62
  256
370
   -1
100
AcDbLine
 10
110.25
 20
26.93497680966658
 11
110.25
 21
36.93497680966658
  0
LINE
  5
70
100
AcDbEntity
  8
vtab-ref
  6
ByLayer
 62
  256
370
   -1
100
AcDbLine
 10
116.25
 20
26.93497680966658
 11
116.25
 21
36.93497680966658
  0
LINE
  5
71
100
AcDbEntity
  8
vtab-ref
  6
ByLayer
 62
  256
370
   -1
100
AcDbLine
 10
122.25
 20
26.93497680966658
 11
122.25
 21
36.93497680966657
  0
LINE
  5
72
100
AcDbEntity
  8
vtab-ref
  6
ByLayer
 62
  256
370
   -1
100
AcDbLine
 10
128.25
 20
26.93497680966657
 11
128.25
 21
36.93497680966657
  0
LINE
  5
73
100
AcDbEntity
  8
vtab-ref
  6
ByLayer
 62
  256
370
   -1
100
AcDbLine
 10
134.25
 20
26.93497680966657
 11
134.25
 21
36.93497680966657
  0
LINE
  5
74
100
AcDbEntity
  8
vtab-ref
  6
ByLayer
 62
  256
370
   -1
100
AcDbLine
 10
140.25
 20
26.93497680966657
 11
140.25
 21
36.93497680966657
  0
LINE
  5
75
100
AcDbEntity
  8
vtab-ref
  6
ByLayer
 62
  256
370
   -1
100
AcDbLine
 10
146.25
 20
26.93497680966657
 11
146.25
 21
36.93497680966657
  0
LINE
  5
76
100
AcDbEntity
  8
vtab-ref
  6
ByLayer
 62
  256
370
   -1
100
AcDbLine
 10
152.25
 20
26.93497680966657
 11
152.25
 21
36.93497680966657
  0
LINE
  5
77
100
AcDbEntity
  8
vtab-ref
  6
ByLayer
 62
  256
370
   -1
100
AcDbLine
 10
158.25
 20
26.93497680966657
 11
158.25
 21
36.93497680966657
  0
LINE
  5
78
100
AcDbEntity
  8
vtab-ref
  6
ByLayer
 62
  256
370
   -1
100
AcDbLine
 10
164.25
 20
26.93497680966657
 11
164.25
 21
36.93497680966657
  0
LINE
  5
79
100
AcDbEntity
  8
vtab-ref
  6
ByLayer
 62
  256
370
   -1
100
AcDbLine
 10
92.25
 20
26.93497680966658
 11
92.25
 21
36.93497680966658
  0
LINE
  5
7A
100
AcDbEntity
  8
vtab-ref
  6
ByLayer
 62
  256
370
   -1
100
AcDbLine
 10
86.25
 20
26.93497680966658
 11
86.25
 21
36.93497680966658
  0
LINE
  5
7B
100
AcDbEntity
  8
vtab-ref
  6
ByLayer
 62
  256
370
   -1
100
AcDbLine
 10
80.25
 20
26.93497680966658
 11
80.25
 21
36.93497680966658
  0
LINE
  5
7C
100
AcDbEntity
  8
vtab-ref
  6
ByLayer
 62
  256
370
   -1
100
AcDbLine
 10
74.25
 20
26.93497680966658
 11
74.25
 21
36.93497680966658
  0
LINE
  5
7D
100
AcDbEntity
  8
vtab-ref
  6
ByLayer
 62
  256
370
   -1
100
AcDbLine
 10
68.25
 20
26.93497680966658
 11
68.25
 21
36.93497680966659
  0
LINE
  5
7E
100
AcDbEntity
  8
vtab-ref
  6
ByLayer
 62
  256
370
   -1
100
AcDbLine
 10
62.25
 20
26.93497680966658
 11
62.25
 21
36.93497680966659
  0
LINE
  5
7F
100
AcDbEntity
  8
vtab-ref
  6
ByLayer
 62
  256
370
   -1
100
AcDbLine
 10
56.25
 20
26.93497680966658
 11
56.25
 21
36.93497680966659
  0
LINE
  5
80
100
AcDbEntity
  8
vtab-ref
  6
ByLayer
 62
  256
370
   -1
100
AcDbLine
 10
50.25
 20
26.93497680966659
 11
50.25
 21
36.93497680966659
  0
LINE
  5
81
100
AcDbEntity
  8
vtab-ref
  6
ByLayer
 62
  256
370
   -1
100
AcDbLine
 10
44.25
 20
26.93497680966659
 11
44.25
 21
36.93497680966659
  0
LINE
  5
82
100
AcDbEntity
  8
vtab-ref
  6
ByLayer
 62
  256
370
   -1
100
AcDbLine
 10
38.25
 20
26.93497680966659
 11
38.25
 21
36.93497680966659
  0
LINE
  5
83
100
AcDbEntity
  8
side-ref
  6
ByLayer
 62
  256
370
   -1
100
AcDbLine
 10
218.8725000000036
 20
30.24700000000057
 11
218.8725000000036
 21
40.24700000000057
  0
LINE
  5
84
100
AcDbEntity
  8
side-ref
  6
ByLayer
 62
  256
370
   -1
100
AcDbLine
 10
238.8725000000036
 20
30.24700000000056
 11
238.8725000000036
 21
40.24700000000056
  0
LINE
  5
85
100
AcDbEntity
  8
side-ref
  6
ByLayer
 62
  256
370
   -1
100
AcDbLine
 10
215.4725000000035
 20
30.24700000000057
 11
215.4725000000035
 21
40.24700000000057
  0
LINE
  5
86
100
AcDbEntity
  8
side-ref
  6
ByLayer
 62
  256
370
   -1
100
AcDbLine
 10
36.25
 20
31.93497680966658
 11
166.25
 21
31.93497680966658
  0
LINE
  5
87
100
AcDbEntity
  8
side-ref
  6
ByLayer
 62
  256
370
   -1
100
AcDbLine
 10
166.25
 20
-3.065023190333421
 11
36.25
 21
-3.065023190333421
  0
LINE
  5
88
100
AcDbEntity
  8
side-ref
  6
ByLayer
 62
  256
370
   -1
100
AcDbLine
 10
166.25
 20
-6.465023190333421
 11
36.25
 21
-6.465023190333421
  0
LINE
  5
89
100
AcDbEntity
  8
side-ref
  6
ByLayer
 62
  256
370
   -1
100
AcDbLine
 10
36.25
 20
35.33497680966658
 11
166.25
 21
35.33497680966658
  0
LINE
  5
8A
100
AcDbEntity
  8
vtab-ref
  6
ByLayer
 62
  256
370
   -1
100
AcDbLine
 10
224.8725000000036
 20
30.24700000000057
 11
224.8725000000036
 21
40.24700000000057
  0
LINE
  5
8B
100
AcDbEntity
  8
vtab-ref
  6
ByLayer
 62
  256
370
   -1
100
AcDbLine
 10
230.8725000000036
 20
30.24700000000057
 11
230.8725000000036
 21
40.24700000000057
  0
LINE
  5
8C
100
AcDbEntity
  8
vtab-ref
  6
ByLayer
 62
  256
370
   -1
100
AcDbLine
 10
236.8725000000036
 20
30.24700000000057
 11
236.8725000000036
 21
40.24700000000057
  0
LINE
  5
8D
100
AcDbEntity
  8
side-ref
  6
ByLayer
 62
  256
370
   -1
100
AcDbLine
 10
176.1785400175932
 20
-21.76781002638559
 11
186.1785400175932
 21
-21.76781002638559
  0
LINE
  5
8E
100
AcDbEntity
  8
side-ref
  6
ByLayer
 62
  256
370
   -1
100
AcDbLine
 10
176.1785400175932
 20
-45.76781002638559
 11
186.1785400175932
 21
-45.76781002638559
  0
LINE
  5
8F
100
AcDbEntity
  8
side-ref
  6
ByLayer
 62
  256
370
   -1
100
AcDbLine
 10
176.1785400175932
 20
-18.36781002638559
 11
186.1785400175932
 21
-18.36781002638559
  0
LINE
  5
90
100
AcDbEntity
  8
side-ref
  6
ByLayer
 62
  256
370
   -1
100
AcDbLine
 10
178.25
 20
30.33497680966658
 11
178.25
 21
40.33497680966658
  0
LINE
  5
91
100
AcDbEntity
  8
side-ref
  6
ByLayer
 62
  256
370
   -1
100
AcDbLine
 10
24.25
 20
30.33497680966658
 11
24.25
 21
40.33497680966658
  0
LINE
  5
92
100
AcDbEntity
  8
vtab-ref
  6
ByLayer
 62
  256
370
   -1
100
AcDbLine
 10
170.25
 20
26.93497680966657
 11
170.25
 21
36.93497680966657
  0
LINE
  5
93
100
AcDbEntity
  8
vtab-ref
  6
ByLayer
 62
  256
370
   -1
100
AcDbLine
 10
176.25
 20
26.93497680966657
 11
176.25
 21
36.93497680966657
  0
LINE
  5
94
100
AcDbEntity
  8
vtab-ref
  6
ByLayer
 62
  256
370
   -1
100
AcDbLine
 10
32.25
 20
26.93497680966659
 11
32.25
 21
36.93497680966659
  0
LINE
  5
95
100
AcDbEntity
  8
vtab-ref
  6
ByLayer
 62
  256
370
   -1
100
AcDbLine
 10
26.25
 20
26.93497680966659
 11
26.25
 21
36.93497680966659
  0
LINE
  5
96
100
AcDbEntity
  8
holder-ref
  6
ByLayer
 62
  256
370
   -1
100
AcDbLine
 10
394.9258717739363
 20
161.2776166587221
 11
399.2670762156095
 21
185.8978104840273
  0
LINE
  5
97
100
AcDbEntity
  8
holder-ref
  6
ByLayer
 62
  256
370
   -1
100
AcDbLine
 10
404.576987753456
 20
159.5758645175862
 11
408.9181921951292
 21
184.1960583428914
  0
LINE
  5
98
100
AcDbEntity
  8
led-ref
  6
ByLayer
 62
  256
370
   -1
100
AcDbLine
 10
402.0795174637824
 20
164.9918263114136
 11
399.1250942047458
 21
165.5127708444143
  0
LINE
  5
99
100
AcDbEntity
  8
htab-ref
  6
ByLayer
 62
  256
370
   -1
100
AcDbLine
 10
402.3399897302828
 20
166.4690379409319
 11
399.3855664712461
 21
166.9899824739327
  0
LINE
  5
9A
100
AcDbEntity
  8
htab-ref
  6
ByLayer
 62
  256
370
   -1
100
AcDbLine
 10
402.8609342632835
 20
169.4234611999685
 11
399.9065110042469
 21
169.9444057329693
  0
LINE
  5
9B
100
AcDbEntity
  8
htab-ref
  6
ByLayer
 62
  256
370
   -1
100
AcDbLine
 10
403.3818787962843
 20
172.3778844590051
 11
400.4274555372477
 21
172.8988289920059
  0
LINE
  5
9C
100
AcDbEntity
  8
holder-end1
  6
ByLayer
 62
  256
370
   -1
100
AcDbLine
 10
402.3399897302828
 20
166.4690379409319
 11
402.8609342632836
 21
169.4234611999685
  0
LINE
  5
9D
100
AcDbEntity
  8
holder-end1
  6
ByLayer
 62
  256
370
   -1
100
AcDbLine
 10
402.8609342632836
 20
169.4234611999685
 11
406.2092806235251
 21
168.8330573959009
  0
LINE
  5
9E
100
AcDbEntity
  8
holder-end1
  6
ByLayer
 62
  256
370
   -1
100
AcDbLine
 10
406.2092806235251
 20
168.8330573959009
 11
406.7781593808418
 21
172.0593291498377
  0
LINE
  5
9F
100
AcDbEntity
  8
holder-end1
  6
ByLayer
 62
  256
370
   -1
100
AcDbLine
 10
396.8269785843614
 20
172.0593291498377
 11
396.5581646440054
 21
170.5348095370368
  0
LINE
  5
A0
100
AcDbEntity
  8
holder-end1
  6
ByLayer
 62
  256
370
   -1
100
AcDbLine
 10
396.5581646440054
 20
170.5348095370368
 11
399.9065110042469
 21
169.9444057329692
  0
LINE
  5
A1
100
AcDbEntity
  8
holder-end1
  6
ByLayer
 62
  256
370
   -1
100
AcDbLine
 10
399.9065110042469
 20
169.9444057329692
 11
399.3855664712461
 21
166.9899824739327
  0
LINE
  5
A2
100
AcDbEntity
  8
holder-end1
  6
ByLayer
 62
  256
370
   -1
100
AcDbLine
 10
406.7781593808418
 20
172.0593291498377
 11
396.8269785843614
 21
172.0593291498377
  0
LINE
  5
A3
100
AcDbEntity
  8
holder-end2
  6
ByLayer
 62
  256
370
   -1
100
AcDbLine
 10
406.7781593808418
 20
172.0593291498377
 11
406.2092806235251
 21
168.8330573959009
  0
LINE
  5
A4
100
AcDbEntity
  8
holder-end2
  6
ByLayer
 62
  256
370
   -1
100
AcDbLine
 10
406.2092806235251
 20
168.8330573959009
 11
402.8609342632836
 21
169.4234611999685
  0
LINE
  5
A5
100
AcDbEntity
  8
holder-end2
  6
ByLayer
 62
  256
370
   -1
100
AcDbLine
 10
402.8609342632836
 20
169.4234611999685
 11
402.3399897302828
 21
166.4690379409319
  0
LINE
  5
A6
100
AcDbEntity
  8
holder-ref
  6
ByLayer
 62
  256
370
   -1
100
AcDbLine
 10
47.01775000000281
 20
81.57975000000441
 11
57.01775000000281
 21
81.57975000000441
  0
LINE
  5
A7
100
AcDbEntity
  8
holder-ref
  6
ByLayer
 62
  256
370
   -1
100
AcDbLine
 10
47.01775000000281
 20
78.12725000000441
 11
57.01775000000281
 21
78.12725000000441
  0
LINE
  5
A8
100
AcDbEntity
  8
holder-ref
  6
ByLayer
 62
  256
370
   -1
100
AcDbLine
 10
49.45
 20
150.5
 11
49.45
 21
160.5
  0
LINE
  5
A9
100
AcDbEntity
  8
holder-ref
  6
ByLayer
 62
  256
370
   -1
100
AcDbLine
 10
153.05
 20
150.5
 11
153.05
 21
160.5
  0
LINE
  5
AA
100
AcDbEntity
  8
htab-ref
  6
ByLayer
 62
  256
370
   -1
100
AcDbLine
 10
47.01775000000281
 20
84.25625000000441
 11
57.01775000000281
 21
84.25625000000441
  0
LINE
  5
AB
100
AcDbEntity
  8
htab-ref
  6
ByLayer
 62
  256
370
   -1
100
AcDbLine
 10
47.01775000000281
 20
87.25625000000441
 11
57.01775000000281
 21
87.25625000000441
  0
LINE
  5
AC
100
AcDbEntity
  8
vtab-ref
  6
ByLayer
 62
  256
370
   -1
100
AcDbLine
 10
98.25
 20
6.43497680966658
 11
98.25
 21
16.43497680966658
  0
LINE
  5
AD
100
AcDbEntity
  8
vtab-ref
  6
ByLayer
 62
  256
370
   -1
100
AcDbLine
 10
106.25
 20
6.43497680966658
 11
106.25
 21
16.43497680966658
  0
LINE
  5
AE
100
AcDbEntity
  8
vtab-ref
  6
ByLayer
 62
  256
370
   -1
100
AcDbLine
 10
96.25
 20
9.43497680966658
 11
96.25
 21
19.43497680966658
  0
LINE
  5
AF
100
AcDbEntity
  8
holder-ref
  6
ByLayer
 62
  256
370
   -1
100
AcDbLine
 10
148.0091490866985
 20
59.07231981077182
 11
158.0091490866985
 21
59.07231981077182
  0
LINE
  5
B0
100
AcDbEntity
  8
holder-ref
  6
ByLayer
 62
  256
370
   -1
100
AcDbLine
 10
148.0091490866985
 20
55.67231981077182
 11
158.0091490866985
 21
55.67231981077182
  0
LINE
  5
B1
100
AcDbEntity
  8
holder-bot
  6
ByLayer
 62
  256
370
   -1
100
AcDbLine
 10
98.25
 20
55.67231981077182
 11
104.25
 21
55.67231981077182
  0
LINE
  5
B2
100
AcDbEntity
  8
holder-bot
  6
ByLayer
 62
  256
370
   -1
100
AcDbLine
 10
104.25
 20
55.67231981077182
 11
104.25
 21
59.07231981077182
  0
LINE
  5
B3
100
AcDbEntity
  8
holder-bot
  6
ByLayer
 62
  256
370
   -1
100
AcDbLine
 10
104.25
 20
59.07231981077182
 11
110.25
 21
59.07231981077182
  0
LINE
  5
B4
100
AcDbEntity
  8
holder-bot
  6
ByLayer
 62
  256
370
   -1
100
AcDbLine
 10
110.25
 20
59.07231981077182
 11
110.25
 21
55.67231981077182
  0
LINE
  5
B5
100
AcDbEntity
  8
holder-bot
  6
ByLayer
 62
  256
370
   -1
100
AcDbLine
 10
110.25
 20
55.67231981077182
 11
116.25
 21
55.67231981077182
  0
LINE
  5
B6
100
AcDbEntity
  8
holder-bot
  6
ByLayer
 62
  256
370
   -1
100
AcDbLine
 10
116.25
 20
55.67231981077182
 11
116.25
 21
59.07231981077182
  0
LINE
  5
B7
100
AcDbEntity
  8
holder-bot
  6
ByLayer
 62
  256
370
   -1
100
AcDbLine
 10
116.25
 20
59.07231981077182
 11
122.25
 21
59.07231981077182
  0
LINE
  5
B8
100
AcDbEntity
  8
holder-bot
  6
ByLayer
 62
  256
370
   -1
100
AcDbLine
 10
122.25
 20
59.07231981077182
 11
122.25
 21
55.67231981077182
  0
LINE
  5
B9
100
AcDbEntity
  8
holder-bot
  6
ByLayer
 62
  256
370
   -1
100
AcDbLine
 10
122.25
 20
55.67231981077182
 11
128.25
 21
55.67231981077182
  0
LINE
  5
BA
100
AcDbEntity
  8
holder-bot
  6
ByLayer
 62
  256
370
   -1
100
AcDbLine
 10
128.25
 20
55.67231981077182
 11
128.25
 21
59.07231981077182
  0
LINE
  5
BB
100
AcDbEntity
  8
holder-bot
  6
ByLayer
 62
  256
370
   -1
100
AcDbLine
 10
128.25
 20
59.07231981077182
 11
134.25
 21
59.07231981077182
  0
LINE
  5
BC
100
AcDbEntity
  8
holder-bot
  6
ByLayer
 62
  256
370
   -1
100
AcDbLine
 10
134.25
 20
59.07231981077182
 11
134.25
 21
55.67231981077182
  0
LINE
  5
BD
100
AcDbEntity
  8
holder-bot
  6
ByLayer
 62
  256
370
   -1
100
AcDbLine
 10
134.25
 20
55.67231981077182
 11
140.25
 21
55.67231981077182
  0
LINE
  5
BE
100
AcDbEntity
  8
holder-bot
  6
ByLayer
 62
  256
370
   -1
100
AcDbLine
 10
140.25
 20
55.67231981077182
 11
140.25
 21
59.07231981077182
  0
LINE
  5
BF
100
AcDbEntity
  8
holder-bot
  6
ByLayer
 62
  256
370
   -1
100
AcDbLine
 10
140.25
 20
59.07231981077182
 11
146.25
 21
59.07231981077182
  0
LINE
  5
C0
100
AcDbEntity
  8
holder-bot
  6
ByLayer
 62
  256
370
   -1
100
AcDbLine
 10
146.25
 20
59.07231981077182
 11
146.25
 21
55.67231981077182
  0
LINE
  5
C1
100
AcDbEntity
  8
holder-bot
  6
ByLayer
 62
  256
370
   -1
100
AcDbLine
 10
56.25
 20
55.67231981077182
 11
56.25
 21
59.07231981077182
  0
LINE
  5
C2
100
AcDbEntity
  8
holder-bot
  6
ByLayer
 62
  256
370
   -1
100
AcDbLine
 10
56.25
 20
59.07231981077182
 11
62.25
 21
59.07231981077182
  0
LINE
  5
C3
100
AcDbEntity
  8
holder-bot
  6
ByLayer
 62
  256
370
   -1
100
AcDbLine
 10
62.25
 20
59.07231981077182
 11
62.25
 21
55.67231981077182
  0
LINE
  5
C4
100
AcDbEntity
  8
holder-bot
  6
ByLayer
 62
  256
370
   -1
100
AcDbLine
 10
62.25
 20
55.67231981077182
 11
68.25
 21
55.67231981077182
  0
LINE
  5
C5
100
AcDbEntity
  8
holder-bot
  6
ByLayer
 62
  256
370
   -1
100
AcDbLine
 10
68.25
 20
55.67231981077182
 11
68.25
 21
59.07231981077182
  0
LINE
  5
C6
100
AcDbEntity
  8
holder-bot
  6
ByLayer
 62
  256
370
   -1
100
AcDbLine
 10
68.25
 20
59.07231981077182
 11
74.25
 21
59.07231981077182
  0
LINE
  5
C7
100
AcDbEntity
  8
holder-bot
  6
ByLayer
 62
  256
370
   -1
100
AcDbLine
 10
74.25
 20
59.07231981077182
 11
74.25
 21
55.67231981077182
  0
LINE
  5
C8
100
AcDbEntity
  8
holder-bot
  6
ByLayer
 62
  256
370
   -1
100
AcDbLine
 10
74.25
 20
55.67231981077182
 11
80.25
 21
55.67231981077182
  0
LINE
  5
C9
100
AcDbEntity
  8
holder-bot
  6
ByLayer
 62
  256
370
   -1
100
AcDbLine
 10
80.25
 20
55.67231981077182
 11
80.25
 21
59.07231981077182
  0
LINE
  5
CA
100
AcDbEntity
  8
holder-bot
  6
ByLayer
 62
  256
370
   -1
100
AcDbLine
 10
80.25
 20
59.07231981077182
 11
86.25
 21
59.07231981077182
  0
LINE
  5
CB
100
AcDbEntity
  8
holder-bot
  6
ByLayer
 62
  256
370
   -1
100
AcDbLine
 10
86.25
 20
59.07231981077182
 11
86.25
 21
55.67231981077182
  0
LINE
  5
CC
100
AcDbEntity
  8
holder-bot
  6
ByLayer
 62
  256
370
   -1
100
AcDbLine
 10
86.25
 20
55.67231981077182
 11
92.25
 21
55.67231981077182
  0
LINE
  5
CD
100
AcDbEntity
  8
holder-bot
  6
ByLayer
 62
  256
370
   -1
100
AcDbLine
 10
92.25
 20
55.67231981077182
 11
92.25
 21
59.07231981077182
  0
LINE
  5
CE
100
AcDbEntity
  8
holder-bot
  6
ByLayer
 62
  256
370
   -1
100
AcDbLine
 10
92.25
 20
59.07231981077182
 11
98.25
 21
59.07231981077182
  0
LINE
  5
CF
100
AcDbEntity
  8
holder-bot
  6
ByLayer
 62
  256
370
   -1
100
AcDbLine
 10
98.25
 20
59.07231981077182
 11
98.25
 21
55.67231981077182
  0
LINE
  5
D0
100
AcDbEntity
  8
holder-bot
  6
ByLayer
 62
  256
370
   -1
100
AcDbLine
 10
146.25
 20
55.67231981077182
 11
153.05
 21
55.67231981077182
  0
LINE
  5
D1
100
AcDbEntity
  8
holder-bot
  6
ByLayer
 62
  256
370
   -1
100
AcDbLine
 10
49.45
 20
55.67231981077182
 11
56.25
 21
55.67231981077182
  0
LINE
  5
D2
100
AcDbEntity
  8
holder-ref
  6
ByLayer
 62
  256
370
   -1
100
AcDbLine
 10
400.1867523272129
 20
154.2574218035805
 11
397.2323290681763
 21
154.7783663365813
  0
LINE
  5
D3
100
AcDbEntity
  8
holder-ref
  6
ByLayer
 62
  256
370
   -1
100
AcDbLine
 10
400.7771561312805
 20
157.6057681638221
 11
397.8227328722439
 21
158.1267126968228
  0
LINE
  5
D4
100
AcDbEntity
  8
holder-end1
  6
ByLayer
 62
  256
370
   -1
100
AcDbLine
 10
400.1867523272129
 20
154.2574218035805
 11
400.7771561312805
 21
157.6057681638221
  0
LINE
  5
D5
100
AcDbEntity
  8
holder-end1
  6
ByLayer
 62
  256
370
   -1
100
AcDbLine
 10
400.7771561312805
 20
157.6057681638221
 11
404.1255024915221
 21
157.0153643597546
  0
LINE
  5
D6
100
AcDbEntity
  8
holder-end1
  6
ByLayer
 62
  256
370
   -1
100
AcDbLine
 10
404.1255024915221
 20
157.0153643597546
 11
404.6464470245228
 21
159.9697876187911
  0
LINE
  5
D7
100
AcDbEntity
  8
holder-end1
  6
ByLayer
 62
  256
370
   -1
100
AcDbLine
 10
404.6464470245228
 20
159.9697876187911
 11
401.2981006642813
 21
160.5601914228587
  0
LINE
  5
D8
100
AcDbEntity
  8
holder-end1
  6
ByLayer
 62
  256
370
   -1
100
AcDbLine
 10
397.8227328722439
 20
158.1267126968229
 11
397.2323290681763
 21
154.7783663365813
  0
LINE
  5
D9
100
AcDbEntity
  8
holder-end1
  6
ByLayer
 62
  256
370
   -1
100
AcDbLine
 10
397.2323290681763
 20
154.7783663365813
 11
400.1867523272129
 21
154.2574218035805
  0
LINE
  5
DA
100
AcDbEntity
  8
holder-ref
  6
ByLayer
 62
  256
370
   -1
100
AcDbLine
 10
401.819045197282
 20
163.5146146818953
 11
398.8646219382453
 21
164.0355592148961
  0
LINE
  5
DB
100
AcDbEntity
  8
holder-ref
  6
ByLayer
 62
  256
370
   -1
100
AcDbLine
 10
401.2981006642813
 20
160.5601914228587
 11
398.3436774052445
 21
161.0811359558595
  0
LINE
  5
DC
100
AcDbEntity
  8
holder-end2
  6
ByLayer
 62
  256
370
   -1
100
AcDbLine
 10
402.3399897302829
 20
166.4690379409319
 11
405.6883360905243
 21
165.8786341368643
  0
LINE
  5
DD
100
AcDbEntity
  8
holder-end2
  6
ByLayer
 62
  256
370
   -1
100
AcDbLine
 10
405.6883360905243
 20
165.8786341368643
 11
405.1673915575236
 21
162.9242108778277
  0
LINE
  5
DE
100
AcDbEntity
  8
holder-end2
  6
ByLayer
 62
  256
370
   -1
100
AcDbLine
 10
405.1673915575236
 20
162.9242108778277
 11
401.8190451972819
 21
163.5146146818953
  0
LINE
  5
DF
100
AcDbEntity
  8
holder-end2
  6
ByLayer
 62
  256
370
   -1
100
AcDbLine
 10
401.8190451972819
 20
163.5146146818953
 11
401.2981006642812
 21
160.5601914228587
  0
LINE
  5
E0
100
AcDbEntity
  8
tilt-math
  6
ByLayer
 62
  256
370
   -1
100
AcDbLine
 10
400.1867523272128
 20
154.2574218035805
 11
405.5698458348876
 21
184.786462146959
  0
LINE
  5
E1
100
AcDbEntity
  8
tilt-math
  6
ByLayer
 62
  256
370
   -1
100
AcDbLine
 10
400.1867523272128
 20
154.2574218035805
 11
397.2323290681762
 21
154.7783663365813
  0
LINE
  5
E2
100
AcDbEntity
  8
tilt-math
  6
ByLayer
 62
  256
370
   -1
100
AcDbLine
 10
397.2323290681762
 20
154.7783663365813
 11
402.615422575851
 21
185.3074066799598
  0
LINE
  5
E3
100
AcDbEntity
  8
holder-end1
  6
ByLayer
 62
  256
370
   -1
100
AcDbLine
 10
401.2981006642812
 20
160.5601914228587
 11
401.8190451972819
 21
163.5146146818953
  0
LINE
  5
E4
100
AcDbEntity
  8
holder-end1
  6
ByLayer
 62
  256
370
   -1
100
AcDbLine
 10
401.8190451972819
 20
163.5146146818953
 11
405.1673915575236
 21
162.9242108778277
  0
LINE
  5
E5
100
AcDbEntity
  8
holder-end1
  6
ByLayer
 62
  256
370
   -1
100
AcDbLine
 10
405.1673915575236
 20
162.9242108778277
 11
405.6883360905243
 21
165.8786341368643
  0
LINE
  5
E6
100
AcDbEntity
  8
holder-end1
  6
ByLayer
 62
  256
370
   -1
100
AcDbLine
 10
405.6883360905243
 20
165.8786341368643
 11
402.3399897302829
 21
166.4690379409319
  0
LINE
  5
E7
100
AcDbEntity
  8
holder-end1
  6
ByLayer
 62
  256
370
   -1
100
AcDbLine
 10
398.3436774052445
 20
161.0811359558595
 11
398.8646219382454
 21
164.0355592148961
  0
LINE
  5
E8
100
AcDbEntity
  8
htab-ref
  6
ByLayer
 62
  256
370
   -1
100
AcDbLine
 10
47.01775000000281
 20
90.25625000000441
 11
57.01775000000281
 21
90.25625000000441
  0
LINE
  5
E9
100
AcDbEntity
  8
htab-ref
  6
ByLayer
 62
  256
370
   -1
100
AcDbLine
 10
47.01775000000281
 20
93.25625000000441
 11
57.01775000000281
 21
93.25625000000441
  0
LINE
  5
EA
100
AcDbEntity
  8
holder-ref
  6
ByLayer
 62
  256
370
   -1
100
AcDbLine
 10
391.5775254136948
 20
161.8680204627897
 11
395.918729855368
 21
186.4882142880949
  0
LINE
  5
EB
100
AcDbEntity
  8
holder-end1
  6
ByLayer
 62
  256
370
   -1
100
AcDbLine
 10
398.3436774052446
 20
161.0811359558595
 11
391.6469846847616
 21
162.2619435639945
  0
LINE
  5
EC
100
AcDbEntity
  8
holder-end1
  6
ByLayer
 62
  256
370
   -1
100
AcDbLine
 10
391.6469846847616
 20
162.2619435639945
 11
391.1260401517608
 21
159.3075203049579
  0
LINE
  5
ED
100
AcDbEntity
  8
holder-end1
  6
ByLayer
 62
  256
370
   -1
100
AcDbLine
 10
391.1260401517608
 20
159.3075203049579
 11
397.8227328722439
 21
158.1267126968229
  0
LINE
  5
EE
100
AcDbEntity
  8
holder-end1
  6
ByLayer
 62
  256
370
   -1
100
AcDbLine
 10
392.6888737507631
 20
168.1707900820677
 11
399.3855664712461
 21
166.9899824739327
  0
LINE
  5
EF
100
AcDbEntity
  8
holder-end1
  6
ByLayer
 62
  256
370
   -1
100
AcDbLine
 10
398.8646219382454
 20
164.0355592148961
 11
392.1679292177624
 21
165.2163668230311
  0
LINE
  5
F0
100
AcDbEntity
  8
holder-end1
  6
ByLayer
 62
  256
370
   -1
100
AcDbLine
 10
392.1679292177624
 20
165.2163668230311
 11
392.6888737507631
 21
168.1707900820677
  0
LINE
  5
F1
100
AcDbEntity
  8
holder-ref
  6
ByLayer
 62
  256
370
   -1
100
AcDbLine
 10
74.25
 20
68.87231981077181
 11
80.25
 21
68.87231981077181
  0
LINE
  5
F2
100
AcDbEntity
  8
holder-ref
  6
ByLayer
 62
  256
370
   -1
100
AcDbLine
 10
56.25
 20
62.47231981077182
 11
62.25
 21
62.47231981077182
  0
LINE
  5
F3
100
AcDbEntity
  8
holder-ref
  6
ByLayer
 62
  256
370
   -1
100
AcDbLine
 10
56.25
 20
65.47231981077182
 11
62.25
 21
65.47231981077182
  0
LINE
  5
F4
100
AcDbEntity
  8
holder-bot
  6
ByLayer
 62
  256
370
   -1
100
AcDbLine
 10
52.85
 20
62.47231981077183
 11
52.85
 21
65.47231981077182
  0
LINE
  5
F5
100
AcDbEntity
  8
holder-bot
  6
ByLayer
 62
  256
370
   -1
100
AcDbLine
 10
52.85000000000001
 20
65.47231981077182
 11
49.45
 21
65.47231981077182
  0
LINE
  5
F6
100
AcDbEntity
  8
holder-bot
  6
ByLayer
 62
  256
370
   -1
100
AcDbLine
 10
49.45
 20
65.47231981077182
 11
49.45
 21
68.87231981077181
  0
LINE
  5
F7
100
AcDbEntity
  8
holder-bot
  6
ByLayer
 62
  256
370
   -1
100
AcDbLine
 10
49.45
 20
68.87231981077181
 11
153.05
 21
68.87231981077181
  0
LINE
  5
F8
100
AcDbEntity
  8
holder-bot
  6
ByLayer
 62
  256
370
   -1
100
AcDbLine
 10
49.45000000000001
 20
62.47231981077183
 11
52.85
 21
62.47231981077183
  0
LINE
  5
F9
100
AcDbEntity
  8
holder-bot
  6
ByLayer
 62
  256
370
   -1
100
AcDbLine
 10
49.45000000000001
 20
62.47231981077183
 11
49.45
 21
55.67231981077182
  0
LINE
  5
FA
100
AcDbEntity
  8
holder-bot
  6
ByLayer
 62
  256
370
   -1
100
AcDbLine
 10
153.05
 20
55.67231981077182
 11
153.05
 21
68.87231981077181
  0
LINE
  5
FB
100
AcDbEntity
  8
holder-ref
  6
ByLayer
 62
  256
370
   -1
100
AcDbLine
 10
56.25
 20
145.5
 11
146.25
 21
145.5
  0
LINE
  5
FC
100
AcDbEntity
  8
holder-ref
  6
ByLayer
 62
  256
370
   -1
100
AcDbLine
 10
56.25
 20
134.952
 11
146.25
 21
134.952
  0
LINE
  5
FD
100
AcDbEntity
  8
holder-ref
  6
ByLayer
 62
  256
370
   -1
100
AcDbLine
 10
56.25
 20
137.952
 11
146.25
 21
137.952
  0
LINE
  5
FE
100
AcDbEntity
  8
holder-ref
  6
ByLayer
 62
  256
370
   -1
100
AcDbLine
 10
56.25
 20
140.952
 11
146.25
 21
140.952
  0
LINE
  5
FF
100
AcDbEntity
  8
holder-ref
  6
ByLayer
 62
  256
370
   -1
100
AcDbLine
 10
56.25
 20
143.952
 11
146.25
 21
143.952
  0
LINE
  5
100
100
AcDbEntity
  8
holder-ref
  6
ByLayer
 62
  256
370
   -1
100
AcDbLine
 10
149.65
 20
148.9
 11
52.85
 21
148.9
  0
LINE
  5
101
100
AcDbEntity
  8
holder-ref
  6
ByLayer
 62
  256
370
   -1
100
AcDbLine
 10
106.25
 20
93.25625000000441
 11
96.25
 21
93.25625000000441
  0
LINE
  5
102
100
AcDbEntity
  8
holder-ref
  6
ByLayer
 62
  256
370
   -1
100
AcDbLine
 10
106.25
 20
90.25625000000441
 11
96.25
 21
90.25625000000441
  0
LINE
  5
103
100
AcDbEntity
  8
holder-ref
  6
ByLayer
 62
  256
370
   -1
100
AcDbLine
 10
106.25
 20
87.25625000000441
 11
96.25
 21
87.25625000000441
  0
LINE
  5
104
100
AcDbEntity
  8
holder-ref
  6
ByLayer
 62
  256
370
   -1
100
AcDbLine
 10
106.25
 20
84.25625000000441
 11
96.25
 21
84.25625000000441
  0
LINE
  5
105
100
AcDbEntity
  8
holder-ref
  6
ByLayer
 62
  256
370
   -1
100
AcDbLine
 10
47.98879845137574
 20
126.8275387643502
 11
26.98879845137574
 21
126.8275387643502
  0
LINE
  5
106
100
AcDbEntity
  8
holder-ref
  6
ByLayer
 62
  256
370
   -1
100
AcDbLine
 10
47.98879845137574
 20
114.4275387643501
 11
26.98879845137573
 21
114.4275387643501
  0
LINE
  5
107
100
AcDbEntity
  8
holder-ref
  6
ByLayer
 62
  256
370
   -1
100
AcDbLine
 10
47.98879845137574
 20
117.8275387643502
 11
26.98879845137573
 21
117.8275387643502
  0
LINE
  5
108
100
AcDbEntity
  8
holder-ref
  6
ByLayer
 62
  256
370
   -1
100
AcDbLine
 10
47.98879845137574
 20
120.8275387643502
 11
26.98879845137573
 21
120.8275387643502
  0
LINE
  5
109
100
AcDbEntity
  8
holder-ref
  6
ByLayer
 62
  256
370
   -1
100
AcDbLine
 10
47.98879845137574
 20
123.8275387643502
 11
26.98879845137573
 21
123.8275387643502
  0
LINE
  5
10A
100
AcDbEntity
  8
sign-limit
  6
ByLayer
 62
  256
370
   -1
100
AcDbLine
 10
26.25
 20
166
 11
176.25
 21
166
  0
LINE
  5
10B
100
AcDbEntity
  8
sign
  6
ByLayer
 62
  256
370
   -1
100
AcDbLine
 10
53.05
 20
220.5
 11
53.05
 21
150.5
  0
LINE
  5
10C
100
AcDbEntity
  8
sign
  6
ByLayer
 62
  256
370
   -1
100
AcDbLine
 10
149.45
 20
220.5
 11
53.05
 21
220.5
  0
LINE
  5
10D
100
AcDbEntity
  8
sign
  6
ByLayer
 62
  256
370
   -1
100
AcDbLine
 10
149.45
 20
150.5
 11
149.45
 21
220.5
  0
LINE
  5
10E
100
AcDbEntity
  8
sign
  6
ByLayer
 62
  256
370
   -1
100
AcDbLine
 10
53.05
 20
150.5
 11
149.45
 21
150.5
  0
LINE
  5
10F
100
AcDbEntity
  8
ref
  6
ByLayer
 62
  256
370
   -1
100
AcDbLine
 10
56.50034358633318
 20
-21.76781002638559
 11
66.50034358633317
 21
-21.76781002638559
  0
LINE
  5
110
100
AcDbEntity
  8
ref
  6
ByLayer
 62
  256
370
   -1
100
AcDbLine
 10
56.50034358633317
 20
-56.76781002638559
 11
66.50034358633317
 21
-56.76781002638559
  0
LINE
  5
111
100
AcDbEntity
  8
top-ref
  6
ByLayer
 62
  256
370
   -1
100
AcDbLine
 10
36.25
 20
-18.36781002638559
 11
166.25
 21
-18.36781002638559
  0
LINE
  5
112
100
AcDbEntity
  8
top-ref
  6
ByLayer
 62
  256
370
   -1
100
AcDbLine
 10
166.25
 20
-60.16781002638559
 11
36.25
 21
-60.16781002638559
  0
LINE
  5
113
100
AcDbEntity
  8
htab-ref
  6
ByLayer
 62
  256
370
   -1
100
AcDbLine
 10
161.25
 20
-42.26781002638559
 11
171.25
 21
-42.26781002638559
  0
LINE
  5
114
100
AcDbEntity
  8
htab-ref
  6
ByLayer
 62
  256
370
   -1
100
AcDbLine
 10
161.25
 20
-36.26781002638559
 11
171.25
 21
-36.26781002638559
  0
LINE
  5
115
100
AcDbEntity
  8
htab-ref
  6
ByLayer
 62
  256
370
   -1
100
AcDbLine
 10
161.25
 20
-30.26781002638559
 11
171.25
 21
-30.26781002638559
  0
LINE
  5
116
100
AcDbEntity
  8
htab-ref
  6
ByLayer
 62
  256
370
   -1
100
AcDbLine
 10
161.25
 20
-24.26781002638559
 11
171.25
 21
-24.26781002638559
  0
LINE
  5
117
100
AcDbEntity
  8
htab-ref
  6
ByLayer
 62
  256
370
   -1
100
AcDbLine
 10
161.25
 20
-48.26781002638559
 11
171.25
 21
-48.26781002638559
  0
LINE
  5
118
100
AcDbEntity
  8
htab-ref
  6
ByLayer
 62
  256
370
   -1
100
AcDbLine
 10
161.25
 20
-54.26781002638559
 11
171.25
 21
-54.26781002638559
  0
LINE
  5
119
100
AcDbEntity
  8
side
  6
ByLayer
 62
  256
370
   -1
100
AcDbLine
 10
218.8725000000035
 20
-54.26781002638559
 11
215.4725000000035
 21
-54.26781002638559
  0
LINE
  5
11A
100
AcDbEntity
  8
side
  6
ByLayer
 62
  256
370
   -1
100
AcDbLine
 10
215.4725000000035
 20
-54.26781002638559
 11
215.4725000000035
 21
-48.26781002638559
  0
LINE
  5
11B
100
AcDbEntity
  8
side
  6
ByLayer
 62
  256
370
   -1
100
AcDbLine
 10
215.4725000000035
 20
-48.26781002638559
 11
218.8725000000035
 21
-48.26781002638559
  0
LINE
  5
11C
100
AcDbEntity
  8
side
  6
ByLayer
 62
  256
370
   -1
100
AcDbLine
 10
218.8725000000035
 20
-48.26781002638559
 11
218.8725000000035
 21
-42.26781002638559
  0
LINE
  5
11D
100
AcDbEntity
  8
side
  6
ByLayer
 62
  256
370
   -1
100
AcDbLine
 10
218.8725000000035
 20
-42.26781002638559
 11
215.4725000000035
 21
-42.26781002638559
  0
LINE
  5
11E
100
AcDbEntity
  8
side
  6
ByLayer
 62
  256
370
   -1
100
AcDbLine
 10
215.4725000000035
 20
-42.26781002638559
 11
215.4725000000035
 21
-36.26781002638559
  0
LINE
  5
11F
100
AcDbEntity
  8
side
  6
ByLayer
 62
  256
370
   -1
100
AcDbLine
 10
215.4725000000035
 20
-36.26781002638559
 11
218.8725000000035
 21
-36.26781002638559
  0
LINE
  5
120
100
AcDbEntity
  8
side
  6
ByLayer
 62
  256
370
   -1
100
AcDbLine
 10
218.8725000000035
 20
-36.26781002638559
 11
218.8725000000035
 21
-30.26781002638559
  0
LINE
  5
121
100
AcDbEntity
  8
side
  6
ByLayer
 62
  256
370
   -1
100
AcDbLine
 10
218.8725000000035
 20
-30.26781002638559
 11
215.4725000000035
 21
-30.26781002638559
  0
LINE
  5
122
100
AcDbEntity
  8
side
  6
ByLayer
 62
  256
370
   -1
100
AcDbLine
 10
215.4725000000035
 20
-30.26781002638559
 11
215.4725000000035
 21
-24.26781002638559
  0
LINE
  5
123
100
AcDbEntity
  8
side
  6
ByLayer
 62
  256
370
   -1
100
AcDbLine
 10
215.4725000000035
 20
-24.26781002638559
 11
218.8725000000035
 21
-24.26781002638559
  0
LINE
  5
124
100
AcDbEntity
  8
side
  6
ByLayer
 62
  256
370
   -1
100
AcDbLine
 10
218.8725000000035
 20
-24.26781002638559
 11
218.8725000000035
 21
-21.76781002638559
  0
LINE
  5
125
100
AcDbEntity
  8
side
  6
ByLayer
 62
  256
370
   -1
100
AcDbLine
 10
218.8725000000035
 20
-21.76781002638559
 11
224.8725000000035
 21
-21.76781002638559
  0
LINE
  5
126
100
AcDbEntity
  8
side
  6
ByLayer
 62
  256
370
   -1
100
AcDbLine
 10
224.8725000000035
 20
-21.76781002638559
 11
224.8725000000035
 21
-18.36781002638559
  0
LINE
  5
127
100
AcDbEntity
  8
side
  6
ByLayer
 62
  256
370
   -1
100
AcDbLine
 10
224.8725000000035
 20
-18.36781002638559
 11
230.8725000000035
 21
-18.36781002638559
  0
LINE
  5
128
100
AcDbEntity
  8
side
  6
ByLayer
 62
  256
370
   -1
100
AcDbLine
 10
230.8725000000035
 20
-18.36781002638559
 11
230.8725000000035
 21
-21.76781002638559
  0
LINE
  5
129
100
AcDbEntity
  8
side
  6
ByLayer
 62
  256
370
   -1
100
AcDbLine
 10
236.8725000000035
 20
-56.76781002638559
 11
230.8725000000035
 21
-56.76781002638559
  0
LINE
  5
12A
100
AcDbEntity
  8
side
  6
ByLayer
 62
  256
370
   -1
100
AcDbLine
 10
230.8725000000035
 20
-56.76781002638559
 11
230.8725000000035
 21
-60.16781002638559
  0
LINE
  5
12B
100
AcDbEntity
  8
side
  6
ByLayer
 62
  256
370
   -1
100
AcDbLine
 10
230.8725000000035
 20
-60.16781002638559
 11
224.8725000000035
 21
-60.16781002638559
  0
LINE
  5
12C
100
AcDbEntity
  8
side
  6
ByLayer
 62
  256
370
   -1
100
AcDbLine
 10
224.8725000000035
 20
-60.16781002638559
 11
224.8725000000035
 21
-56.76781002638559
  0
LINE
  5
12D
100
AcDbEntity
  8
side
  6
ByLayer
 62
  256
370
   -1
100
AcDbLine
 10
224.8725000000035
 20
-56.76781002638559
 11
218.8725000000035
 21
-56.76781002638559
  0
LINE
  5
12E
100
AcDbEntity
  8
side
  6
ByLayer
 62
  256
370
   -1
100
AcDbLine
 10
218.8725000000035
 20
-56.76781002638559
 11
218.8725000000035
 21
-54.26781002638559
  0
LINE
  5
12F
100
AcDbEntity
  8
side
  6
ByLayer
 62
  256
370
   -1
100
AcDbLine
 10
230.8725000000035
 20
-21.76781002638559
 11
236.8725000000035
 21
-21.76781002638559
  0
LINE
  5
130
100
AcDbEntity
  8
top-ref
  6
ByLayer
 62
  256
370
   -1
100
AcDbLine
 10
20.85
 20
-23.36781002638559
 11
20.85
 21
-13.36781002638559
  0
LINE
  5
131
100
AcDbEntity
  8
top-ref
  6
ByLayer
 62
  256
370
   -1
100
AcDbLine
 10
181.65
 20
-23.36781002638559
 11
181.65
 21
-13.36781002638559
  0
LINE
  5
132
100
AcDbEntity
  8
side
  6
ByLayer
 62
  256
370
   -1
100
AcDbLine
 10
242.8725000000036
 20
-18.36781002638559
 11
242.8725000000036
 21
-60.16781002638559
  0
LINE
  5
133
100
AcDbEntity
  8
side
  6
ByLayer
 62
  256
370
   -1
100
AcDbLine
 10
236.8725000000035
 20
-18.36781002638559
 11
242.8725000000036
 21
-18.36781002638559
  0
LINE
  5
134
100
AcDbEntity
  8
side
  6
ByLayer
 62
  256
370
   -1
100
AcDbLine
 10
236.8725000000035
 20
-21.76781002638559
 11
236.8725000000035
 21
-18.36781002638559
  0
LINE
  5
135
100
AcDbEntity
  8
side
  6
ByLayer
 62
  256
370
   -1
100
AcDbLine
 10
236.8725000000036
 20
-60.16781002638559
 11
236.8725000000035
 21
-56.76781002638559
  0
LINE
  5
136
100
AcDbEntity
  8
side
  6
ByLayer
 62
  256
370
   -1
100
AcDbLine
 10
242.8725000000036
 20
-60.16781002638559
 11
236.8725000000036
 21
-60.16781002638559
  0
LINE
  5
137
100
AcDbEntity
  8
side
  6
ByLayer
 62
  256
370
   -1
100
AcDbLine
 10
170.25
 20
-75.47059686243776
 11
164.25
 21
-75.47059686243776
  0
LINE
  5
138
100
AcDbEntity
  8
side
  6
ByLayer
 62
  256
370
   -1
100
AcDbLine
 10
164.25
 20
-75.47059686243776
 11
164.25
 21
-72.07059686243775
  0
LINE
  5
139
100
AcDbEntity
  8
side
  6
ByLayer
 62
  256
370
   -1
100
AcDbLine
 10
164.25
 20
-72.07059686243775
 11
158.25
 21
-72.07059686243775
  0
LINE
  5
13A
100
AcDbEntity
  8
side
  6
ByLayer
 62
  256
370
   -1
100
AcDbLine
 10
158.25
 20
-72.07059686243775
 11
158.25
 21
-75.47059686243776
  0
LINE
  5
13B
100
AcDbEntity
  8
side
  6
ByLayer
 62
  256
370
   -1
100
AcDbLine
 10
158.25
 20
-75.47059686243776
 11
152.25
 21
-75.47059686243776
  0
LINE
  5
13C
100
AcDbEntity
  8
side
  6
ByLayer
 62
  256
370
   -1
100
AcDbLine
 10
152.25
 20
-75.47059686243776
 11
152.25
 21
-72.07059686243775
  0
LINE
  5
13D
100
AcDbEntity
  8
side
  6
ByLayer
 62
  256
370
   -1
100
AcDbLine
 10
152.25
 20
-72.07059686243775
 11
146.25
 21
-72.07059686243775
  0
LINE
  5
13E
100
AcDbEntity
  8
side
  6
ByLayer
 62
  256
370
   -1
100
AcDbLine
 10
146.25
 20
-72.07059686243775
 11
146.25
 21
-75.47059686243776
  0
LINE
  5
13F
100
AcDbEntity
  8
side
  6
ByLayer
 62
  256
370
   -1
100
AcDbLine
 10
146.25
 20
-75.47059686243776
 11
140.25
 21
-75.47059686243776
  0
LINE
  5
140
100
AcDbEntity
  8
side
  6
ByLayer
 62
  256
370
   -1
100
AcDbLine
 10
140.25
 20
-75.47059686243776
 11
140.25
 21
-72.07059686243775
  0
LINE
  5
141
100
AcDbEntity
  8
side
  6
ByLayer
 62
  256
370
   -1
100
AcDbLine
 10
140.25
 20
-72.07059686243775
 11
134.25
 21
-72.07059686243775
  0
LINE
  5
142
100
AcDbEntity
  8
side
  6
ByLayer
 62
  256
370
   -1
100
AcDbLine
 10
134.25
 20
-72.07059686243775
 11
134.25
 21
-75.47059686243776
  0
LINE
  5
143
100
AcDbEntity
  8
side
  6
ByLayer
 62
  256
370
   -1
100
AcDbLine
 10
134.25
 20
-75.47059686243776
 11
128.25
 21
-75.47059686243776
  0
LINE
  5
144
100
AcDbEntity
  8
side
  6
ByLayer
 62
  256
370
   -1
100
AcDbLine
 10
128.25
 20
-75.47059686243776
 11
128.25
 21
-72.07059686243775
  0
LINE
  5
145
100
AcDbEntity
  8
side
  6
ByLayer
 62
  256
370
   -1
100
AcDbLine
 10
128.25
 20
-72.07059686243775
 11
122.25
 21
-72.07059686243775
  0
LINE
  5
146
100
AcDbEntity
  8
side
  6
ByLayer
 62
  256
370
   -1
100
AcDbLine
 10
122.25
 20
-72.07059686243775
 11
122.25
 21
-75.47059686243776
  0
LINE
  5
147
100
AcDbEntity
  8
side
  6
ByLayer
 62
  256
370
   -1
100
AcDbLine
 10
122.25
 20
-75.47059686243776
 11
116.25
 21
-75.47059686243776
  0
LINE
  5
148
100
AcDbEntity
  8
side
  6
ByLayer
 62
  256
370
   -1
100
AcDbLine
 10
116.25
 20
-75.47059686243776
 11
116.25
 21
-72.07059686243775
  0
LINE
  5
149
100
AcDbEntity
  8
side
  6
ByLayer
 62
  256
370
   -1
100
AcDbLine
 10
116.25
 20
-72.07059686243775
 11
110.25
 21
-72.07059686243775
  0
LINE
  5
14A
100
AcDbEntity
  8
side
  6
ByLayer
 62
  256
370
   -1
100
AcDbLine
 10
110.25
 20
-72.07059686243775
 11
110.25
 21
-75.47059686243776
  0
LINE
  5
14B
100
AcDbEntity
  8
side
  6
ByLayer
 62
  256
370
   -1
100
AcDbLine
 10
110.25
 20
-75.47059686243776
 11
104.25
 21
-75.47059686243776
  0
LINE
  5
14C
100
AcDbEntity
  8
side
  6
ByLayer
 62
  256
370
   -1
100
AcDbLine
 10
104.25
 20
-75.47059686243776
 11
104.25
 21
-72.07059686243775
  0
LINE
  5
14D
100
AcDbEntity
  8
side
  6
ByLayer
 62
  256
370
   -1
100
AcDbLine
 10
104.25
 20
-72.07059686243775
 11
98.25
 21
-72.07059686243775
  0
LINE
  5
14E
100
AcDbEntity
  8
side
  6
ByLayer
 62
  256
370
   -1
100
AcDbLine
 10
98.25
 20
-72.07059686243775
 11
98.25
 21
-75.47059686243776
  0
LINE
  5
14F
100
AcDbEntity
  8
side
  6
ByLayer
 62
  256
370
   -1
100
AcDbLine
 10
98.25
 20
-75.47059686243776
 11
92.25
 21
-75.47059686243776
  0
LINE
  5
150
100
AcDbEntity
  8
side
  6
ByLayer
 62
  256
370
   -1
100
AcDbLine
 10
92.25
 20
-75.47059686243776
 11
92.25
 21
-72.07059686243775
  0
LINE
  5
151
100
AcDbEntity
  8
side
  6
ByLayer
 62
  256
370
   -1
100
AcDbLine
 10
92.25
 20
-72.07059686243775
 11
86.25
 21
-72.07059686243775
  0
LINE
  5
152
100
AcDbEntity
  8
side
  6
ByLayer
 62
  256
370
   -1
100
AcDbLine
 10
86.25
 20
-72.07059686243775
 11
86.25
 21
-75.47059686243776
  0
LINE
  5
153
100
AcDbEntity
  8
side
  6
ByLayer
 62
  256
370
   -1
100
AcDbLine
 10
86.25
 20
-75.47059686243776
 11
80.25
 21
-75.47059686243776
  0
LINE
  5
154
100
AcDbEntity
  8
side
  6
ByLayer
 62
  256
370
   -1
100
AcDbLine
 10
80.25
 20
-75.47059686243776
 11
80.25
 21
-72.07059686243775
  0
LINE
  5
155
100
AcDbEntity
  8
side
  6
ByLayer
 62
  256
370
   -1
100
AcDbLine
 10
80.25
 20
-72.07059686243775
 11
74.25
 21
-72.07059686243775
  0
LINE
  5
156
100
AcDbEntity
  8
side
  6
ByLayer
 62
  256
370
   -1
100
AcDbLine
 10
74.25
 20
-72.07059686243775
 11
74.25
 21
-75.47059686243776
  0
LINE
  5
157
100
AcDbEntity
  8
side
  6
ByLayer
 62
  256
370
   -1
100
AcDbLine
 10
74.25
 20
-75.47059686243776
 11
68.25
 21
-75.47059686243776
  0
LINE
  5
158
100
AcDbEntity
  8
side
  6
ByLayer
 62
  256
370
   -1
100
AcDbLine
 10
68.25
 20
-75.47059686243776
 11
68.25
 21
-72.07059686243775
  0
LINE
  5
159
100
AcDbEntity
  8
side
  6
ByLayer
 62
  256
370
   -1
100
AcDbLine
 10
68.25
 20
-72.07059686243775
 11
62.25
 21
-72.07059686243775
  0
LINE
  5
15A
100
AcDbEntity
  8
side
  6
ByLayer
 62
  256
370
   -1
100
AcDbLine
 10
62.25
 20
-72.07059686243775
 11
62.25
 21
-75.47059686243776
  0
LINE
  5
15B
100
AcDbEntity
  8
side
  6
ByLayer
 62
  256
370
   -1
100
AcDbLine
 10
62.25
 20
-75.47059686243776
 11
56.25
 21
-75.47059686243776
  0
LINE
  5
15C
100
AcDbEntity
  8
side
  6
ByLayer
 62
  256
370
   -1
100
AcDbLine
 10
56.25
 20
-75.47059686243776
 11
56.25
 21
-72.07059686243775
  0
LINE
  5
15D
100
AcDbEntity
  8
side
  6
ByLayer
 62
  256
370
   -1
100
AcDbLine
 10
56.25
 20
-72.07059686243775
 11
50.25
 21
-72.07059686243775
  0
LINE
  5
15E
100
AcDbEntity
  8
side
  6
ByLayer
 62
  256
370
   -1
100
AcDbLine
 10
50.25
 20
-72.07059686243775
 11
50.25
 21
-75.47059686243776
  0
LINE
  5
15F
100
AcDbEntity
  8
side
  6
ByLayer
 62
  256
370
   -1
100
AcDbLine
 10
50.25
 20
-75.47059686243776
 11
44.25
 21
-75.47059686243776
  0
LINE
  5
160
100
AcDbEntity
  8
side
  6
ByLayer
 62
  256
370
   -1
100
AcDbLine
 10
44.25
 20
-75.47059686243776
 11
44.25
 21
-72.07059686243775
  0
LINE
  5
161
100
AcDbEntity
  8
side
  6
ByLayer
 62
  256
370
   -1
100
AcDbLine
 10
44.25
 20
-72.07059686243775
 11
38.25
 21
-72.07059686243775
  0
LINE
  5
162
100
AcDbEntity
  8
side
  6
ByLayer
 62
  256
370
   -1
100
AcDbLine
 10
38.25
 20
-72.07059686243775
 11
38.25
 21
-75.47059686243776
  0
LINE
  5
163
100
AcDbEntity
  8
side
  6
ByLayer
 62
  256
370
   -1
100
AcDbLine
 10
38.25
 20
-75.47059686243776
 11
32.25
 21
-75.47059686243776
  0
LINE
  5
164
100
AcDbEntity
  8
side
  6
ByLayer
 62
  256
370
   -1
100
AcDbLine
 10
32.25
 20
-75.47059686243776
 11
32.25
 21
-72.07059686243775
  0
LINE
  5
165
100
AcDbEntity
  8
side
  6
ByLayer
 62
  256
370
   -1
100
AcDbLine
 10
32.25
 20
-72.07059686243775
 11
26.25
 21
-72.07059686243775
  0
LINE
  5
166
100
AcDbEntity
  8
side
  6
ByLayer
 62
  256
370
   -1
100
AcDbLine
 10
26.25
 20
-72.07059686243775
 11
26.25
 21
-75.47059686243776
  0
LINE
  5
167
100
AcDbEntity
  8
htab-ref
  6
ByLayer
 62
  256
370
   -1
100
AcDbLine
 10
176.1785400175932
 20
-81.47059686243776
 11
186.1785400175932
 21
-81.47059686243776
  0
LINE
  5
168
100
AcDbEntity
  8
htab-ref
  6
ByLayer
 62
  256
370
   -1
100
AcDbLine
 10
176.1785400175932
 20
-87.47059686243776
 11
186.1785400175932
 21
-87.47059686243776
  0
LINE
  5
169
100
AcDbEntity
  8
htab-ref
  6
ByLayer
 62
  256
370
   -1
100
AcDbLine
 10
176.1785400175932
 20
-93.47059686243776
 11
186.1785400175932
 21
-93.47059686243776
  0
LINE
  5
16A
100
AcDbEntity
  8
side
  6
ByLayer
 62
  256
370
   -1
100
AcDbLine
 10
20.85
 20
-81.47059686243776
 11
24.25
 21
-81.47059686243776
  0
LINE
  5
16B
100
AcDbEntity
  8
side
  6
ByLayer
 62
  256
370
   -1
100
AcDbLine
 10
24.25
 20
-81.47059686243776
 11
24.25
 21
-87.47059686243776
  0
LINE
  5
16C
100
AcDbEntity
  8
side
  6
ByLayer
 62
  256
370
   -1
100
AcDbLine
 10
24.25
 20
-87.47059686243776
 11
20.85
 21
-87.47059686243776
  0
LINE
  5
16D
100
AcDbEntity
  8
side
  6
ByLayer
 62
  256
370
   -1
100
AcDbLine
 10
20.85
 20
-87.47059686243776
 11
20.85
 21
-93.47059686243776
  0
LINE
  5
16E
100
AcDbEntity
  8
side
  6
ByLayer
 62
  256
370
   -1
100
AcDbLine
 10
20.85
 20
-93.47059686243776
 11
24.25
 21
-93.47059686243776
  0
LINE
  5
16F
100
AcDbEntity
  8
side
  6
ByLayer
 62
  256
370
   -1
100
AcDbLine
 10
24.25
 20
-93.47059686243776
 11
24.25
 21
-99.47059686243776
  0
LINE
  5
170
100
AcDbEntity
  8
side
  6
ByLayer
 62
  256
370
   -1
100
AcDbLine
 10
24.25
 20
-99.47059686243776
 11
178.25
 21
-99.47059686243776
  0
LINE
  5
171
100
AcDbEntity
  8
side
  6
ByLayer
 62
  256
370
   -1
100
AcDbLine
 10
178.25
 20
-99.47059686243776
 11
178.25
 21
-93.47059686243776
  0
LINE
  5
172
100
AcDbEntity
  8
side
  6
ByLayer
 62
  256
370
   -1
100
AcDbLine
 10
178.25
 20
-93.47059686243776
 11
181.65
 21
-93.47059686243776
  0
LINE
  5
173
100
AcDbEntity
  8
side
  6
ByLayer
 62
  256
370
   -1
100
AcDbLine
 10
181.65
 20
-93.47059686243776
 11
181.65
 21
-87.47059686243776
  0
LINE
  5
174
100
AcDbEntity
  8
side
  6
ByLayer
 62
  256
370
   -1
100
AcDbLine
 10
181.65
 20
-87.47059686243776
 11
178.25
 21
-87.47059686243776
  0
LINE
  5
175
100
AcDbEntity
  8
side
  6
ByLayer
 62
  256
370
   -1
100
AcDbLine
 10
178.25
 20
-87.47059686243776
 11
178.25
 21
-81.47059686243776
  0
LINE
  5
176
100
AcDbEntity
  8
side
  6
ByLayer
 62
  256
370
   -1
100
AcDbLine
 10
178.25
 20
-81.47059686243776
 11
181.65
 21
-81.47059686243776
  0
LINE
  5
177
100
AcDbEntity
  8
side
  6
ByLayer
 62
  256
370
   -1
100
AcDbLine
 10
181.65
 20
-81.47059686243776
 11
181.65
 21
-75.47059686243776
  0
LINE
  5
178
100
AcDbEntity
  8
side
  6
ByLayer
 62
  256
370
   -1
100
AcDbLine
 10
181.65
 20
-75.47059686243776
 11
176.25
 21
-75.47059686243776
  0
LINE
  5
179
100
AcDbEntity
  8
side
  6
ByLayer
 62
  256
370
   -1
100
AcDbLine
 10
176.25
 20
-75.47059686243776
 11
176.25
 21
-72.07059686243775
  0
LINE
  5
17A
100
AcDbEntity
  8
side
  6
ByLayer
 62
  256
370
   -1
100
AcDbLine
 10
176.25
 20
-72.07059686243775
 11
170.25
 21
-72.07059686243775
  0
LINE
  5
17B
100
AcDbEntity
  8
side
  6
ByLayer
 62
  256
370
   -1
100
AcDbLine
 10
170.25
 20
-72.07059686243775
 11
170.25
 21
-75.47059686243776
  0
LINE
  5
17C
100
AcDbEntity
  8
side
  6
ByLayer
 62
  256
370
   -1
100
AcDbLine
 10
26.25
 20
-75.47059686243776
 11
20.85
 21
-75.47059686243776
  0
LINE
  5
17D
100
AcDbEntity
  8
side
  6
ByLayer
 62
  256
370
   -1
100
AcDbLine
 10
20.85
 20
-75.47059686243776
 11
20.85
 21
-81.47059686243776
  0
LINE
  5
17E
100
AcDbEntity
  8
shelf-ref
  6
ByLayer
 62
  256
370
   -1
100
AcDbLine
 10
144.2500000000039
 20
-123.702786836054
 11
154.2500000000039
 21
-123.702786836054
  0
LINE
  5
17F
100
AcDbEntity
  8
shelf-ref
  6
ByLayer
 62
  256
370
   -1
100
AcDbLine
 10
144.2500000000039
 20
-120.302786836054
 11
154.2500000000039
 21
-120.302786836054
  0
LINE
  5
180
100
AcDbEntity
  8
shelf
  6
ByLayer
 62
  256
370
   -1
100
AcDbLine
 10
164.25
 20
-123.702786836054
 11
164.25
 21
-120.302786836054
  0
LINE
  5
181
100
AcDbEntity
  8
shelf
  6
ByLayer
 62
  256
370
   -1
100
AcDbLine
 10
164.25
 20
-120.302786836054
 11
170.25
 21
-120.302786836054
  0
LINE
  5
182
100
AcDbEntity
  8
shelf
  6
ByLayer
 62
  256
370
   -1
100
AcDbLine
 10
170.25
 20
-120.302786836054
 11
170.25
 21
-123.702786836054
  0
LINE
  5
183
100
AcDbEntity
  8
shelf
  6
ByLayer
 62
  256
370
   -1
100
AcDbLine
 10
170.25
 20
-123.702786836054
 11
178.25
 21
-123.702786836054
  0
LINE
  5
184
100
AcDbEntity
  8
htab-ref
  6
ByLayer
 62
  256
370
   -1
100
AcDbLine
 10
144.2500000000039
 20
-126.702786836054
 11
154.2500000000039
 21
-126.702786836054
  0
LINE
  5
185
100
AcDbEntity
  8
htab-ref
  6
ByLayer
 62
  256
370
   -1
100
AcDbLine
 10
144.2500000000039
 20
-132.702786836054
 11
154.2500000000039
 21
-132.702786836054
  0
LINE
  5
186
100
AcDbEntity
  8
htab-ref
  6
ByLayer
 62
  256
370
   -1
100
AcDbLine
 10
144.2500000000039
 20
-138.702786836054
 11
154.2500000000039
 21
-138.702786836054
  0
LINE
  5
187
100
AcDbEntity
  8
shelf
  6
ByLayer
 62
  256
370
   -1
100
AcDbLine
 10
178.25
 20
-123.702786836054
 11
178.25
 21
-126.702786836054
  0
LINE
  5
188
100
AcDbEntity
  8
shelf
  6
ByLayer
 62
  256
370
   -1
100
AcDbLine
 10
178.25
 20
-126.702786836054
 11
181.65
 21
-126.702786836054
  0
LINE
  5
189
100
AcDbEntity
  8
shelf
  6
ByLayer
 62
  256
370
   -1
100
AcDbLine
 10
181.65
 20
-126.702786836054
 11
181.65
 21
-132.702786836054
  0
LINE
  5
18A
100
AcDbEntity
  8
shelf
  6
ByLayer
 62
  256
370
   -1
100
AcDbLine
 10
181.65
 20
-132.702786836054
 11
178.25
 21
-132.702786836054
  0
LINE
  5
18B
100
AcDbEntity
  8
shelf
  6
ByLayer
 62
  256
370
   -1
100
AcDbLine
 10
178.25
 20
-132.702786836054
 11
178.25
 21
-138.702786836054
  0
LINE
  5
18C
100
AcDbEntity
  8
shelf
  6
ByLayer
 62
  256
370
   -1
100
AcDbLine
 10
178.25
 20
-138.702786836054
 11
181.65
 21
-138.702786836054
  0
LINE
  5
18D
100
AcDbEntity
  8
shelf-ref
  6
ByLayer
 62
  256
370
   -1
100
AcDbLine
 10
144.2500000000039
 20
-144.702786836054
 11
154.2500000000039
 21
-144.702786836054
  0
LINE
  5
18E
100
AcDbEntity
  8
shelf
  6
ByLayer
 62
  256
370
   -1
100
AcDbLine
 10
181.65
 20
-138.702786836054
 11
181.65
 21
-144.702786836054
  0
LINE
  5
18F
100
AcDbEntity
  8
shelf-ref
  6
ByLayer
 62
  256
370
   -1
100
AcDbLine
 10
157.65
 20
-44.26781002638559
 11
157.65
 21
-34.26781002638559
  0
LINE
  5
190
100
AcDbEntity
  8
shelf
  6
ByLayer
 62
  256
370
   -1
100
AcDbLine
 10
157.65
 20
-123.702786836054
 11
164.25
 21
-123.702786836054
  0
LINE
  5
191
100
AcDbEntity
  8
shelf
  6
ByLayer
 62
  256
370
   -1
100
AcDbLine
 10
157.65
 20
-144.702786836054
 11
181.65
 21
-144.702786836054
  0
LINE
  5
192
100
AcDbEntity
  8
shelf
  6
ByLayer
 62
  256
370
   -1
100
AcDbLine
 10
157.65
 20
-123.702786836054
 11
157.65
 21
-144.702786836054
  0
LINE
  5
193
100
AcDbEntity
  8
ref
  6
ByLayer
 62
  256
370
   -1
100
AcDbLine
 10
101.25
 20
-39.26781002638559
 11
101.25
 21
-60.26781002638559
  0
LINE
  5
194
100
AcDbEntity
  8
side
  6
ByLayer
 62
  256
370
   -1
100
AcDbLine
 10
-16.3725000000035
 20
-42.26781002638559
 11
-12.97250000000349
 21
-42.26781002638559
  0
LINE
  5
195
100
AcDbEntity
  8
side
  6
ByLayer
 62
  256
370
   -1
100
AcDbLine
 10
-12.97250000000349
 20
-42.26781002638559
 11
-12.97250000000349
 21
-36.26781002638559
  0
LINE
  5
196
100
AcDbEntity
  8
side
  6
ByLayer
 62
  256
370
   -1
100
AcDbLine
 10
-12.97250000000349
 20
-36.26781002638559
 11
-16.3725000000035
 21
-36.26781002638559
  0
LINE
  5
197
100
AcDbEntity
  8
side
  6
ByLayer
 62
  256
370
   -1
100
AcDbLine
 10
-16.3725000000035
 20
-36.26781002638559
 11
-16.3725000000035
 21
-30.26781002638559
  0
LINE
  5
198
100
AcDbEntity
  8
side
  6
ByLayer
 62
  256
370
   -1
100
AcDbLine
 10
-16.3725000000035
 20
-30.26781002638559
 11
-12.97250000000349
 21
-30.26781002638559
  0
LINE
  5
199
100
AcDbEntity
  8
side
  6
ByLayer
 62
  256
370
   -1
100
AcDbLine
 10
-12.97250000000349
 20
-30.26781002638559
 11
-12.97250000000349
 21
-24.26781002638559
  0
LINE
  5
19A
100
AcDbEntity
  8
side
  6
ByLayer
 62
  256
370
   -1
100
AcDbLine
 10
-12.97250000000349
 20
-24.26781002638559
 11
-16.3725000000035
 21
-24.26781002638559
  0
LINE
  5
19B
100
AcDbEntity
  8
side
  6
ByLayer
 62
  256
370
   -1
100
AcDbLine
 10
-16.3725000000035
 20
-24.26781002638559
 11
-16.3725000000035
 21
-21.76781002638559
  0
LINE
  5
19C
100
AcDbEntity
  8
side
  6
ByLayer
 62
  256
370
   -1
100
AcDbLine
 10
-16.3725000000035
 20
-21.76781002638559
 11
-22.3725000000035
 21
-21.76781002638559
  0
LINE
  5
19D
100
AcDbEntity
  8
side
  6
ByLayer
 62
  256
370
   -1
100
AcDbLine
 10
-22.3725000000035
 20
-21.76781002638559
 11
-22.3725000000035
 21
-18.36781002638559
  0
LINE
  5
19E
100
AcDbEntity
  8
side
  6
ByLayer
 62
  256
370
   -1
100
AcDbLine
 10
-22.3725000000035
 20
-18.36781002638559
 11
-28.3725000000035
 21
-18.36781002638559
  0
LINE
  5
19F
100
AcDbEntity
  8
side
  6
ByLayer
 62
  256
370
   -1
100
AcDbLine
 10
-28.3725000000035
 20
-18.36781002638559
 11
-28.3725000000035
 21
-21.76781002638559
  0
LINE
  5
1A0
100
AcDbEntity
  8
side
  6
ByLayer
 62
  256
370
   -1
100
AcDbLine
 10
-34.3725000000035
 20
-56.76781002638559
 11
-28.3725000000035
 21
-56.76781002638559
  0
LINE
  5
1A1
100
AcDbEntity
  8
side
  6
ByLayer
 62
  256
370
   -1
100
AcDbLine
 10
-28.3725000000035
 20
-56.76781002638559
 11
-28.3725000000035
 21
-60.16781002638559
  0
LINE
  5
1A2
100
AcDbEntity
  8
side
  6
ByLayer
 62
  256
370
   -1
100
AcDbLine
 10
-28.3725000000035
 20
-60.16781002638559
 11
-22.3725000000035
 21
-60.16781002638559
  0
LINE
  5
1A3
100
AcDbEntity
  8
side
  6
ByLayer
 62
  256
370
   -1
100
AcDbLine
 10
-22.3725000000035
 20
-60.16781002638559
 11
-22.3725000000035
 21
-56.76781002638559
  0
LINE
  5
1A4
100
AcDbEntity
  8
side
  6
ByLayer
 62
  256
370
   -1
100
AcDbLine
 10
-22.3725000000035
 20
-56.76781002638559
 11
-16.3725000000035
 21
-56.76781002638559
  0
LINE
  5
1A5
100
AcDbEntity
  8
side
  6
ByLayer
 62
  256
370
   -1
100
AcDbLine
 10
-40.37250000000361
 20
-18.36781002638559
 11
-40.37250000000361
 21
-60.16781002638559
  0
LINE
  5
1A6
100
AcDbEntity
  8
side
  6
ByLayer
 62
  256
370
   -1
100
AcDbLine
 10
-34.37250000000361
 20
-60.16781002638559
 11
-34.3725000000035
 21
-56.76781002638559
  0
LINE
  5
1A7
100
AcDbEntity
  8
side
  6
ByLayer
 62
  256
370
   -1
100
AcDbLine
 10
-40.37250000000361
 20
-60.16781002638559
 11
-34.37250000000361
 21
-60.16781002638559
  0
LINE
  5
1A8
100
AcDbEntity
  8
side
  6
ByLayer
 62
  256
370
   -1
100
AcDbLine
 10
-22.5525000000035
 20
-24.76781002638559
 11
-25.95250000000351
 21
-24.76781002638559
  0
LINE
  5
1A9
100
AcDbEntity
  8
side
  6
ByLayer
 62
  256
370
   -1
100
AcDbLine
 10
-25.95250000000351
 20
-24.76781002638559
 11
-25.95250000000351
 21
-30.76781002638559
  0
LINE
  5
1AA
100
AcDbEntity
  8
side
  6
ByLayer
 62
  256
370
   -1
100
AcDbLine
 10
-25.95250000000351
 20
-30.76781002638559
 11
-22.5525000000035
 21
-30.76781002638559
  0
LINE
  5
1AB
100
AcDbEntity
  8
side
  6
ByLayer
 62
  256
370
   -1
100
AcDbLine
 10
-22.5525000000035
 20
-30.76781002638559
 11
-22.5525000000035
 21
-24.76781002638559
  0
LINE
  5
1AC
100
AcDbEntity
  8
side
  6
ByLayer
 62
  256
370
   -1
100
AcDbLine
 10
-22.5525000000035
 20
-36.76781002638559
 11
-25.95250000000351
 21
-36.76781002638559
  0
LINE
  5
1AD
100
AcDbEntity
  8
side
  6
ByLayer
 62
  256
370
   -1
100
AcDbLine
 10
-25.95250000000351
 20
-36.76781002638559
 11
-25.95250000000351
 21
-42.76781002638558
  0
LINE
  5
1AE
100
AcDbEntity
  8
side
  6
ByLayer
 62
  256
370
   -1
100
AcDbLine
 10
-25.95250000000351
 20
-42.76781002638558
 11
-22.5525000000035
 21
-42.76781002638558
  0
LINE
  5
1AF
100
AcDbEntity
  8
side
  6
ByLayer
 62
  256
370
   -1
100
AcDbLine
 10
-22.5525000000035
 20
-42.76781002638558
 11
-22.5525000000035
 21
-36.76781002638559
  0
LINE
  5
1B0
100
AcDbEntity
  8
slot-ref
  6
ByLayer
 62
  256
370
   -1
100
AcDbLine
 10
36.25000000000003
 20
-46.31781002638559
 11
46.25000000000003
 21
-46.31781002638559
  0
LINE
  5
1B1
100
AcDbEntity
  8
slot-ref
  6
ByLayer
 62
  256
370
   -1
100
AcDbLine
 10
36.25000000000003
 20
-35.86781002638559
 11
46.25000000000003
 21
-35.86781002638559
  0
LINE
  5
1B2
100
AcDbEntity
  8
slot-ref
  6
ByLayer
 62
  256
370
   -1
100
AcDbLine
 10
36.25000000000003
 20
-39.26781002638559
 11
46.25000000000003
 21
-39.26781002638559
  0
LINE
  5
1B3
100
AcDbEntity
  8
slot-ref
  6
ByLayer
 62
  256
370
   -1
100
AcDbLine
 10
36.25000000000003
 20
-42.91781002638559
 11
46.25000000000003
 21
-42.91781002638559
  0
LINE
  5
1B4
100
AcDbEntity
  8
top
  6
ByLayer
 62
  256
370
   -1
100
AcDbLine
 10
98.25000000000006
 20
-46.31781002638559
 11
104.25
 21
-46.31781002638559
  0
LINE
  5
1B5
100
AcDbEntity
  8
top
  6
ByLayer
 62
  256
370
   -1
100
AcDbLine
 10
104.25
 20
-46.31781002638559
 11
104.25
 21
-42.91781002638559
  0
LINE
  5
1B6
100
AcDbEntity
  8
top
  6
ByLayer
 62
  256
370
   -1
100
AcDbLine
 10
104.25
 20
-42.91781002638559
 11
110.25
 21
-42.91781002638559
  0
LINE
  5
1B7
100
AcDbEntity
  8
top
  6
ByLayer
 62
  256
370
   -1
100
AcDbLine
 10
110.25
 20
-42.91781002638559
 11
110.25
 21
-46.31781002638559
  0
LINE
  5
1B8
100
AcDbEntity
  8
top
  6
ByLayer
 62
  256
370
   -1
100
AcDbLine
 10
110.25
 20
-46.31781002638559
 11
116.2500000000001
 21
-46.31781002638559
  0
LINE
  5
1B9
100
AcDbEntity
  8
top
  6
ByLayer
 62
  256
370
   -1
100
AcDbLine
 10
116.2500000000001
 20
-46.31781002638559
 11
116.2500000000001
 21
-42.91781002638559
  0
LINE
  5
1BA
100
AcDbEntity
  8
top
  6
ByLayer
 62
  256
370
   -1
100
AcDbLine
 10
122.2500000000001
 20
-42.91781002638559
 11
122.2500000000001
 21
-46.31781002638559
  0
LINE
  5
1BB
100
AcDbEntity
  8
top
  6
ByLayer
 62
  256
370
   -1
100
AcDbLine
 10
122.2500000000001
 20
-46.31781002638559
 11
128.25
 21
-46.31781002638559
  0
LINE
  5
1BC
100
AcDbEntity
  8
top
  6
ByLayer
 62
  256
370
   -1
100
AcDbLine
 10
128.25
 20
-46.31781002638559
 11
128.25
 21
-42.91781002638559
  0
LINE
  5
1BD
100
AcDbEntity
  8
top
  6
ByLayer
 62
  256
370
   -1
100
AcDbLine
 10
128.25
 20
-42.91781002638559
 11
134.25
 21
-42.91781002638559
  0
LINE
  5
1BE
100
AcDbEntity
  8
top
  6
ByLayer
 62
  256
370
   -1
100
AcDbLine
 10
134.25
 20
-42.91781002638559
 11
134.25
 21
-46.31781002638559
  0
LINE
  5
1BF
100
AcDbEntity
  8
top
  6
ByLayer
 62
  256
370
   -1
100
AcDbLine
 10
134.25
 20
-46.31781002638559
 11
140.25
 21
-46.31781002638559
  0
LINE
  5
1C0
100
AcDbEntity
  8
top
  6
ByLayer
 62
  256
370
   -1
100
AcDbLine
 10
140.25
 20
-42.91781002638559
 11
146.25
 21
-42.91781002638559
  0
LINE
  5
1C1
100
AcDbEntity
  8
top
  6
ByLayer
 62
  256
370
   -1
100
AcDbLine
 10
146.25
 20
-42.91781002638559
 11
146.25
 21
-46.31781002638559
  0
LINE
  5
1C2
100
AcDbEntity
  8
top
  6
ByLayer
 62
  256
370
   -1
100
AcDbLine
 10
146.25
 20
-46.31781002638559
 11
149.65
 21
-46.31781002638559
  0
LINE
  5
1C3
100
AcDbEntity
  8
top
  6
ByLayer
 62
  256
370
   -1
100
AcDbLine
 10
146.25
 20
-39.26781002638559
 11
146.25
 21
-35.86781002638559
  0
LINE
  5
1C4
100
AcDbEntity
  8
top
  6
ByLayer
 62
  256
370
   -1
100
AcDbLine
 10
146.25
 20
-35.86781002638559
 11
140.25
 21
-35.86781002638559
  0
LINE
  5
1C5
100
AcDbEntity
  8
top
  6
ByLayer
 62
  256
370
   -1
100
AcDbLine
 10
140.25
 20
-35.86781002638559
 11
140.25
 21
-39.26781002638559
  0
LINE
  5
1C6
100
AcDbEntity
  8
top
  6
ByLayer
 62
  256
370
   -1
100
AcDbLine
 10
116.2500000000001
 20
-42.91781002638559
 11
122.2500000000001
 21
-42.91781002638559
  0
LINE
  5
1C7
100
AcDbEntity
  8
top
  6
ByLayer
 62
  256
370
   -1
100
AcDbLine
 10
140.25
 20
-46.31781002638559
 11
140.25
 21
-42.91781002638559
  0
LINE
  5
1C8
100
AcDbEntity
  8
top
  6
ByLayer
 62
  256
370
   -1
100
AcDbLine
 10
149.65
 20
-46.31781002638559
 11
149.65
 21
-39.26781002638559
  0
LINE
  5
1C9
100
AcDbEntity
  8
top
  6
ByLayer
 62
  256
370
   -1
100
AcDbLine
 10
149.65
 20
-39.26781002638559
 11
146.25
 21
-39.26781002638559
  0
LINE
  5
1CA
100
AcDbEntity
  8
top
  6
ByLayer
 62
  256
370
   -1
100
AcDbLine
 10
140.25
 20
-39.26781002638559
 11
134.25
 21
-39.26781002638559
  0
LINE
  5
1CB
100
AcDbEntity
  8
top
  6
ByLayer
 62
  256
370
   -1
100
AcDbLine
 10
134.25
 20
-39.26781002638559
 11
134.25
 21
-35.86781002638559
  0
LINE
  5
1CC
100
AcDbEntity
  8
top
  6
ByLayer
 62
  256
370
   -1
100
AcDbLine
 10
134.25
 20
-35.86781002638559
 11
128.25
 21
-35.86781002638559
  0
LINE
  5
1CD
100
AcDbEntity
  8
top
  6
ByLayer
 62
  256
370
   -1
100
AcDbLine
 10
128.25
 20
-35.86781002638559
 11
128.25
 21
-39.26781002638559
  0
LINE
  5
1CE
100
AcDbEntity
  8
top
  6
ByLayer
 62
  256
370
   -1
100
AcDbLine
 10
128.25
 20
-39.26781002638559
 11
122.2500000000001
 21
-39.26781002638559
  0
LINE
  5
1CF
100
AcDbEntity
  8
top
  6
ByLayer
 62
  256
370
   -1
100
AcDbLine
 10
122.2500000000001
 20
-39.26781002638559
 11
122.2500000000001
 21
-35.86781002638559
  0
LINE
  5
1D0
100
AcDbEntity
  8
top
  6
ByLayer
 62
  256
370
   -1
100
AcDbLine
 10
122.2500000000001
 20
-35.86781002638559
 11
116.2500000000001
 21
-35.86781002638559
  0
LINE
  5
1D1
100
AcDbEntity
  8
top
  6
ByLayer
 62
  256
370
   -1
100
AcDbLine
 10
116.2500000000001
 20
-35.86781002638559
 11
116.2500000000001
 21
-39.26781002638559
  0
LINE
  5
1D2
100
AcDbEntity
  8
top
  6
ByLayer
 62
  256
370
   -1
100
AcDbLine
 10
116.2500000000001
 20
-39.26781002638559
 11
110.25
 21
-39.26781002638559
  0
LINE
  5
1D3
100
AcDbEntity
  8
top
  6
ByLayer
 62
  256
370
   -1
100
AcDbLine
 10
110.25
 20
-39.26781002638559
 11
110.25
 21
-35.86781002638559
  0
LINE
  5
1D4
100
AcDbEntity
  8
top
  6
ByLayer
 62
  256
370
   -1
100
AcDbLine
 10
92.25
 20
-35.86781002638559
 11
92.25
 21
-39.26781002638559
  0
LINE
  5
1D5
100
AcDbEntity
  8
top
  6
ByLayer
 62
  256
370
   -1
100
AcDbLine
 10
92.25
 20
-39.26781002638559
 11
86.25000000000003
 21
-39.26781002638559
  0
LINE
  5
1D6
100
AcDbEntity
  8
top
  6
ByLayer
 62
  256
370
   -1
100
AcDbLine
 10
86.25000000000003
 20
-39.26781002638559
 11
86.25000000000003
 21
-35.86781002638559
  0
LINE
  5
1D7
100
AcDbEntity
  8
top
  6
ByLayer
 62
  256
370
   -1
100
AcDbLine
 10
86.25000000000003
 20
-35.86781002638559
 11
80.25
 21
-35.86781002638559
  0
LINE
  5
1D8
100
AcDbEntity
  8
top
  6
ByLayer
 62
  256
370
   -1
100
AcDbLine
 10
80.25
 20
-35.86781002638559
 11
80.25
 21
-39.26781002638559
  0
LINE
  5
1D9
100
AcDbEntity
  8
top
  6
ByLayer
 62
  256
370
   -1
100
AcDbLine
 10
80.25
 20
-39.26781002638559
 11
74.25000000000003
 21
-39.26781002638559
  0
LINE
  5
1DA
100
AcDbEntity
  8
top
  6
ByLayer
 62
  256
370
   -1
100
AcDbLine
 10
74.25000000000003
 20
-39.26781002638559
 11
74.25000000000003
 21
-35.86781002638559
  0
LINE
  5
1DB
100
AcDbEntity
  8
top
  6
ByLayer
 62
  256
370
   -1
100
AcDbLine
 10
74.25000000000003
 20
-35.86781002638559
 11
68.25
 21
-35.86781002638559
  0
LINE
  5
1DC
100
AcDbEntity
  8
top
  6
ByLayer
 62
  256
370
   -1
100
AcDbLine
 10
68.25
 20
-35.86781002638559
 11
68.25
 21
-39.26781002638559
  0
LINE
  5
1DD
100
AcDbEntity
  8
top
  6
ByLayer
 62
  256
370
   -1
100
AcDbLine
 10
68.25
 20
-39.26781002638559
 11
62.25
 21
-39.26781002638559
  0
LINE
  5
1DE
100
AcDbEntity
  8
top
  6
ByLayer
 62
  256
370
   -1
100
AcDbLine
 10
62.25
 20
-39.26781002638559
 11
62.25
 21
-35.86781002638559
  0
LINE
  5
1DF
100
AcDbEntity
  8
top
  6
ByLayer
 62
  256
370
   -1
100
AcDbLine
 10
62.25
 20
-35.86781002638559
 11
56.25
 21
-35.86781002638559
  0
LINE
  5
1E0
100
AcDbEntity
  8
top
  6
ByLayer
 62
  256
370
   -1
100
AcDbLine
 10
56.25
 20
-35.86781002638559
 11
56.25
 21
-39.26781002638559
  0
LINE
  5
1E1
100
AcDbEntity
  8
top
  6
ByLayer
 62
  256
370
   -1
100
AcDbLine
 10
52.85000000000002
 20
-46.31781002638559
 11
56.25
 21
-46.31781002638559
  0
LINE
  5
1E2
100
AcDbEntity
  8
top
  6
ByLayer
 62
  256
370
   -1
100
AcDbLine
 10
56.25
 20
-46.31781002638559
 11
56.25
 21
-42.91781002638559
  0
LINE
  5
1E3
100
AcDbEntity
  8
top
  6
ByLayer
 62
  256
370
   -1
100
AcDbLine
 10
68.25
 20
-46.31781002638559
 11
68.25
 21
-42.91781002638559
  0
LINE
  5
1E4
100
AcDbEntity
  8
top
  6
ByLayer
 62
  256
370
   -1
100
AcDbLine
 10
68.25
 20
-42.91781002638559
 11
74.25000000000003
 21
-42.91781002638559
  0
LINE
  5
1E5
100
AcDbEntity
  8
top
  6
ByLayer
 62
  256
370
   -1
100
AcDbLine
 10
74.25000000000003
 20
-42.91781002638559
 11
74.25000000000003
 21
-46.31781002638559
  0
LINE
  5
1E6
100
AcDbEntity
  8
top
  6
ByLayer
 62
  256
370
   -1
100
AcDbLine
 10
74.25000000000003
 20
-46.31781002638559
 11
80.25
 21
-46.31781002638559
  0
LINE
  5
1E7
100
AcDbEntity
  8
top
  6
ByLayer
 62
  256
370
   -1
100
AcDbLine
 10
80.25
 20
-46.31781002638559
 11
80.25
 21
-42.91781002638559
  0
LINE
  5
1E8
100
AcDbEntity
  8
top
  6
ByLayer
 62
  256
370
   -1
100
AcDbLine
 10
80.25
 20
-42.91781002638559
 11
86.25000000000003
 21
-42.91781002638559
  0
LINE
  5
1E9
100
AcDbEntity
  8
top
  6
ByLayer
 62
  256
370
   -1
100
AcDbLine
 10
86.25000000000003
 20
-42.91781002638559
 11
86.25000000000003
 21
-46.31781002638559
  0
LINE
  5
1EA
100
AcDbEntity
  8
top
  6
ByLayer
 62
  256
370
   -1
100
AcDbLine
 10
86.25000000000003
 20
-46.31781002638559
 11
92.25
 21
-46.31781002638559
  0
LINE
  5
1EB
100
AcDbEntity
  8
top
  6
ByLayer
 62
  256
370
   -1
100
AcDbLine
 10
92.25
 20
-46.31781002638559
 11
92.25
 21
-42.91781002638559
  0
LINE
  5
1EC
100
AcDbEntity
  8
top
  6
ByLayer
 62
  256
370
   -1
100
AcDbLine
 10
92.25
 20
-42.91781002638559
 11
98.25000000000006
 21
-42.91781002638559
  0
LINE
  5
1ED
100
AcDbEntity
  8
top
  6
ByLayer
 62
  256
370
   -1
100
AcDbLine
 10
98.25000000000006
 20
-42.91781002638559
 11
98.25000000000006
 21
-46.31781002638559
  0
LINE
  5
1EE
100
AcDbEntity
  8
top
  6
ByLayer
 62
  256
370
   -1
100
AcDbLine
 10
106.2500000000001
 20
-35.86781002638559
 11
106.2500000000001
 21
-39.26781002638559
  0
LINE
  5
1EF
100
AcDbEntity
  8
top
  6
ByLayer
 62
  256
370
   -1
100
AcDbLine
 10
96.25
 20
-35.86781002638559
 11
92.25
 21
-35.86781002638559
  0
LINE
  5
1F0
100
AcDbEntity
  8
top
  6
ByLayer
 62
  256
370
   -1
100
AcDbLine
 10
96.25
 20
-39.26781002638559
 11
96.25
 21
-35.86781002638559
  0
LINE
  5
1F1
100
AcDbEntity
  8
top
  6
ByLayer
 62
  256
370
   -1
100
AcDbLine
 10
106.2500000000001
 20
-39.26781002638559
 11
96.25
 21
-39.26781002638559
  0
LINE
  5
1F2
100
AcDbEntity
  8
top
  6
ByLayer
 62
  256
370
   -1
100
AcDbLine
 10
110.25
 20
-35.86781002638559
 11
106.2500000000001
 21
-35.86781002638559
  0
LINE
  5
1F3
100
AcDbEntity
  8
top
  6
ByLayer
 62
  256
370
   -1
100
AcDbLine
 10
164.25
 20
-21.76781002638559
 11
158.25
 21
-21.76781002638559
  0
LINE
  5
1F4
100
AcDbEntity
  8
top
  6
ByLayer
 62
  256
370
   -1
100
AcDbLine
 10
158.25
 20
-21.76781002638559
 11
158.25
 21
-18.36781002638559
  0
LINE
  5
1F5
100
AcDbEntity
  8
top
  6
ByLayer
 62
  256
370
   -1
100
AcDbLine
 10
158.25
 20
-18.36781002638559
 11
152.2500000000001
 21
-18.36781002638559
  0
LINE
  5
1F6
100
AcDbEntity
  8
top
  6
ByLayer
 62
  256
370
   -1
100
AcDbLine
 10
152.2500000000001
 20
-18.36781002638559
 11
152.2500000000001
 21
-21.76781002638559
  0
LINE
  5
1F7
100
AcDbEntity
  8
top
  6
ByLayer
 62
  256
370
   -1
100
AcDbLine
 10
152.2500000000001
 20
-21.76781002638559
 11
146.25
 21
-21.76781002638559
  0
LINE
  5
1F8
100
AcDbEntity
  8
top
  6
ByLayer
 62
  256
370
   -1
100
AcDbLine
 10
146.25
 20
-21.76781002638559
 11
146.25
 21
-18.36781002638559
  0
LINE
  5
1F9
100
AcDbEntity
  8
top
  6
ByLayer
 62
  256
370
   -1
100
AcDbLine
 10
134.25
 20
-21.76781002638559
 11
134.25
 21
-18.36781002638559
  0
LINE
  5
1FA
100
AcDbEntity
  8
top
  6
ByLayer
 62
  256
370
   -1
100
AcDbLine
 10
134.25
 20
-18.36781002638559
 11
128.25
 21
-18.36781002638559
  0
LINE
  5
1FB
100
AcDbEntity
  8
top
  6
ByLayer
 62
  256
370
   -1
100
AcDbLine
 10
128.25
 20
-18.36781002638559
 11
128.25
 21
-21.76781002638559
  0
LINE
  5
1FC
100
AcDbEntity
  8
top
  6
ByLayer
 62
  256
370
   -1
100
AcDbLine
 10
128.25
 20
-21.76781002638559
 11
122.2500000000001
 21
-21.76781002638559
  0
LINE
  5
1FD
100
AcDbEntity
  8
top
  6
ByLayer
 62
  256
370
   -1
100
AcDbLine
 10
122.2500000000001
 20
-21.76781002638559
 11
122.2500000000001
 21
-18.36781002638559
  0
LINE
  5
1FE
100
AcDbEntity
  8
top
  6
ByLayer
 62
  256
370
   -1
100
AcDbLine
 10
122.2500000000001
 20
-18.36781002638559
 11
116.2500000000001
 21
-18.36781002638559
  0
LINE
  5
1FF
100
AcDbEntity
  8
top
  6
ByLayer
 62
  256
370
   -1
100
AcDbLine
 10
116.2500000000001
 20
-18.36781002638559
 11
116.2500000000001
 21
-21.76781002638559
  0
LINE
  5
200
100
AcDbEntity
  8
top
  6
ByLayer
 62
  256
370
   -1
100
AcDbLine
 10
116.2500000000001
 20
-21.76781002638559
 11
110.25
 21
-21.76781002638559
  0
LINE
  5
201
100
AcDbEntity
  8
top
  6
ByLayer
 62
  256
370
   -1
100
AcDbLine
 10
110.25
 20
-21.76781002638559
 11
110.25
 21
-18.36781002638559
  0
LINE
  5
202
100
AcDbEntity
  8
top
  6
ByLayer
 62
  256
370
   -1
100
AcDbLine
 10
110.25
 20
-18.36781002638559
 11
104.25
 21
-18.36781002638559
  0
LINE
  5
203
100
AcDbEntity
  8
top
  6
ByLayer
 62
  256
370
   -1
100
AcDbLine
 10
104.25
 20
-18.36781002638559
 11
104.25
 21
-21.76781002638559
  0
LINE
  5
204
100
AcDbEntity
  8
top
  6
ByLayer
 62
  256
370
   -1
100
AcDbLine
 10
104.25
 20
-21.76781002638559
 11
98.25000000000006
 21
-21.76781002638559
  0
LINE
  5
205
100
AcDbEntity
  8
top
  6
ByLayer
 62
  256
370
   -1
100
AcDbLine
 10
98.25000000000006
 20
-21.76781002638559
 11
98.25000000000006
 21
-18.36781002638559
  0
LINE
  5
206
100
AcDbEntity
  8
top
  6
ByLayer
 62
  256
370
   -1
100
AcDbLine
 10
98.25000000000006
 20
-18.36781002638559
 11
92.25
 21
-18.36781002638559
  0
LINE
  5
207
100
AcDbEntity
  8
top
  6
ByLayer
 62
  256
370
   -1
100
AcDbLine
 10
92.25
 20
-18.36781002638559
 11
92.25
 21
-21.76781002638559
  0
LINE
  5
208
100
AcDbEntity
  8
top
  6
ByLayer
 62
  256
370
   -1
100
AcDbLine
 10
92.25
 20
-21.76781002638559
 11
86.25000000000003
 21
-21.76781002638559
  0
LINE
  5
209
100
AcDbEntity
  8
top
  6
ByLayer
 62
  256
370
   -1
100
AcDbLine
 10
86.25000000000003
 20
-21.76781002638559
 11
86.25000000000003
 21
-18.36781002638559
  0
LINE
  5
20A
100
AcDbEntity
  8
top
  6
ByLayer
 62
  256
370
   -1
100
AcDbLine
 10
86.25000000000003
 20
-18.36781002638559
 11
80.25
 21
-18.36781002638559
  0
LINE
  5
20B
100
AcDbEntity
  8
top
  6
ByLayer
 62
  256
370
   -1
100
AcDbLine
 10
80.25
 20
-18.36781002638559
 11
80.25
 21
-21.76781002638559
  0
LINE
  5
20C
100
AcDbEntity
  8
top
  6
ByLayer
 62
  256
370
   -1
100
AcDbLine
 10
80.25
 20
-21.76781002638559
 11
74.25000000000003
 21
-21.76781002638559
  0
LINE
  5
20D
100
AcDbEntity
  8
top
  6
ByLayer
 62
  256
370
   -1
100
AcDbLine
 10
74.25000000000003
 20
-21.76781002638559
 11
74.25000000000003
 21
-18.36781002638559
  0
LINE
  5
20E
100
AcDbEntity
  8
top
  6
ByLayer
 62
  256
370
   -1
100
AcDbLine
 10
74.25000000000003
 20
-18.36781002638559
 11
68.25
 21
-18.36781002638559
  0
LINE
  5
20F
100
AcDbEntity
  8
top
  6
ByLayer
 62
  256
370
   -1
100
AcDbLine
 10
68.25
 20
-18.36781002638559
 11
68.25
 21
-21.76781002638559
  0
LINE
  5
210
100
AcDbEntity
  8
top
  6
ByLayer
 62
  256
370
   -1
100
AcDbLine
 10
68.25
 20
-21.76781002638559
 11
62.25
 21
-21.76781002638559
  0
LINE
  5
211
100
AcDbEntity
  8
top
  6
ByLayer
 62
  256
370
   -1
100
AcDbLine
 10
62.25
 20
-21.76781002638559
 11
62.25
 21
-18.36781002638559
  0
LINE
  5
212
100
AcDbEntity
  8
top
  6
ByLayer
 62
  256
370
   -1
100
AcDbLine
 10
62.25
 20
-18.36781002638559
 11
56.25
 21
-18.36781002638559
  0
LINE
  5
213
100
AcDbEntity
  8
top
  6
ByLayer
 62
  256
370
   -1
100
AcDbLine
 10
56.25
 20
-18.36781002638559
 11
56.25
 21
-21.76781002638559
  0
LINE
  5
214
100
AcDbEntity
  8
top
  6
ByLayer
 62
  256
370
   -1
100
AcDbLine
 10
56.25
 20
-21.76781002638559
 11
50.25
 21
-21.76781002638559
  0
LINE
  5
215
100
AcDbEntity
  8
top
  6
ByLayer
 62
  256
370
   -1
100
AcDbLine
 10
50.25
 20
-21.76781002638559
 11
50.25
 21
-18.36781002638559
  0
LINE
  5
216
100
AcDbEntity
  8
top
  6
ByLayer
 62
  256
370
   -1
100
AcDbLine
 10
50.25
 20
-18.36781002638559
 11
44.25000000000003
 21
-18.36781002638559
  0
LINE
  5
217
100
AcDbEntity
  8
top
  6
ByLayer
 62
  256
370
   -1
100
AcDbLine
 10
44.25000000000003
 20
-18.36781002638559
 11
44.25000000000003
 21
-21.76781002638559
  0
LINE
  5
218
100
AcDbEntity
  8
top
  6
ByLayer
 62
  256
370
   -1
100
AcDbLine
 10
38.25
 20
-56.7678100263856
 11
44.25000000000003
 21
-56.7678100263856
  0
LINE
  5
219
100
AcDbEntity
  8
top
  6
ByLayer
 62
  256
370
   -1
100
AcDbLine
 10
44.25000000000003
 20
-56.7678100263856
 11
44.25000000000003
 21
-60.16781002638559
  0
LINE
  5
21A
100
AcDbEntity
  8
top
  6
ByLayer
 62
  256
370
   -1
100
AcDbLine
 10
44.25000000000003
 20
-60.16781002638559
 11
50.25
 21
-60.16781002638559
  0
LINE
  5
21B
100
AcDbEntity
  8
top
  6
ByLayer
 62
  256
370
   -1
100
AcDbLine
 10
50.25
 20
-60.16781002638559
 11
50.25
 21
-56.76781002638559
  0
LINE
  5
21C
100
AcDbEntity
  8
top
  6
ByLayer
 62
  256
370
   -1
100
AcDbLine
 10
50.25
 20
-56.76781002638559
 11
56.25
 21
-56.76781002638559
  0
LINE
  5
21D
100
AcDbEntity
  8
top
  6
ByLayer
 62
  256
370
   -1
100
AcDbLine
 10
56.25
 20
-56.76781002638559
 11
56.25
 21
-60.16781002638559
  0
LINE
  5
21E
100
AcDbEntity
  8
top
  6
ByLayer
 62
  256
370
   -1
100
AcDbLine
 10
56.25
 20
-60.16781002638559
 11
62.25
 21
-60.16781002638559
  0
LINE
  5
21F
100
AcDbEntity
  8
top
  6
ByLayer
 62
  256
370
   -1
100
AcDbLine
 10
62.25
 20
-60.16781002638559
 11
62.25
 21
-56.76781002638559
  0
LINE
  5
220
100
AcDbEntity
  8
top
  6
ByLayer
 62
  256
370
   -1
100
AcDbLine
 10
62.25
 20
-56.76781002638559
 11
68.25
 21
-56.7678100263856
  0
LINE
  5
221
100
AcDbEntity
  8
top
  6
ByLayer
 62
  256
370
   -1
100
AcDbLine
 10
68.25
 20
-56.7678100263856
 11
68.25
 21
-60.16781002638559
  0
LINE
  5
222
100
AcDbEntity
  8
top
  6
ByLayer
 62
  256
370
   -1
100
AcDbLine
 10
68.25
 20
-60.16781002638559
 11
74.25000000000003
 21
-60.16781002638559
  0
LINE
  5
223
100
AcDbEntity
  8
top
  6
ByLayer
 62
  256
370
   -1
100
AcDbLine
 10
74.25000000000003
 20
-60.16781002638559
 11
74.25000000000003
 21
-56.76781002638559
  0
LINE
  5
224
100
AcDbEntity
  8
top
  6
ByLayer
 62
  256
370
   -1
100
AcDbLine
 10
74.25000000000003
 20
-56.76781002638559
 11
80.25
 21
-56.76781002638559
  0
LINE
  5
225
100
AcDbEntity
  8
top
  6
ByLayer
 62
  256
370
   -1
100
AcDbLine
 10
80.25
 20
-56.76781002638559
 11
80.25
 21
-60.16781002638559
  0
LINE
  5
226
100
AcDbEntity
  8
top
  6
ByLayer
 62
  256
370
   -1
100
AcDbLine
 10
80.25
 20
-60.16781002638559
 11
86.25000000000003
 21
-60.16781002638559
  0
LINE
  5
227
100
AcDbEntity
  8
top
  6
ByLayer
 62
  256
370
   -1
100
AcDbLine
 10
86.25000000000003
 20
-60.16781002638559
 11
86.25000000000003
 21
-56.76781002638559
  0
LINE
  5
228
100
AcDbEntity
  8
top
  6
ByLayer
 62
  256
370
   -1
100
AcDbLine
 10
86.25000000000003
 20
-56.76781002638559
 11
92.25
 21
-56.76781002638559
  0
LINE
  5
229
100
AcDbEntity
  8
top
  6
ByLayer
 62
  256
370
   -1
100
AcDbLine
 10
92.25
 20
-56.76781002638559
 11
92.25
 21
-60.16781002638559
  0
LINE
  5
22A
100
AcDbEntity
  8
top
  6
ByLayer
 62
  256
370
   -1
100
AcDbLine
 10
92.25
 20
-60.16781002638559
 11
98.25000000000006
 21
-60.16781002638559
  0
LINE
  5
22B
100
AcDbEntity
  8
top
  6
ByLayer
 62
  256
370
   -1
100
AcDbLine
 10
98.25000000000006
 20
-60.16781002638559
 11
98.25000000000006
 21
-56.76781002638559
  0
LINE
  5
22C
100
AcDbEntity
  8
top
  6
ByLayer
 62
  256
370
   -1
100
AcDbLine
 10
98.25000000000006
 20
-56.76781002638559
 11
104.25
 21
-56.76781002638559
  0
LINE
  5
22D
100
AcDbEntity
  8
top
  6
ByLayer
 62
  256
370
   -1
100
AcDbLine
 10
104.25
 20
-56.76781002638559
 11
104.25
 21
-60.16781002638559
  0
LINE
  5
22E
100
AcDbEntity
  8
top
  6
ByLayer
 62
  256
370
   -1
100
AcDbLine
 10
104.25
 20
-60.16781002638559
 11
110.25
 21
-60.16781002638559
  0
LINE
  5
22F
100
AcDbEntity
  8
top
  6
ByLayer
 62
  256
370
   -1
100
AcDbLine
 10
110.25
 20
-60.16781002638559
 11
110.25
 21
-56.76781002638559
  0
LINE
  5
230
100
AcDbEntity
  8
top
  6
ByLayer
 62
  256
370
   -1
100
AcDbLine
 10
110.25
 20
-56.76781002638559
 11
116.2500000000001
 21
-56.76781002638559
  0
LINE
  5
231
100
AcDbEntity
  8
top
  6
ByLayer
 62
  256
370
   -1
100
AcDbLine
 10
116.2500000000001
 20
-56.76781002638559
 11
116.2500000000001
 21
-60.16781002638559
  0
LINE
  5
232
100
AcDbEntity
  8
top
  6
ByLayer
 62
  256
370
   -1
100
AcDbLine
 10
116.2500000000001
 20
-60.16781002638559
 11
122.2500000000001
 21
-60.16781002638559
  0
LINE
  5
233
100
AcDbEntity
  8
top
  6
ByLayer
 62
  256
370
   -1
100
AcDbLine
 10
122.2500000000001
 20
-60.16781002638559
 11
122.2500000000001
 21
-56.76781002638559
  0
LINE
  5
234
100
AcDbEntity
  8
top
  6
ByLayer
 62
  256
370
   -1
100
AcDbLine
 10
122.2500000000001
 20
-56.76781002638559
 11
128.25
 21
-56.76781002638559
  0
LINE
  5
235
100
AcDbEntity
  8
top
  6
ByLayer
 62
  256
370
   -1
100
AcDbLine
 10
128.25
 20
-56.76781002638559
 11
128.25
 21
-60.16781002638559
  0
LINE
  5
236
100
AcDbEntity
  8
top
  6
ByLayer
 62
  256
370
   -1
100
AcDbLine
 10
128.25
 20
-60.16781002638559
 11
134.25
 21
-60.16781002638559
  0
LINE
  5
237
100
AcDbEntity
  8
top
  6
ByLayer
 62
  256
370
   -1
100
AcDbLine
 10
134.25
 20
-60.16781002638559
 11
134.25
 21
-56.76781002638558
  0
LINE
  5
238
100
AcDbEntity
  8
top
  6
ByLayer
 62
  256
370
   -1
100
AcDbLine
 10
134.25
 20
-56.76781002638558
 11
140.25
 21
-56.76781002638559
  0
LINE
  5
239
100
AcDbEntity
  8
top
  6
ByLayer
 62
  256
370
   -1
100
AcDbLine
 10
140.25
 20
-56.76781002638559
 11
140.25
 21
-60.16781002638559
  0
LINE
  5
23A
100
AcDbEntity
  8
top
  6
ByLayer
 62
  256
370
   -1
100
AcDbLine
 10
140.25
 20
-60.16781002638559
 11
146.25
 21
-60.16781002638559
  0
LINE
  5
23B
100
AcDbEntity
  8
top
  6
ByLayer
 62
  256
370
   -1
100
AcDbLine
 10
146.25
 20
-60.16781002638559
 11
146.25
 21
-56.76781002638559
  0
LINE
  5
23C
100
AcDbEntity
  8
top
  6
ByLayer
 62
  256
370
   -1
100
AcDbLine
 10
146.25
 20
-56.76781002638559
 11
152.2500000000001
 21
-56.76781002638559
  0
LINE
  5
23D
100
AcDbEntity
  8
top
  6
ByLayer
 62
  256
370
   -1
100
AcDbLine
 10
152.2500000000001
 20
-56.76781002638559
 11
152.2500000000001
 21
-60.16781002638559
  0
LINE
  5
23E
100
AcDbEntity
  8
top
  6
ByLayer
 62
  256
370
   -1
100
AcDbLine
 10
152.2500000000001
 20
-60.16781002638559
 11
158.25
 21
-60.16781002638559
  0
LINE
  5
23F
100
AcDbEntity
  8
top
  6
ByLayer
 62
  256
370
   -1
100
AcDbLine
 10
158.25
 20
-60.16781002638559
 11
158.25
 21
-56.76781002638558
  0
LINE
  5
240
100
AcDbEntity
  8
top
  6
ByLayer
 62
  256
370
   -1
100
AcDbLine
 10
158.25
 20
-56.76781002638558
 11
164.25
 21
-56.76781002638559
  0
LINE
  5
241
100
AcDbEntity
  8
top
  6
ByLayer
 62
  256
370
   -1
100
AcDbLine
 10
178.25
 20
-42.26781002638559
 11
178.25
 21
-36.26781002638559
  0
LINE
  5
242
100
AcDbEntity
  8
top
  6
ByLayer
 62
  256
370
   -1
100
AcDbLine
 10
178.25
 20
-36.26781002638559
 11
181.6500000000001
 21
-36.26781002638559
  0
LINE
  5
243
100
AcDbEntity
  8
top
  6
ByLayer
 62
  256
370
   -1
100
AcDbLine
 10
181.6500000000001
 20
-36.26781002638559
 11
181.6500000000001
 21
-30.26781002638559
  0
LINE
  5
244
100
AcDbEntity
  8
top
  6
ByLayer
 62
  256
370
   -1
100
AcDbLine
 10
181.6500000000001
 20
-30.26781002638559
 11
178.25
 21
-30.26781002638559
  0
LINE
  5
245
100
AcDbEntity
  8
top
  6
ByLayer
 62
  256
370
   -1
100
AcDbLine
 10
178.25
 20
-30.26781002638559
 11
178.25
 21
-24.26781002638559
  0
LINE
  5
246
100
AcDbEntity
  8
top
  6
ByLayer
 62
  256
370
   -1
100
AcDbLine
 10
178.25
 20
-24.26781002638559
 11
181.6500000000001
 21
-24.26781002638559
  0
LINE
  5
247
100
AcDbEntity
  8
top
  6
ByLayer
 62
  256
370
   -1
100
AcDbLine
 10
181.6500000000001
 20
-24.26781002638559
 11
181.6500000000001
 21
-18.36781002638559
  0
LINE
  5
248
100
AcDbEntity
  8
top
  6
ByLayer
 62
  256
370
   -1
100
AcDbLine
 10
181.6500000000001
 20
-18.36781002638559
 11
176.2500000000001
 21
-18.36781002638559
  0
LINE
  5
249
100
AcDbEntity
  8
top
  6
ByLayer
 62
  256
370
   -1
100
AcDbLine
 10
176.2500000000001
 20
-18.36781002638559
 11
176.2500000000001
 21
-21.76781002638559
  0
LINE
  5
24A
100
AcDbEntity
  8
top
  6
ByLayer
 62
  256
370
   -1
100
AcDbLine
 10
176.2500000000001
 20
-56.76781002638559
 11
176.2500000000001
 21
-60.16781002638559
  0
LINE
  5
24B
100
AcDbEntity
  8
top
  6
ByLayer
 62
  256
370
   -1
100
AcDbLine
 10
176.2500000000001
 20
-60.16781002638559
 11
181.6500000000001
 21
-60.16781002638559
  0
LINE
  5
24C
100
AcDbEntity
  8
top
  6
ByLayer
 62
  256
370
   -1
100
AcDbLine
 10
181.6500000000001
 20
-60.16781002638559
 11
181.6500000000001
 21
-54.26781002638559
  0
LINE
  5
24D
100
AcDbEntity
  8
top
  6
ByLayer
 62
  256
370
   -1
100
AcDbLine
 10
181.6500000000001
 20
-54.26781002638559
 11
178.25
 21
-54.26781002638559
  0
LINE
  5
24E
100
AcDbEntity
  8
top
  6
ByLayer
 62
  256
370
   -1
100
AcDbLine
 10
178.25
 20
-54.26781002638559
 11
178.25
 21
-48.26781002638559
  0
LINE
  5
24F
100
AcDbEntity
  8
top
  6
ByLayer
 62
  256
370
   -1
100
AcDbLine
 10
178.25
 20
-48.26781002638559
 11
181.6500000000001
 21
-48.26781002638559
  0
LINE
  5
250
100
AcDbEntity
  8
top
  6
ByLayer
 62
  256
370
   -1
100
AcDbLine
 10
181.6500000000001
 20
-48.26781002638559
 11
181.6500000000001
 21
-42.26781002638559
  0
LINE
  5
251
100
AcDbEntity
  8
top
  6
ByLayer
 62
  256
370
   -1
100
AcDbLine
 10
181.6500000000001
 20
-42.26781002638559
 11
178.25
 21
-42.26781002638559
  0
LINE
  5
252
100
AcDbEntity
  8
top
  6
ByLayer
 62
  256
370
   -1
100
AcDbLine
 10
26.25000000000003
 20
-21.76781002638559
 11
26.25000000000003
 21
-18.36781002638559
  0
LINE
  5
253
100
AcDbEntity
  8
top
  6
ByLayer
 62
  256
370
   -1
100
AcDbLine
 10
26.25000000000003
 20
-18.36781002638559
 11
20.85000000000003
 21
-18.36781002638559
  0
LINE
  5
254
100
AcDbEntity
  8
top
  6
ByLayer
 62
  256
370
   -1
100
AcDbLine
 10
20.85000000000003
 20
-18.36781002638559
 11
20.85000000000003
 21
-24.26781002638559
  0
LINE
  5
255
100
AcDbEntity
  8
top
  6
ByLayer
 62
  256
370
   -1
100
AcDbLine
 10
20.85000000000003
 20
-24.26781002638559
 11
24.25
 21
-24.26781002638559
  0
LINE
  5
256
100
AcDbEntity
  8
top
  6
ByLayer
 62
  256
370
   -1
100
AcDbLine
 10
24.25
 20
-24.26781002638559
 11
24.25
 21
-30.26781002638559
  0
LINE
  5
257
100
AcDbEntity
  8
top
  6
ByLayer
 62
  256
370
   -1
100
AcDbLine
 10
24.25
 20
-30.26781002638559
 11
20.85000000000003
 21
-30.26781002638559
  0
LINE
  5
258
100
AcDbEntity
  8
top
  6
ByLayer
 62
  256
370
   -1
100
AcDbLine
 10
20.85000000000003
 20
-30.26781002638559
 11
20.85000000000003
 21
-36.26781002638559
  0
LINE
  5
259
100
AcDbEntity
  8
top
  6
ByLayer
 62
  256
370
   -1
100
AcDbLine
 10
20.85000000000003
 20
-36.26781002638559
 11
24.25
 21
-36.26781002638559
  0
LINE
  5
25A
100
AcDbEntity
  8
top
  6
ByLayer
 62
  256
370
   -1
100
AcDbLine
 10
24.25
 20
-36.26781002638559
 11
24.25
 21
-42.26781002638559
  0
LINE
  5
25B
100
AcDbEntity
  8
top
  6
ByLayer
 62
  256
370
   -1
100
AcDbLine
 10
24.25
 20
-42.26781002638559
 11
20.85000000000003
 21
-42.26781002638559
  0
LINE
  5
25C
100
AcDbEntity
  8
top
  6
ByLayer
 62
  256
370
   -1
100
AcDbLine
 10
20.85000000000003
 20
-60.16781002638559
 11
26.25000000000003
 21
-60.16781002638559
  0
LINE
  5
25D
100
AcDbEntity
  8
top
  6
ByLayer
 62
  256
370
   -1
100
AcDbLine
 10
26.25000000000003
 20
-60.16781002638559
 11
26.25000000000003
 21
-56.7678100263856
  0
LINE
  5
25E
100
AcDbEntity
  8
top
  6
ByLayer
 62
  256
370
   -1
100
AcDbLine
 10
32.25
 20
-18.36781002638559
 11
32.25
 21
-21.76781002638559
  0
LINE
  5
25F
100
AcDbEntity
  8
top
  6
ByLayer
 62
  256
370
   -1
100
AcDbLine
 10
32.25
 20
-21.76781002638559
 11
26.25000000000003
 21
-21.76781002638559
  0
LINE
  5
260
100
AcDbEntity
  8
top
  6
ByLayer
 62
  256
370
   -1
100
AcDbLine
 10
26.25000000000003
 20
-56.7678100263856
 11
32.25
 21
-56.7678100263856
  0
LINE
  5
261
100
AcDbEntity
  8
top
  6
ByLayer
 62
  256
370
   -1
100
AcDbLine
 10
32.25
 20
-56.7678100263856
 11
32.25
 21
-60.16781002638559
  0
LINE
  5
262
100
AcDbEntity
  8
top
  6
ByLayer
 62
  256
370
   -1
100
AcDbLine
 10
32.25
 20
-60.16781002638559
 11
38.25
 21
-60.16781002638559
  0
LINE
  5
263
100
AcDbEntity
  8
top
  6
ByLayer
 62
  256
370
   -1
100
AcDbLine
 10
38.25
 20
-60.16781002638559
 11
38.25
 21
-56.76781002638559
  0
LINE
  5
264
100
AcDbEntity
  8
top
  6
ByLayer
 62
  256
370
   -1
100
AcDbLine
 10
176.2500000000001
 20
-21.76781002638559
 11
170.25
 21
-21.76781002638559
  0
LINE
  5
265
100
AcDbEntity
  8
top
  6
ByLayer
 62
  256
370
   -1
100
AcDbLine
 10
170.25
 20
-21.76781002638559
 11
170.25
 21
-18.36781002638559
  0
LINE
  5
266
100
AcDbEntity
  8
top
  6
ByLayer
 62
  256
370
   -1
100
AcDbLine
 10
170.25
 20
-18.36781002638559
 11
164.25
 21
-18.36781002638559
  0
LINE
  5
267
100
AcDbEntity
  8
top
  6
ByLayer
 62
  256
370
   -1
100
AcDbLine
 10
164.25
 20
-18.36781002638559
 11
164.25
 21
-21.76781002638559
  0
LINE
  5
268
100
AcDbEntity
  8
top
  6
ByLayer
 62
  256
370
   -1
100
AcDbLine
 10
164.25
 20
-56.76781002638559
 11
164.25
 21
-60.16781002638559
  0
LINE
  5
269
100
AcDbEntity
  8
top
  6
ByLayer
 62
  256
370
   -1
100
AcDbLine
 10
164.25
 20
-60.16781002638559
 11
170.25
 21
-60.16781002638559
  0
LINE
  5
26A
100
AcDbEntity
  8
top
  6
ByLayer
 62
  256
370
   -1
100
AcDbLine
 10
170.25
 20
-60.16781002638559
 11
170.25
 21
-56.76781002638558
  0
LINE
  5
26B
100
AcDbEntity
  8
top
  6
ByLayer
 62
  256
370
   -1
100
AcDbLine
 10
170.25
 20
-56.76781002638558
 11
176.2500000000001
 21
-56.76781002638559
  0
LINE
  5
26C
100
AcDbEntity
  8
side
  6
ByLayer
 62
  256
370
   -1
100
AcDbLine
 10
-16.3725000000035
 20
-47.26781002638559
 11
-16.3725000000035
 21
-42.26781002638559
  0
LINE
  5
26D
100
AcDbEntity
  8
side
  6
ByLayer
 62
  256
370
   -1
100
AcDbLine
 10
-12.97250000000349
 20
-47.26781002638559
 11
-16.3725000000035
 21
-47.26781002638559
  0
LINE
  5
26E
100
AcDbEntity
  8
side
  6
ByLayer
 62
  256
370
   -1
100
AcDbLine
 10
-16.3725000000035
 20
-56.76781002638559
 11
-16.3725000000035
 21
-55.26781002638559
  0
LINE
  5
26F
100
AcDbEntity
  8
side
  6
ByLayer
 62
  256
370
   -1
100
AcDbLine
 10
-12.97250000000349
 20
-55.26781002638559
 11
-12.97250000000349
 21
-47.26781002638559
  0
LINE
  5
270
100
AcDbEntity
  8
side
  6
ByLayer
 62
  256
370
   -1
100
AcDbLine
 10
-16.3725000000035
 20
-55.26781002638559
 11
-12.97250000000349
 21
-55.26781002638559
  0
LINE
  5
271
100
AcDbEntity
  8
top
  6
ByLayer
 62
  256
370
   -1
100
AcDbLine
 10
20.85000000000003
 20
-55.26781002638559
 11
20.85000000000003
 21
-60.16781002638559
  0
LINE
  5
272
100
AcDbEntity
  8
top
  6
ByLayer
 62
  256
370
   -1
100
AcDbLine
 10
24.25
 20
-55.26781002638559
 11
20.85000000000003
 21
-55.26781002638559
  0
LINE
  5
273
100
AcDbEntity
  8
top
  6
ByLayer
 62
  256
370
   -1
100
AcDbLine
 10
24.25
 20
-47.26781002638559
 11
24.25
 21
-55.26781002638559
  0
LINE
  5
274
100
AcDbEntity
  8
top
  6
ByLayer
 62
  256
370
   -1
100
AcDbLine
 10
20.85000000000003
 20
-42.26781002638559
 11
20.85000000000003
 21
-47.26781002638559
  0
LINE
  5
275
100
AcDbEntity
  8
top
  6
ByLayer
 62
  256
370
   -1
100
AcDbLine
 10
20.85000000000003
 20
-47.26781002638559
 11
24.25
 21
-47.26781002638559
  0
LINE
  5
276
100
AcDbEntity
  8
side
  6
ByLayer
 62
  256
370
   -1
100
AcDbLine
 10
44.25
 20
-6.465023190333426
 11
44.25
 21
-3.06502319033342
  0
LINE
  5
277
100
AcDbEntity
  8
side
  6
ByLayer
 62
  256
370
   -1
100
AcDbLine
 10
44.25
 20
-3.06502319033342
 11
50.25
 21
-3.06502319033342
  0
LINE
  5
278
100
AcDbEntity
  8
side
  6
ByLayer
 62
  256
370
   -1
100
AcDbLine
 10
50.25
 20
-3.06502319033342
 11
50.25
 21
-6.465023190333426
  0
LINE
  5
279
100
AcDbEntity
  8
side
  6
ByLayer
 62
  256
370
   -1
100
AcDbLine
 10
50.25
 20
-6.465023190333426
 11
56.25
 21
-6.465023190333426
  0
LINE
  5
27A
100
AcDbEntity
  8
side
  6
ByLayer
 62
  256
370
   -1
100
AcDbLine
 10
56.25
 20
-6.465023190333426
 11
56.25
 21
-3.06502319033342
  0
LINE
  5
27B
100
AcDbEntity
  8
side
  6
ByLayer
 62
  256
370
   -1
100
AcDbLine
 10
56.25
 20
-3.06502319033342
 11
62.25
 21
-3.06502319033342
  0
LINE
  5
27C
100
AcDbEntity
  8
side
  6
ByLayer
 62
  256
370
   -1
100
AcDbLine
 10
62.25
 20
-3.06502319033342
 11
62.25
 21
-6.465023190333426
  0
LINE
  5
27D
100
AcDbEntity
  8
side
  6
ByLayer
 62
  256
370
   -1
100
AcDbLine
 10
62.25
 20
-6.465023190333426
 11
68.25
 21
-6.465023190333426
  0
LINE
  5
27E
100
AcDbEntity
  8
side
  6
ByLayer
 62
  256
370
   -1
100
AcDbLine
 10
68.25
 20
-6.465023190333426
 11
68.25
 21
-3.06502319033342
  0
LINE
  5
27F
100
AcDbEntity
  8
side
  6
ByLayer
 62
  256
370
   -1
100
AcDbLine
 10
68.25
 20
-3.06502319033342
 11
74.25
 21
-3.06502319033342
  0
LINE
  5
280
100
AcDbEntity
  8
side
  6
ByLayer
 62
  256
370
   -1
100
AcDbLine
 10
74.25
 20
-3.06502319033342
 11
74.25
 21
-6.465023190333426
  0
LINE
  5
281
100
AcDbEntity
  8
side
  6
ByLayer
 62
  256
370
   -1
100
AcDbLine
 10
74.25
 20
-6.465023190333426
 11
80.25
 21
-6.465023190333426
  0
LINE
  5
282
100
AcDbEntity
  8
side
  6
ByLayer
 62
  256
370
   -1
100
AcDbLine
 10
80.25
 20
-6.465023190333426
 11
80.25
 21
-3.06502319033342
  0
LINE
  5
283
100
AcDbEntity
  8
side
  6
ByLayer
 62
  256
370
   -1
100
AcDbLine
 10
80.25
 20
-3.06502319033342
 11
86.25
 21
-3.06502319033342
  0
LINE
  5
284
100
AcDbEntity
  8
side
  6
ByLayer
 62
  256
370
   -1
100
AcDbLine
 10
86.25
 20
-3.06502319033342
 11
86.25
 21
-6.465023190333426
  0
LINE
  5
285
100
AcDbEntity
  8
side
  6
ByLayer
 62
  256
370
   -1
100
AcDbLine
 10
86.25
 20
-6.465023190333426
 11
92.24999999999997
 21
-6.465023190333426
  0
LINE
  5
286
100
AcDbEntity
  8
side
  6
ByLayer
 62
  256
370
   -1
100
AcDbLine
 10
92.24999999999997
 20
-6.465023190333426
 11
92.24999999999997
 21
-3.06502319033342
  0
LINE
  5
287
100
AcDbEntity
  8
side
  6
ByLayer
 62
  256
370
   -1
100
AcDbLine
 10
92.24999999999997
 20
-3.06502319033342
 11
98.25
 21
-3.06502319033342
  0
LINE
  5
288
100
AcDbEntity
  8
side
  6
ByLayer
 62
  256
370
   -1
100
AcDbLine
 10
98.25
 20
-3.06502319033342
 11
98.25
 21
-6.465023190333426
  0
LINE
  5
289
100
AcDbEntity
  8
side
  6
ByLayer
 62
  256
370
   -1
100
AcDbLine
 10
98.25
 20
-6.465023190333426
 11
104.25
 21
-6.465023190333426
  0
LINE
  5
28A
100
AcDbEntity
  8
side
  6
ByLayer
 62
  256
370
   -1
100
AcDbLine
 10
104.25
 20
-6.465023190333426
 11
104.25
 21
-3.06502319033342
  0
LINE
  5
28B
100
AcDbEntity
  8
side
  6
ByLayer
 62
  256
370
   -1
100
AcDbLine
 10
104.25
 20
-3.06502319033342
 11
110.25
 21
-3.06502319033342
  0
LINE
  5
28C
100
AcDbEntity
  8
side
  6
ByLayer
 62
  256
370
   -1
100
AcDbLine
 10
110.25
 20
-3.06502319033342
 11
110.25
 21
-6.465023190333426
  0
LINE
  5
28D
100
AcDbEntity
  8
side
  6
ByLayer
 62
  256
370
   -1
100
AcDbLine
 10
110.25
 20
-6.465023190333426
 11
116.25
 21
-6.465023190333426
  0
LINE
  5
28E
100
AcDbEntity
  8
side
  6
ByLayer
 62
  256
370
   -1
100
AcDbLine
 10
116.25
 20
-6.465023190333426
 11
116.25
 21
-3.06502319033342
  0
LINE
  5
28F
100
AcDbEntity
  8
side
  6
ByLayer
 62
  256
370
   -1
100
AcDbLine
 10
116.25
 20
-3.06502319033342
 11
122.25
 21
-3.06502319033342
  0
LINE
  5
290
100
AcDbEntity
  8
side
  6
ByLayer
 62
  256
370
   -1
100
AcDbLine
 10
122.25
 20
-3.06502319033342
 11
122.25
 21
-6.465023190333426
  0
LINE
  5
291
100
AcDbEntity
  8
side
  6
ByLayer
 62
  256
370
   -1
100
AcDbLine
 10
122.25
 20
-6.465023190333426
 11
128.25
 21
-6.465023190333426
  0
LINE
  5
292
100
AcDbEntity
  8
side
  6
ByLayer
 62
  256
370
   -1
100
AcDbLine
 10
128.25
 20
-6.465023190333426
 11
128.25
 21
-3.06502319033342
  0
LINE
  5
293
100
AcDbEntity
  8
side
  6
ByLayer
 62
  256
370
   -1
100
AcDbLine
 10
128.25
 20
-3.06502319033342
 11
134.25
 21
-3.06502319033342
  0
LINE
  5
294
100
AcDbEntity
  8
side
  6
ByLayer
 62
  256
370
   -1
100
AcDbLine
 10
134.25
 20
-3.06502319033342
 11
134.25
 21
-6.465023190333426
  0
LINE
  5
295
100
AcDbEntity
  8
side
  6
ByLayer
 62
  256
370
   -1
100
AcDbLine
 10
146.25
 20
-3.06502319033342
 11
146.25
 21
-6.465023190333426
  0
LINE
  5
296
100
AcDbEntity
  8
side
  6
ByLayer
 62
  256
370
   -1
100
AcDbLine
 10
146.25
 20
-6.465023190333426
 11
152.25
 21
-6.465023190333426
  0
LINE
  5
297
100
AcDbEntity
  8
side
  6
ByLayer
 62
  256
370
   -1
100
AcDbLine
 10
152.25
 20
-6.465023190333426
 11
152.25
 21
-3.06502319033342
  0
LINE
  5
298
100
AcDbEntity
  8
side
  6
ByLayer
 62
  256
370
   -1
100
AcDbLine
 10
152.25
 20
-3.06502319033342
 11
158.25
 21
-3.06502319033342
  0
LINE
  5
299
100
AcDbEntity
  8
side
  6
ByLayer
 62
  256
370
   -1
100
AcDbLine
 10
158.25
 20
-3.06502319033342
 11
158.25
 21
-6.465023190333426
  0
LINE
  5
29A
100
AcDbEntity
  8
side
  6
ByLayer
 62
  256
370
   -1
100
AcDbLine
 10
158.25
 20
-6.465023190333426
 11
164.25
 21
-6.465023190333426
  0
LINE
  5
29B
100
AcDbEntity
  8
side
  6
ByLayer
 62
  256
370
   -1
100
AcDbLine
 10
164.25
 20
-6.465023190333426
 11
164.25
 21
-3.06502319033342
  0
LINE
  5
29C
100
AcDbEntity
  8
side
  6
ByLayer
 62
  256
370
   -1
100
AcDbLine
 10
164.25
 20
-3.06502319033342
 11
170.25
 21
-3.06502319033342
  0
LINE
  5
29D
100
AcDbEntity
  8
side
  6
ByLayer
 62
  256
370
   -1
100
AcDbLine
 10
170.25
 20
-3.06502319033342
 11
170.25
 21
-6.465023190333426
  0
LINE
  5
29E
100
AcDbEntity
  8
side
  6
ByLayer
 62
  256
370
   -1
100
AcDbLine
 10
170.25
 20
-6.465023190333426
 11
176.25
 21
-6.465023190333426
  0
LINE
  5
29F
100
AcDbEntity
  8
side
  6
ByLayer
 62
  256
370
   -1
100
AcDbLine
 10
176.25
 20
-6.465023190333426
 11
176.25
 21
-3.06502319033342
  0
LINE
  5
2A0
100
AcDbEntity
  8
htab-ref
  6
ByLayer
 62
  256
370
   -1
100
AcDbLine
 10
26.32145998240679
 20
8.93497680966658
 11
16.32145998240679
 21
8.93497680966658
  0
LINE
  5
2A1
100
AcDbEntity
  8
htab-ref
  6
ByLayer
 62
  256
370
   -1
100
AcDbLine
 10
26.32145998240679
 20
14.93497680966658
 11
16.32145998240679
 21
14.93497680966658
  0
LINE
  5
2A2
100
AcDbEntity
  8
side
  6
ByLayer
 62
  256
370
   -1
100
AcDbLine
 10
181.65
 20
2.93497680966658
 11
178.25
 21
2.93497680966658
  0
LINE
  5
2A3
100
AcDbEntity
  8
side
  6
ByLayer
 62
  256
370
   -1
100
AcDbLine
 10
178.25
 20
2.93497680966658
 11
178.25
 21
8.93497680966658
  0
LINE
  5
2A4
100
AcDbEntity
  8
side
  6
ByLayer
 62
  256
370
   -1
100
AcDbLine
 10
178.25
 20
8.93497680966658
 11
181.65
 21
8.93497680966658
  0
LINE
  5
2A5
100
AcDbEntity
  8
side
  6
ByLayer
 62
  256
370
   -1
100
AcDbLine
 10
181.65
 20
8.93497680966658
 11
181.65
 21
14.93497680966658
  0
LINE
  5
2A6
100
AcDbEntity
  8
side
  6
ByLayer
 62
  256
370
   -1
100
AcDbLine
 10
181.65
 20
14.93497680966658
 11
178.25
 21
14.93497680966658
  0
LINE
  5
2A7
100
AcDbEntity
  8
side
  6
ByLayer
 62
  256
370
   -1
100
AcDbLine
 10
178.25
 20
14.93497680966658
 11
178.25
 21
20.93497680966659
  0
LINE
  5
2A8
100
AcDbEntity
  8
side
  6
ByLayer
 62
  256
370
   -1
100
AcDbLine
 10
178.25
 20
20.93497680966659
 11
24.25
 21
20.93497680966659
  0
LINE
  5
2A9
100
AcDbEntity
  8
side
  6
ByLayer
 62
  256
370
   -1
100
AcDbLine
 10
20.84999999999999
 20
8.93497680966658
 11
24.25
 21
8.93497680966658
  0
LINE
  5
2AA
100
AcDbEntity
  8
side
  6
ByLayer
 62
  256
370
   -1
100
AcDbLine
 10
24.25
 20
8.93497680966658
 11
24.25
 21
2.93497680966658
  0
LINE
  5
2AB
100
AcDbEntity
  8
side
  6
ByLayer
 62
  256
370
   -1
100
AcDbLine
 10
24.25
 20
2.93497680966658
 11
20.84999999999999
 21
2.93497680966658
  0
LINE
  5
2AC
100
AcDbEntity
  8
side
  6
ByLayer
 62
  256
370
   -1
100
AcDbLine
 10
20.84999999999999
 20
2.93497680966658
 11
20.84999999999999
 21
-3.06502319033342
  0
LINE
  5
2AD
100
AcDbEntity
  8
side
  6
ByLayer
 62
  256
370
   -1
100
AcDbLine
 10
20.84999999999999
 20
-3.06502319033342
 11
26.25
 21
-3.06502319033342
  0
LINE
  5
2AE
100
AcDbEntity
  8
side
  6
ByLayer
 62
  256
370
   -1
100
AcDbLine
 10
26.25
 20
-3.06502319033342
 11
26.25
 21
-6.465023190333426
  0
LINE
  5
2AF
100
AcDbEntity
  8
side
  6
ByLayer
 62
  256
370
   -1
100
AcDbLine
 10
26.25
 20
-6.465023190333426
 11
32.25
 21
-6.465023190333426
  0
LINE
  5
2B0
100
AcDbEntity
  8
side
  6
ByLayer
 62
  256
370
   -1
100
AcDbLine
 10
32.25
 20
-6.465023190333426
 11
32.25
 21
-3.06502319033342
  0
LINE
  5
2B1
100
AcDbEntity
  8
side
  6
ByLayer
 62
  256
370
   -1
100
AcDbLine
 10
176.25
 20
-3.06502319033342
 11
181.65
 21
-3.06502319033342
  0
LINE
  5
2B2
100
AcDbEntity
  8
side
  6
ByLayer
 62
  256
370
   -1
100
AcDbLine
 10
181.65
 20
-3.06502319033342
 11
181.65
 21
2.93497680966658
  0
LINE
  5
2B3
100
AcDbEntity
  8
shelf-ref
  6
ByLayer
 62
  256
370
   -1
100
AcDbLine
 10
46.25
 20
6.514976809666578
 11
40.25
 21
6.514976809666578
  0
LINE
  5
2B4
100
AcDbEntity
  8
shelf-ref
  6
ByLayer
 62
  256
370
   -1
100
AcDbLine
 10
24.25
 20
25.93497680966658
 11
24.25
 21
15.93497680966658
  0
LINE
  5
2B5
100
AcDbEntity
  8
side
  6
ByLayer
 62
  256
370
   -1
100
AcDbLine
 10
38.25
 20
3.114976809666587
 11
32.25
 21
3.114976809666587
  0
LINE
  5
2B6
100
AcDbEntity
  8
side
  6
ByLayer
 62
  256
370
   -1
100
AcDbLine
 10
32.25
 20
3.114976809666587
 11
32.25
 21
6.514976809666578
  0
LINE
  5
2B7
100
AcDbEntity
  8
side
  6
ByLayer
 62
  256
370
   -1
100
AcDbLine
 10
32.25
 20
6.514976809666578
 11
38.25
 21
6.514976809666578
  0
LINE
  5
2B8
100
AcDbEntity
  8
side
  6
ByLayer
 62
  256
370
   -1
100
AcDbLine
 10
38.25
 20
6.514976809666578
 11
38.25
 21
3.114976809666587
  0
LINE
  5
2B9
100
AcDbEntity
  8
shelf-ref
  6
ByLayer
 62
  256
370
   -1
100
AcDbLine
 10
20.84999999999999
 20
25.93497680966658
 11
20.84999999999999
 21
15.93497680966658
  0
LINE
  5
2BA
100
AcDbEntity
  8
shelf-ref
  6
ByLayer
 62
  256
370
   -1
100
AcDbLine
 10
170.25
 20
10.93497680966658
 11
16.25
 21
10.93497680966658
  0
LINE
  5
2BB
100
AcDbEntity
  8
connector-ref
  6
ByLayer
 62
  256
370
   -1
100
AcDbLine
 10
35.25
 20
8.93497680966658
 11
35.25
 21
2.93497680966658
  0
LINE
  5
2BC
100
AcDbEntity
  8
side
  6
ByLayer
 62
  256
370
   -1
100
AcDbLine
 10
38.25
 20
9.064976809666572
 11
32.25
 21
9.064976809666572
  0
ARC
  5
2BD
100
AcDbEntity
  8
side
  6
ByLayer
 62
  256
370
   -1
100
AcDbCircle
 10
32.25
 20
10.86497680966659
 40
1.8
100
AcDbArc
 50
180
 51
270
  0
ARC
  5
2BE
100
AcDbEntity
  8
side
  6
ByLayer
 62
  256
370
   -1
100
AcDbCircle
 10
32.25
 20
11.00497680966657
 40
1.8
100
AcDbArc
 50
90
 51
180
  0
LINE
  5
2BF
100
AcDbEntity
  8
side
  6
ByLayer
 62
  256
370
   -1
100
AcDbLine
 10
30.44999999999999
 20
10.86497680966659
 11
30.44999999999999
 21
11.00497680966657
  0
LINE
  5
2C0
100
AcDbEntity
  8
side
  6
ByLayer
 62
  256
370
   -1
100
AcDbLine
 10
32.25
 20
12.80497680966658
 11
38.25
 21
12.80497680966658
  0
ARC
  5
2C1
100
AcDbEntity
  8
side
  6
ByLayer
 62
  256
370
   -1
100
AcDbCircle
 10
38.25
 20
11.00497680966657
 40
1.8
100
AcDbArc
 50
0
 51
90
  0
ARC
  5
2C2
100
AcDbEntity
  8
side
  6
ByLayer
 62
  256
370
   -1
100
AcDbCircle
 10
38.25
 20
10.86497680966659
 40
1.8
100
AcDbArc
 50
270
 51
0
  0
LINE
  5
2C3
100
AcDbEntity
  8
side
  6
ByLayer
 62
  256
370
   -1
100
AcDbLine
 10
40.05000000000001
 20
11.00497680966657
 11
40.05000000000001
 21
10.86497680966659
  0
LINE
  5
2C4
100
AcDbEntity
  8
side
  6
ByLayer
 62
  256
370
   -1
100
AcDbLine
 10
24.25
 20
16.93497680966658
 11
20.84999999999999
 21
16.93497680966658
  0
LINE
  5
2C5
100
AcDbEntity
  8
side
  6
ByLayer
 62
  256
370
   -1
100
AcDbLine
 10
20.84999999999999
 20
16.93497680966658
 11
20.84999999999999
 21
8.93497680966658
  0
LINE
  5
2C6
100
AcDbEntity
  8
side
  6
ByLayer
 62
  256
370
   -1
100
AcDbLine
 10
24.25
 20
20.93497680966659
 11
24.25
 21
16.93497680966658
  0
LINE
  5
2C7
100
AcDbEntity
  8
side
  6
ByLayer
 62
  256
370
   -1
100
AcDbLine
 10
-28.3725000000035
 20
-21.76781002638559
 11
-36.3725000000035
 21
-21.76781002638559
  0
LINE
  5
2C8
100
AcDbEntity
  8
side
  6
ByLayer
 62
  256
370
   -1
100
AcDbLine
 10
-36.3725000000035
 20
-18.36781002638559
 11
-40.37250000000361
 21
-18.36781002638559
  0
LINE
  5
2C9
100
AcDbEntity
  8
side
  6
ByLayer
 62
  256
370
   -1
100
AcDbLine
 10
-36.3725000000035
 20
-21.76781002638559
 11
-36.3725000000035
 21
-18.36781002638559
  0
LINE
  5
2CA
100
AcDbEntity
  8
top
  6
ByLayer
 62
  256
370
   -1
100
AcDbLine
 10
40.25
 20
-21.76781002638559
 11
40.25
 21
-18.36781002638559
  0
LINE
  5
2CB
100
AcDbEntity
  8
top
  6
ByLayer
 62
  256
370
   -1
100
AcDbLine
 10
138.25
 20
-18.36781002638559
 11
138.25
 21
-21.76781002638559
  0
LINE
  5
2CC
100
AcDbEntity
  8
top
  6
ByLayer
 62
  256
370
   -1
100
AcDbLine
 10
40.25
 20
-18.36781002638559
 11
32.25
 21
-18.36781002638559
  0
LINE
  5
2CD
100
AcDbEntity
  8
top
  6
ByLayer
 62
  256
370
   -1
100
AcDbLine
 10
44.25000000000003
 20
-21.76781002638559
 11
40.25
 21
-21.76781002638559
  0
LINE
  5
2CE
100
AcDbEntity
  8
side
  6
ByLayer
 62
  256
370
   -1
100
AcDbLine
 10
32.25
 20
-3.06502319033342
 11
40.25
 21
-3.06502319033342
  0
LINE
  5
2CF
100
AcDbEntity
  8
side
  6
ByLayer
 62
  256
370
   -1
100
AcDbLine
 10
40.25
 20
-3.06502319033342
 11
40.25000000000001
 21
-6.465023190333426
  0
LINE
  5
2D0
100
AcDbEntity
  8
side
  6
ByLayer
 62
  256
370
   -1
100
AcDbLine
 10
40.25000000000001
 20
-6.465023190333426
 11
44.25
 21
-6.465023190333426
  0
LINE
  5
2D1
100
AcDbEntity
  8
side
  6
ByLayer
 62
  256
370
   -1
100
AcDbLine
 10
134.25
 20
-6.465023190333426
 11
138.25
 21
-6.465023190333426
  0
LINE
  5
2D2
100
AcDbEntity
  8
side
  6
ByLayer
 62
  256
370
   -1
100
AcDbLine
 10
138.25
 20
-6.465023190333426
 11
138.25
 21
-3.06502319033342
  0
LINE
  5
2D3
100
AcDbEntity
  8
side
  6
ByLayer
 62
  256
370
   -1
100
AcDbLine
 10
138.25
 20
-3.06502319033342
 11
146.25
 21
-3.06502319033342
  0
LINE
  5
2D4
100
AcDbEntity
  8
top
  6
ByLayer
 62
  256
370
   -1
100
AcDbLine
 10
146.25
 20
-18.36781002638559
 11
138.25
 21
-18.36781002638559
  0
LINE
  5
2D5
100
AcDbEntity
  8
top
  6
ByLayer
 62
  256
370
   -1
100
AcDbLine
 10
138.25
 20
-21.76781002638559
 11
134.25
 21
-21.76781002638559
  0
LINE
  5
2D6
100
AcDbEntity
  8
holder-end2
  6
ByLayer
 62
  256
370
   -1
100
AcDbLine
 10
400.279429064773
 20
172.0593291498377
 11
400.279429064773
 21
175.4593291498377
  0
LINE
  5
2D7
100
AcDbEntity
  8
holder-end2
  6
ByLayer
 62
  256
370
   -1
100
AcDbLine
 10
400.279429064773
 20
175.4593291498377
 11
403.925220634839
 21
175.4593291498377
  0
LINE
  5
2D8
100
AcDbEntity
  8
holder-end2
  6
ByLayer
 62
  256
370
   -1
100
AcDbLine
 10
403.925220634839
 20
172.0593291498377
 11
406.7781593808418
 21
172.0593291498377
  0
LINE
  5
2D9
100
AcDbEntity
  8
holder-end2
  6
ByLayer
 62
  256
370
   -1
100
AcDbLine
 10
403.925220634839
 20
175.4593291498377
 11
403.925220634839
 21
172.0593291498377
  0
LINE
  5
2DA
100
AcDbEntity
  8
holder-end2
  6
ByLayer
 62
  256
370
   -1
100
AcDbLine
 10
393.37452810395
 20
172.0593291498377
 11
400.279429064773
 21
172.0593291498377
  0
LINE
  5
2DB
100
AcDbEntity
  8
holder-end2
  6
ByLayer
 62
  256
370
   -1
100
AcDbLine
 10
392.6888737507629
 20
168.1707900820677
 11
393.37452810395
 21
172.0593291498377
  0
LINE
  5
2DC
100
AcDbEntity
  8
holder-end2
  6
ByLayer
 62
  256
370
   -1
100
AcDbLine
 10
398.8646219382453
 20
164.0355592148961
 11
392.1679292177623
 21
165.2163668230311
  0
LINE
  5
2DD
100
AcDbEntity
  8
holder-end2
  6
ByLayer
 62
  256
370
   -1
100
AcDbLine
 10
398.8646219382453
 20
164.0355592148961
 11
399.3855664712461
 21
166.9899824739327
  0
LINE
  5
2DE
100
AcDbEntity
  8
holder-end2
  6
ByLayer
 62
  256
370
   -1
100
AcDbLine
 10
392.6888737507629
 20
168.1707900820677
 11
399.3855664712461
 21
166.9899824739327
  0
LINE
  5
2DF
100
AcDbEntity
  8
holder-end2
  6
ByLayer
 62
  256
370
   -1
100
AcDbLine
 10
391.6469846847616
 20
162.2619435639946
 11
392.1679292177624
 21
165.2163668230311
  0
LINE
  5
2E0
100
AcDbEntity
  8
holder-end2
  6
ByLayer
 62
  256
370
   -1
100
AcDbLine
 10
401.2981006642813
 20
160.5601914228587
 11
391.6469846847616
 21
162.2619435639946
  0
LINE
  5
2E1
100
AcDbEntity
  8
top
  6
ByLayer
 62
  256
370
   -1
100
AcDbLine
 10
52.85000000000002
 20
-42.91781002638559
 11
49.45
 21
-42.91781002638559
  0
LINE
  5
2E2
100
AcDbEntity
  8
top
  6
ByLayer
 62
  256
370
   -1
100
AcDbLine
 10
52.85000000000002
 20
-42.91781002638559
 11
52.85000000000002
 21
-46.31781002638559
  0
LINE
  5
2E3
100
AcDbEntity
  8
top
  6
ByLayer
 62
  256
370
   -1
100
AcDbLine
 10
56.25
 20
-39.26781002638559
 11
49.45
 21
-39.26781002638559
  0
LINE
  5
2E4
100
AcDbEntity
  8
top
  6
ByLayer
 62
  256
370
   -1
100
AcDbLine
 10
49.45
 20
-42.91781002638559
 11
49.45
 21
-39.26781002638559
  0
LINE
  5
2E5
100
AcDbEntity
  8
holder-back
  6
ByLayer
 62
  256
370
   -1
100
AcDbLine
 10
56.24999999999997
 20
78.12725000000441
 11
62.24999999999997
 21
78.12725000000441
  0
LINE
  5
2E6
100
AcDbEntity
  8
holder-back
  6
ByLayer
 62
  256
370
   -1
100
AcDbLine
 10
62.24999999999997
 20
78.12725000000441
 11
62.24999999999997
 21
81.57975000000444
  0
LINE
  5
2E7
100
AcDbEntity
  8
holder-back
  6
ByLayer
 62
  256
370
   -1
100
AcDbLine
 10
62.24999999999997
 20
81.57975000000444
 11
68.24999999999997
 21
81.57975000000444
  0
LINE
  5
2E8
100
AcDbEntity
  8
holder-back
  6
ByLayer
 62
  256
370
   -1
100
AcDbLine
 10
68.24999999999997
 20
81.57975000000444
 11
68.24999999999997
 21
78.12725000000441
  0
LINE
  5
2E9
100
AcDbEntity
  8
holder-back
  6
ByLayer
 62
  256
370
   -1
100
AcDbLine
 10
68.24999999999997
 20
78.12725000000441
 11
74.24999999999997
 21
78.12725000000441
  0
LINE
  5
2EA
100
AcDbEntity
  8
holder-back
  6
ByLayer
 62
  256
370
   -1
100
AcDbLine
 10
74.24999999999997
 20
78.12725000000441
 11
74.24999999999997
 21
81.57975000000444
  0
LINE
  5
2EB
100
AcDbEntity
  8
holder-back
  6
ByLayer
 62
  256
370
   -1
100
AcDbLine
 10
74.24999999999997
 20
81.57975000000444
 11
80.24999999999997
 21
81.57975000000444
  0
LINE
  5
2EC
100
AcDbEntity
  8
holder-back
  6
ByLayer
 62
  256
370
   -1
100
AcDbLine
 10
80.24999999999997
 20
81.57975000000444
 11
80.24999999999997
 21
78.12725000000441
  0
LINE
  5
2ED
100
AcDbEntity
  8
holder-back
  6
ByLayer
 62
  256
370
   -1
100
AcDbLine
 10
80.24999999999997
 20
78.12725000000441
 11
86.24999999999997
 21
78.12725000000441
  0
LINE
  5
2EE
100
AcDbEntity
  8
holder-back
  6
ByLayer
 62
  256
370
   -1
100
AcDbLine
 10
86.24999999999997
 20
78.12725000000441
 11
86.24999999999997
 21
81.57975000000444
  0
LINE
  5
2EF
100
AcDbEntity
  8
holder-back
  6
ByLayer
 62
  256
370
   -1
100
AcDbLine
 10
86.24999999999997
 20
81.57975000000444
 11
92.24999999999997
 21
81.57975000000444
  0
LINE
  5
2F0
100
AcDbEntity
  8
holder-back
  6
ByLayer
 62
  256
370
   -1
100
AcDbLine
 10
92.24999999999997
 20
81.57975000000444
 11
92.24999999999997
 21
78.12725000000441
  0
LINE
  5
2F1
100
AcDbEntity
  8
holder-back
  6
ByLayer
 62
  256
370
   -1
100
AcDbLine
 10
110.25
 20
78.12725000000441
 11
110.25
 21
81.57975000000444
  0
LINE
  5
2F2
100
AcDbEntity
  8
holder-back
  6
ByLayer
 62
  256
370
   -1
100
AcDbLine
 10
110.25
 20
81.57975000000444
 11
116.25
 21
81.57975000000444
  0
LINE
  5
2F3
100
AcDbEntity
  8
holder-back
  6
ByLayer
 62
  256
370
   -1
100
AcDbLine
 10
116.25
 20
81.57975000000444
 11
116.25
 21
78.12725000000441
  0
LINE
  5
2F4
100
AcDbEntity
  8
holder-back
  6
ByLayer
 62
  256
370
   -1
100
AcDbLine
 10
116.25
 20
78.12725000000441
 11
122.25
 21
78.12725000000441
  0
LINE
  5
2F5
100
AcDbEntity
  8
holder-back
  6
ByLayer
 62
  256
370
   -1
100
AcDbLine
 10
122.25
 20
78.12725000000441
 11
122.25
 21
81.57975000000444
  0
LINE
  5
2F6
100
AcDbEntity
  8
holder-back
  6
ByLayer
 62
  256
370
   -1
100
AcDbLine
 10
122.25
 20
81.57975000000444
 11
128.25
 21
81.57975000000444
  0
LINE
  5
2F7
100
AcDbEntity
  8
holder-back
  6
ByLayer
 62
  256
370
   -1
100
AcDbLine
 10
128.25
 20
81.57975000000444
 11
128.25
 21
78.12725000000441
  0
LINE
  5
2F8
100
AcDbEntity
  8
holder-back
  6
ByLayer
 62
  256
370
   -1
100
AcDbLine
 10
128.25
 20
78.12725000000441
 11
134.25
 21
78.12725000000441
  0
LINE
  5
2F9
100
AcDbEntity
  8
holder-back
  6
ByLayer
 62
  256
370
   -1
100
AcDbLine
 10
134.25
 20
78.12725000000441
 11
134.25
 21
81.57975000000444
  0
LINE
  5
2FA
100
AcDbEntity
  8
holder-back
  6
ByLayer
 62
  256
370
   -1
100
AcDbLine
 10
134.25
 20
81.57975000000444
 11
140.25
 21
81.57975000000444
  0
LINE
  5
2FB
100
AcDbEntity
  8
holder-back
  6
ByLayer
 62
  256
370
   -1
100
AcDbLine
 10
140.25
 20
81.57975000000444
 11
140.25
 21
78.12725000000441
  0
LINE
  5
2FC
100
AcDbEntity
  8
holder-back
  6
ByLayer
 62
  256
370
   -1
100
AcDbLine
 10
140.25
 20
78.12725000000441
 11
146.25
 21
78.12725000000441
  0
LINE
  5
2FD
100
AcDbEntity
  8
holder-back
  6
ByLayer
 62
  256
370
   -1
100
AcDbLine
 10
146.25
 20
78.12725000000441
 11
146.25
 21
81.57975000000444
  0
LINE
  5
2FE
100
AcDbEntity
  8
holder-back
  6
ByLayer
 62
  256
370
   -1
100
AcDbLine
 10
146.25
 20
81.57975000000444
 11
149.65
 21
81.57975000000444
  0
LINE
  5
2FF
100
AcDbEntity
  8
holder-back
  6
ByLayer
 62
  256
370
   -1
100
AcDbLine
 10
149.65
 20
81.57975000000444
 11
149.65
 21
84.25625000000439
  0
LINE
  5
300
100
AcDbEntity
  8
holder-back
  6
ByLayer
 62
  256
370
   -1
100
AcDbLine
 10
106.25
 20
78.12725000000441
 11
110.25
 21
78.12725000000441
  0
LINE
  5
301
100
AcDbEntity
  8
holder-back
  6
ByLayer
 62
  256
370
   -1
100
AcDbLine
 10
106.25
 20
81.57975000000444
 11
106.25
 21
78.12725000000441
  0
LINE
  5
302
100
AcDbEntity
  8
holder-back
  6
ByLayer
 62
  256
370
   -1
100
AcDbLine
 10
96.24999999999997
 20
81.57975000000444
 11
106.25
 21
81.57975000000444
  0
LINE
  5
303
100
AcDbEntity
  8
holder-back
  6
ByLayer
 62
  256
370
   -1
100
AcDbLine
 10
92.24999999999997
 20
78.12725000000441
 11
96.24999999999997
 21
78.12725000000441
  0
LINE
  5
304
100
AcDbEntity
  8
holder-back
  6
ByLayer
 62
  256
370
   -1
100
AcDbLine
 10
96.24999999999997
 20
78.12725000000441
 11
96.24999999999997
 21
81.57975000000444
  0
LINE
  5
305
100
AcDbEntity
  8
holder-back
  6
ByLayer
 62
  256
370
   -1
100
AcDbLine
 10
56.24999999999997
 20
78.12725000000441
 11
56.24999999999997
 21
81.57975000000444
  0
LINE
  5
306
100
AcDbEntity
  8
holder-back
  6
ByLayer
 62
  256
370
   -1
100
AcDbLine
 10
56.24999999999997
 20
81.57975000000444
 11
52.84999999999997
 21
81.57975000000444
  0
LINE
  5
307
100
AcDbEntity
  8
holder-back
  6
ByLayer
 62
  256
370
   -1
100
AcDbLine
 10
52.84999999999997
 20
81.57975000000444
 11
52.84999999999997
 21
84.25625000000439
  0
LINE
  5
308
100
AcDbEntity
  8
holder-front
  6
ByLayer
 62
  256
370
   -1
100
AcDbLine
 10
49.44999999999999
 20
137.952
 11
52.84999999999999
 21
137.952
  0
LINE
  5
309
100
AcDbEntity
  8
holder-front
  6
ByLayer
 62
  256
370
   -1
100
AcDbLine
 10
149.65
 20
143.9519999999999
 11
153.05
 21
143.9519999999999
  0
LINE
  5
30A
100
AcDbEntity
  8
holder-front
  6
ByLayer
 62
  256
370
   -1
100
AcDbLine
 10
153.05
 20
143.9519999999999
 11
153.05
 21
140.9519999999999
  0
LINE
  5
30B
100
AcDbEntity
  8
holder-front
  6
ByLayer
 62
  256
370
   -1
100
AcDbLine
 10
153.05
 20
140.9519999999999
 11
149.65
 21
140.9519999999999
  0
LINE
  5
30C
100
AcDbEntity
  8
holder-front
  6
ByLayer
 62
  256
370
   -1
100
AcDbLine
 10
149.65
 20
140.9519999999999
 11
149.65
 21
137.9519999999999
  0
LINE
  5
30D
100
AcDbEntity
  8
holder-front
  6
ByLayer
 62
  256
370
   -1
100
AcDbLine
 10
149.65
 20
137.9519999999999
 11
153.05
 21
137.9519999999999
  0
LINE
  5
30E
100
AcDbEntity
  8
holder-front
  6
ByLayer
 62
  256
370
   -1
100
AcDbLine
 10
153.05
 20
137.9519999999999
 11
153.05
 21
134.9519999999999
  0
LINE
  5
30F
100
AcDbEntity
  8
holder-front
  6
ByLayer
 62
  256
370
   -1
100
AcDbLine
 10
56.25
 20
148.9
 11
56.25
 21
145.5
  0
LINE
  5
310
100
AcDbEntity
  8
holder-front
  6
ByLayer
 62
  256
370
   -1
100
AcDbLine
 10
68.25
 20
148.9
 11
68.25
 21
145.5
  0
LINE
  5
311
100
AcDbEntity
  8
holder-front
  6
ByLayer
 62
  256
370
   -1
100
AcDbLine
 10
68.25
 20
145.5
 11
74.25
 21
145.5
  0
LINE
  5
312
100
AcDbEntity
  8
holder-front
  6
ByLayer
 62
  256
370
   -1
100
AcDbLine
 10
74.25
 20
145.5
 11
74.25
 21
148.9
  0
LINE
  5
313
100
AcDbEntity
  8
holder-front
  6
ByLayer
 62
  256
370
   -1
100
AcDbLine
 10
74.25
 20
148.9
 11
80.25
 21
148.9
  0
LINE
  5
314
100
AcDbEntity
  8
holder-front
  6
ByLayer
 62
  256
370
   -1
100
AcDbLine
 10
80.25
 20
148.9
 11
80.25
 21
145.5
  0
LINE
  5
315
100
AcDbEntity
  8
holder-front
  6
ByLayer
 62
  256
370
   -1
100
AcDbLine
 10
80.25
 20
145.5
 11
86.25
 21
145.5
  0
LINE
  5
316
100
AcDbEntity
  8
holder-front
  6
ByLayer
 62
  256
370
   -1
100
AcDbLine
 10
86.25
 20
145.5
 11
86.25
 21
148.9
  0
LINE
  5
317
100
AcDbEntity
  8
holder-front
  6
ByLayer
 62
  256
370
   -1
100
AcDbLine
 10
86.25
 20
148.9
 11
92.25
 21
148.9
  0
LINE
  5
318
100
AcDbEntity
  8
holder-front
  6
ByLayer
 62
  256
370
   -1
100
AcDbLine
 10
92.25
 20
148.9
 11
92.25
 21
145.5
  0
LINE
  5
319
100
AcDbEntity
  8
holder-front
  6
ByLayer
 62
  256
370
   -1
100
AcDbLine
 10
92.25
 20
145.5
 11
98.25
 21
145.5
  0
LINE
  5
31A
100
AcDbEntity
  8
holder-front
  6
ByLayer
 62
  256
370
   -1
100
AcDbLine
 10
98.25
 20
145.5
 11
98.25
 21
148.9
  0
LINE
  5
31B
100
AcDbEntity
  8
holder-front
  6
ByLayer
 62
  256
370
   -1
100
AcDbLine
 10
98.25
 20
148.9
 11
104.25
 21
148.9
  0
LINE
  5
31C
100
AcDbEntity
  8
holder-front
  6
ByLayer
 62
  256
370
   -1
100
AcDbLine
 10
104.25
 20
148.9
 11
104.25
 21
145.5
  0
LINE
  5
31D
100
AcDbEntity
  8
holder-front
  6
ByLayer
 62
  256
370
   -1
100
AcDbLine
 10
104.25
 20
145.5
 11
110.25
 21
145.5
  0
LINE
  5
31E
100
AcDbEntity
  8
holder-front
  6
ByLayer
 62
  256
370
   -1
100
AcDbLine
 10
110.25
 20
145.5
 11
110.25
 21
148.9
  0
LINE
  5
31F
100
AcDbEntity
  8
holder-front
  6
ByLayer
 62
  256
370
   -1
100
AcDbLine
 10
110.25
 20
148.9
 11
116.25
 21
148.9
  0
LINE
  5
320
100
AcDbEntity
  8
holder-front
  6
ByLayer
 62
  256
370
   -1
100
AcDbLine
 10
116.25
 20
148.9
 11
116.25
 21
145.5
  0
LINE
  5
321
100
AcDbEntity
  8
holder-front
  6
ByLayer
 62
  256
370
   -1
100
AcDbLine
 10
116.25
 20
145.5
 11
122.25
 21
145.5
  0
LINE
  5
322
100
AcDbEntity
  8
holder-front
  6
ByLayer
 62
  256
370
   -1
100
AcDbLine
 10
122.25
 20
145.5
 11
122.25
 21
148.9
  0
LINE
  5
323
100
AcDbEntity
  8
holder-front
  6
ByLayer
 62
  256
370
   -1
100
AcDbLine
 10
122.25
 20
148.9
 11
128.25
 21
148.9
  0
LINE
  5
324
100
AcDbEntity
  8
holder-front
  6
ByLayer
 62
  256
370
   -1
100
AcDbLine
 10
128.25
 20
148.9
 11
128.25
 21
145.5
  0
LINE
  5
325
100
AcDbEntity
  8
holder-front
  6
ByLayer
 62
  256
370
   -1
100
AcDbLine
 10
128.25
 20
145.5
 11
134.25
 21
145.5
  0
LINE
  5
326
100
AcDbEntity
  8
holder-front
  6
ByLayer
 62
  256
370
   -1
100
AcDbLine
 10
134.25
 20
145.5
 11
134.25
 21
148.8999999999999
  0
LINE
  5
327
100
AcDbEntity
  8
holder-front
  6
ByLayer
 62
  256
370
   -1
100
AcDbLine
 10
134.25
 20
148.8999999999999
 11
140.25
 21
148.8999999999999
  0
LINE
  5
328
100
AcDbEntity
  8
holder-front
  6
ByLayer
 62
  256
370
   -1
100
AcDbLine
 10
140.25
 20
148.8999999999999
 11
140.25
 21
145.5
  0
LINE
  5
329
100
AcDbEntity
  8
holder-front
  6
ByLayer
 62
  256
370
   -1
100
AcDbLine
 10
140.25
 20
145.5
 11
146.25
 21
145.5
  0
LINE
  5
32A
100
AcDbEntity
  8
holder-front
  6
ByLayer
 62
  256
370
   -1
100
AcDbLine
 10
146.25
 20
145.5
 11
146.25
 21
148.8999999999999
  0
LINE
  5
32B
100
AcDbEntity
  8
holder-front
  6
ByLayer
 62
  256
370
   -1
100
AcDbLine
 10
52.84999999999999
 20
148.9
 11
56.25
 21
148.9
  0
LINE
  5
32C
100
AcDbEntity
  8
holder-front
  6
ByLayer
 62
  256
370
   -1
100
AcDbLine
 10
146.25
 20
148.8999999999999
 11
149.65
 21
148.8999999999999
  0
LINE
  5
32D
100
AcDbEntity
  8
holder-front
  6
ByLayer
 62
  256
370
   -1
100
AcDbLine
 10
149.65
 20
148.8999999999999
 11
149.65
 21
143.9519999999999
  0
LINE
  5
32E
100
AcDbEntity
  8
holder-back
  6
ByLayer
 62
  256
370
   -1
100
AcDbLine
 10
52.84999999999997
 20
84.25625000000439
 11
49.44999999999996
 21
84.25625000000439
  0
LINE
  5
32F
100
AcDbEntity
  8
holder-back
  6
ByLayer
 62
  256
370
   -1
100
AcDbLine
 10
49.44999999999996
 20
84.25625000000439
 11
49.44999999999996
 21
87.25625000000439
  0
LINE
  5
330
100
AcDbEntity
  8
holder-back
  6
ByLayer
 62
  256
370
   -1
100
AcDbLine
 10
49.44999999999996
 20
87.25625000000439
 11
52.84999999999997
 21
87.25625000000439
  0
LINE
  5
331
100
AcDbEntity
  8
holder-back
  6
ByLayer
 62
  256
370
   -1
100
AcDbLine
 10
52.84999999999997
 20
87.25625000000439
 11
52.84999999999997
 21
90.25625000000439
  0
LINE
  5
332
100
AcDbEntity
  8
holder-back
  6
ByLayer
 62
  256
370
   -1
100
AcDbLine
 10
52.84999999999997
 20
90.25625000000439
 11
49.44999999999996
 21
90.25625000000439
  0
LINE
  5
333
100
AcDbEntity
  8
holder-back
  6
ByLayer
 62
  256
370
   -1
100
AcDbLine
 10
49.44999999999996
 20
90.25625000000439
 11
49.44999999999996
 21
93.25625000000441
  0
LINE
  5
334
100
AcDbEntity
  8
holder-back
  6
ByLayer
 62
  256
370
   -1
100
AcDbLine
 10
49.44999999999996
 20
93.25625000000441
 11
153.05
 21
93.25625000000441
  0
LINE
  5
335
100
AcDbEntity
  8
holder-back
  6
ByLayer
 62
  256
370
   -1
100
AcDbLine
 10
153.05
 20
93.25625000000441
 11
153.05
 21
90.25625000000439
  0
LINE
  5
336
100
AcDbEntity
  8
holder-back
  6
ByLayer
 62
  256
370
   -1
100
AcDbLine
 10
153.05
 20
90.25625000000439
 11
149.65
 21
90.25625000000439
  0
LINE
  5
337
100
AcDbEntity
  8
holder-back
  6
ByLayer
 62
  256
370
   -1
100
AcDbLine
 10
149.65
 20
90.25625000000439
 11
149.65
 21
87.25625000000439
  0
LINE
  5
338
100
AcDbEntity
  8
holder-back
  6
ByLayer
 62
  256
370
   -1
100
AcDbLine
 10
149.65
 20
87.25625000000439
 11
153.05
 21
87.25625000000439
  0
LINE
  5
339
100
AcDbEntity
  8
holder-back
  6
ByLayer
 62
  256
370
   -1
100
AcDbLine
 10
153.05
 20
87.25625000000439
 11
153.05
 21
84.25625000000439
  0
LINE
  5
33A
100
AcDbEntity
  8
holder-back
  6
ByLayer
 62
  256
370
   -1
100
AcDbLine
 10
153.05
 20
84.25625000000439
 11
149.65
 21
84.25625000000439
  0
LINE
  5
33B
100
AcDbEntity
  8
holder-front2
  6
ByLayer
 62
  256
370
   -1
100
AcDbLine
 10
56.25
 20
117.8275387643503
 11
56.24999999999997
 21
114.4275387643502
  0
LINE
  5
33C
100
AcDbEntity
  8
holder-front2
  6
ByLayer
 62
  256
370
   -1
100
AcDbLine
 10
56.24999999999997
 20
114.4275387643502
 11
62.24999999999997
 21
114.4275387643502
  0
LINE
  5
33D
100
AcDbEntity
  8
holder-front2
  6
ByLayer
 62
  256
370
   -1
100
AcDbLine
 10
62.24999999999997
 20
114.4275387643502
 11
62.25
 21
117.8275387643503
  0
LINE
  5
33E
100
AcDbEntity
  8
holder-front2
  6
ByLayer
 62
  256
370
   -1
100
AcDbLine
 10
62.25
 20
117.8275387643503
 11
68.25
 21
117.8275387643503
  0
LINE
  5
33F
100
AcDbEntity
  8
holder-front2
  6
ByLayer
 62
  256
370
   -1
100
AcDbLine
 10
68.25
 20
117.8275387643503
 11
68.24999999999997
 21
114.4275387643502
  0
LINE
  5
340
100
AcDbEntity
  8
holder-front2
  6
ByLayer
 62
  256
370
   -1
100
AcDbLine
 10
68.24999999999997
 20
114.4275387643502
 11
74.24999999999997
 21
114.4275387643502
  0
LINE
  5
341
100
AcDbEntity
  8
holder-front2
  6
ByLayer
 62
  256
370
   -1
100
AcDbLine
 10
74.24999999999997
 20
114.4275387643502
 11
74.25
 21
117.8275387643502
  0
LINE
  5
342
100
AcDbEntity
  8
holder-front2
  6
ByLayer
 62
  256
370
   -1
100
AcDbLine
 10
74.25
 20
117.8275387643502
 11
80.25
 21
117.8275387643502
  0
LINE
  5
343
100
AcDbEntity
  8
holder-front2
  6
ByLayer
 62
  256
370
   -1
100
AcDbLine
 10
80.25
 20
117.8275387643502
 11
80.24999999999997
 21
114.4275387643502
  0
LINE
  5
344
100
AcDbEntity
  8
holder-front2
  6
ByLayer
 62
  256
370
   -1
100
AcDbLine
 10
80.24999999999997
 20
114.4275387643502
 11
86.24999999999997
 21
114.4275387643502
  0
LINE
  5
345
100
AcDbEntity
  8
holder-front2
  6
ByLayer
 62
  256
370
   -1
100
AcDbLine
 10
86.24999999999997
 20
114.4275387643502
 11
86.25
 21
117.8275387643502
  0
LINE
  5
346
100
AcDbEntity
  8
holder-front2
  6
ByLayer
 62
  256
370
   -1
100
AcDbLine
 10
86.25
 20
117.8275387643502
 11
92.25
 21
117.8275387643502
  0
LINE
  5
347
100
AcDbEntity
  8
holder-front2
  6
ByLayer
 62
  256
370
   -1
100
AcDbLine
 10
92.25
 20
117.8275387643502
 11
92.24999999999997
 21
114.4275387643502
  0
LINE
  5
348
100
AcDbEntity
  8
holder-front2
  6
ByLayer
 62
  256
370
   -1
100
AcDbLine
 10
92.24999999999997
 20
114.4275387643502
 11
98.24999999999997
 21
114.4275387643502
  0
LINE
  5
349
100
AcDbEntity
  8
holder-front2
  6
ByLayer
 62
  256
370
   -1
100
AcDbLine
 10
98.24999999999997
 20
114.4275387643502
 11
98.25
 21
117.8275387643502
  0
LINE
  5
34A
100
AcDbEntity
  8
holder-front2
  6
ByLayer
 62
  256
370
   -1
100
AcDbLine
 10
98.25
 20
117.8275387643502
 11
104.25
 21
117.8275387643502
  0
LINE
  5
34B
100
AcDbEntity
  8
holder-front2
  6
ByLayer
 62
  256
370
   -1
100
AcDbLine
 10
104.25
 20
117.8275387643502
 11
104.25
 21
114.4275387643502
  0
LINE
  5
34C
100
AcDbEntity
  8
holder-front2
  6
ByLayer
 62
  256
370
   -1
100
AcDbLine
 10
104.25
 20
114.4275387643502
 11
110.25
 21
114.4275387643502
  0
LINE
  5
34D
100
AcDbEntity
  8
holder-front2
  6
ByLayer
 62
  256
370
   -1
100
AcDbLine
 10
110.25
 20
114.4275387643502
 11
110.25
 21
117.8275387643502
  0
LINE
  5
34E
100
AcDbEntity
  8
holder-front2
  6
ByLayer
 62
  256
370
   -1
100
AcDbLine
 10
110.25
 20
117.8275387643502
 11
116.25
 21
117.8275387643502
  0
LINE
  5
34F
100
AcDbEntity
  8
holder-front2
  6
ByLayer
 62
  256
370
   -1
100
AcDbLine
 10
116.25
 20
117.8275387643502
 11
116.25
 21
114.4275387643502
  0
LINE
  5
350
100
AcDbEntity
  8
holder-front2
  6
ByLayer
 62
  256
370
   -1
100
AcDbLine
 10
116.25
 20
114.4275387643502
 11
122.25
 21
114.4275387643502
  0
LINE
  5
351
100
AcDbEntity
  8
holder-front2
  6
ByLayer
 62
  256
370
   -1
100
AcDbLine
 10
122.25
 20
114.4275387643502
 11
122.25
 21
117.8275387643502
  0
LINE
  5
352
100
AcDbEntity
  8
holder-front2
  6
ByLayer
 62
  256
370
   -1
100
AcDbLine
 10
122.25
 20
117.8275387643502
 11
128.25
 21
117.8275387643502
  0
LINE
  5
353
100
AcDbEntity
  8
holder-front2
  6
ByLayer
 62
  256
370
   -1
100
AcDbLine
 10
128.25
 20
117.8275387643502
 11
128.25
 21
114.4275387643502
  0
LINE
  5
354
100
AcDbEntity
  8
holder-front2
  6
ByLayer
 62
  256
370
   -1
100
AcDbLine
 10
128.25
 20
114.4275387643502
 11
134.25
 21
114.4275387643502
  0
LINE
  5
355
100
AcDbEntity
  8
holder-front2
  6
ByLayer
 62
  256
370
   -1
100
AcDbLine
 10
134.25
 20
114.4275387643502
 11
134.25
 21
117.8275387643502
  0
LINE
  5
356
100
AcDbEntity
  8
holder-front2
  6
ByLayer
 62
  256
370
   -1
100
AcDbLine
 10
134.25
 20
117.8275387643502
 11
140.25
 21
117.8275387643502
  0
LINE
  5
357
100
AcDbEntity
  8
holder-front2
  6
ByLayer
 62
  256
370
   -1
100
AcDbLine
 10
140.25
 20
117.8275387643502
 11
140.25
 21
114.4275387643502
  0
LINE
  5
358
100
AcDbEntity
  8
holder-front2
  6
ByLayer
 62
  256
370
   -1
100
AcDbLine
 10
140.25
 20
114.4275387643502
 11
146.25
 21
114.4275387643502
  0
LINE
  5
359
100
AcDbEntity
  8
holder-front2
  6
ByLayer
 62
  256
370
   -1
100
AcDbLine
 10
146.25
 20
114.4275387643502
 11
146.25
 21
117.8275387643502
  0
LINE
  5
35A
100
AcDbEntity
  8
holder-front2
  6
ByLayer
 62
  256
370
   -1
100
AcDbLine
 10
146.25
 20
117.8275387643502
 11
149.65
 21
117.8275387643502
  0
LINE
  5
35B
100
AcDbEntity
  8
holder-front2
  6
ByLayer
 62
  256
370
   -1
100
AcDbLine
 10
149.65
 20
117.8275387643502
 11
149.65
 21
120.8275387643502
  0
LINE
  5
35C
100
AcDbEntity
  8
holder-front2
  6
ByLayer
 62
  256
370
   -1
100
AcDbLine
 10
149.65
 20
120.8275387643502
 11
153.05
 21
120.8275387643502
  0
LINE
  5
35D
100
AcDbEntity
  8
holder-front2
  6
ByLayer
 62
  256
370
   -1
100
AcDbLine
 10
153.05
 20
120.8275387643502
 11
153.05
 21
123.8275387643502
  0
LINE
  5
35E
100
AcDbEntity
  8
holder-front2
  6
ByLayer
 62
  256
370
   -1
100
AcDbLine
 10
153.05
 20
123.8275387643502
 11
149.65
 21
123.8275387643502
  0
LINE
  5
35F
100
AcDbEntity
  8
holder-front2
  6
ByLayer
 62
  256
370
   -1
100
AcDbLine
 10
149.65
 20
123.8275387643502
 11
149.65
 21
126.8275387643502
  0
LINE
  5
360
100
AcDbEntity
  8
holder-front2
  6
ByLayer
 62
  256
370
   -1
100
AcDbLine
 10
56.25
 20
117.8275387643503
 11
49.44999999999999
 21
117.8275387643503
  0
LINE
  5
361
100
AcDbEntity
  8
holder-front
  6
ByLayer
 62
  256
370
   -1
100
AcDbLine
 10
52.84999999999999
 20
140.952
 11
52.84999999999999
 21
148.9
  0
LINE
  5
362
100
AcDbEntity
  8
holder-front
  6
ByLayer
 62
  256
370
   -1
100
AcDbLine
 10
49.44999999999999
 20
137.952
 11
49.44999999999999
 21
140.952
  0
LINE
  5
363
100
AcDbEntity
  8
holder-front
  6
ByLayer
 62
  256
370
   -1
100
AcDbLine
 10
52.84999999999999
 20
140.952
 11
49.44999999999999
 21
140.952
  0
LINE
  5
364
100
AcDbEntity
  8
holder-front
  6
ByLayer
 62
  256
370
   -1
100
AcDbLine
 10
52.85
 20
137.952
 11
52.85
 21
134.952
  0
LINE
  5
365
100
AcDbEntity
  8
holder-front
  6
ByLayer
 62
  256
370
   -1
100
AcDbLine
 10
153.05
 20
134.9519999999999
 11
52.85
 21
134.952
  0
LINE
  5
366
100
AcDbEntity
  8
holder-front2
  6
ByLayer
 62
  256
370
   -1
100
AcDbLine
 10
149.65
 20
126.8275387643502
 11
49.44999999999999
 21
126.8275387643503
  0
LINE
  5
367
100
AcDbEntity
  8
holder-front2
  6
ByLayer
 62
  256
370
   -1
100
AcDbLine
 10
52.85
 20
123.8275387643502
 11
52.85
 21
120.8275387643502
  0
LINE
  5
368
100
AcDbEntity
  8
holder-front2
  6
ByLayer
 62
  256
370
   -1
100
AcDbLine
 10
52.85
 20
120.8275387643502
 11
49.45
 21
120.8275387643502
  0
LINE
  5
369
100
AcDbEntity
  8
holder-front2
  6
ByLayer
 62
  256
370
   -1
100
AcDbLine
 10
49.44999999999999
 20
120.8275387643502
 11
49.44999999999999
 21
117.8275387643503
  0
LINE
  5
36A
100
AcDbEntity
  8
holder-front2
  6
ByLayer
 62
  256
370
   -1
100
AcDbLine
 10
49.44999999999999
 20
126.8275387643503
 11
49.44999999999999
 21
123.8275387643502
  0
LINE
  5
36B
100
AcDbEntity
  8
holder-front2
  6
ByLayer
 62
  256
370
   -1
100
AcDbLine
 10
49.44999999999999
 20
123.8275387643502
 11
52.85
 21
123.8275387643502
  0
LINE
  5
36C
100
AcDbEntity
  8
holder-front
  6
ByLayer
 62
  256
370
   -1
100
AcDbLine
 10
64.25
 20
145.5
 11
64.25
 21
148.9
  0
LINE
  5
36D
100
AcDbEntity
  8
top
  6
ByLayer
 62
  256
370
   -1
100
AcDbLine
 10
56.25
 20
-42.91781002638559
 11
64.25
 21
-42.91781002638559
  0
LINE
  5
36E
100
AcDbEntity
  8
top
  6
ByLayer
 62
  256
370
   -1
100
AcDbLine
 10
64.25
 20
-46.31781002638559
 11
68.25
 21
-46.31781002638559
  0
LINE
  5
36F
100
AcDbEntity
  8
top
  6
ByLayer
 62
  256
370
   -1
100
AcDbLine
 10
64.25
 20
-42.91781002638559
 11
64.25
 21
-46.31781002638559
  0
LINE
  5
370
100
AcDbEntity
  8
holder-front
  6
ByLayer
 62
  256
370
   -1
100
AcDbLine
 10
56.25
 20
145.5
 11
64.25
 21
145.5
  0
LINE
  5
371
100
AcDbEntity
  8
holder-front
  6
ByLayer
 62
  256
370
   -1
100
AcDbLine
 10
64.25
 20
148.9
 11
68.25
 21
148.9
  0
ENDSEC
  0
SECTION
  2
OBJECTS
  0
DICTIONARY
  5
C
330
0
100
AcDbDictionary
281
    1
  3
ACAD_GROUP
350
D
  0
DICTIONARY
  5
D
330
C
100
AcDbDictionary
281
    1
  0
PLOTSETTINGS
  5
372
100
AcDbPlotSettings
  6
1x1
 40
0
 41
0
 42
0
 43
0
  0
ENDSEC
  0
EOF
